<svg version="1.1" viewBox="0.0 0.0 631.1128608923884 635.4803149606299" fill="none" stroke="none" stroke-linecap="square" stroke-miterlimit="10" xmlns:xlink="http://www.w3.org/1999/xlink" xmlns="http://www.w3.org/2000/svg"><clipPath id="p.0"><path d="m0 0l631.11285 0l0 635.4803l-631.11285 0l0 -635.4803z" clip-rule="nonzero"/></clipPath><g clip-path="url(#p.0)"><path fill="#000000" fill-opacity="0.0" d="m0 0l631.11285 0l0 635.4803l-631.11285 0z" fill-rule="evenodd"/><path fill="#8e7cc3" d="m555.66693 200.05774l-74.14169 398.2992l-463.11813 -498.36218z" fill-rule="evenodd"/><path fill="#e69138" d="m20.12123 386.96054l232.7559 -372.6929l156.25195 615.65356z" fill-rule="evenodd"/><path stroke="#000000" stroke-width="8.0" stroke-linejoin="round" stroke-linecap="butt" d="m20.12123 386.96054l232.7559 -372.6929l156.25195 615.65356z" fill-rule="evenodd"/><path fill="#1155cc" d="m453.48297 38.02878l176.5669 344.34647l-503.46454 -176.7559z" fill-rule="evenodd"/><path fill="#f1c232" d="m246.55197 119.2364l166.07874 11.937004l-184.0315 237.85828z" fill-rule="evenodd"/><path fill="#9fc5e8" d="m211.78275 543.1502l-138.86615 -321.44882l470.11026 178.36221z" fill-rule="evenodd"/><path fill="#ff0000" d="m495.7415 324.42117l-271.59055 83.93701l214.23624 -269.51178z" fill-rule="evenodd"/><path fill="#b4a7d6" d="m263.95013 293.99738l0 0c0 -28.501373 23.10492 -51.606293 51.606293 -51.606293l0 0c13.686859 0 26.81311 5.4370728 36.49118 15.115143c9.67804 9.67804 15.115112 22.804321 15.115112 36.49115l0 0c0 28.501373 -23.10492 51.606293 -51.606293 51.606293l0 0c-28.501373 0 -51.606293 -23.10492 -51.606293 -51.606293z" fill-rule="evenodd"/><path stroke="#000000" stroke-width="8.0" stroke-linejoin="round" stroke-linecap="butt" d="m263.95013 293.99738l0 0c0 -28.501373 23.10492 -51.606293 51.606293 -51.606293l0 0c13.686859 0 26.81311 5.4370728 36.49118 15.115143c9.67804 9.67804 15.115112 22.804321 15.115112 36.49115l0 0c0 28.501373 -23.10492 51.606293 -51.606293 51.606293l0 0c-28.501373 0 -51.606293 -23.10492 -51.606293 -51.606293z" fill-rule="evenodd"/><path fill="#ffff00" d="m105.514435 204.92126l0 0c0 -15.211746 12.331558 -27.543304 27.543304 -27.543304l0 0c7.304947 0 14.310684 2.9018707 19.476059 8.0672455c5.1653748 5.1653595 8.0672455 12.171112 8.0672455 19.476059l0 0c0 15.211746 -12.331558 27.543304 -27.543304 27.543304l0 0c-15.211746 0 -27.543304 -12.331558 -27.543304 -27.543304z" fill-rule="evenodd"/><path fill="#ffff00" d="m344.2047 475.11285l0 0c0 -15.211731 12.3315735 -27.543304 27.543304 -27.543304l0 0c7.304962 0 14.310699 2.901886 19.476074 8.067261c5.1653748 5.1653748 8.067261 12.171112 8.067261 19.476044l0 0c0 15.211761 -12.3315735 27.543304 -27.543335 27.543304l0 0c-15.211731 0 -27.543304 -12.331543 -27.543304 -27.543304z" fill-rule="evenodd"/><path fill="#ffff00" d="m513.37006 204.92126l0 0c0 -15.211746 12.331604 -27.543304 27.543335 -27.543304l0 0c7.3049316 0 14.310669 2.9018707 19.476074 8.0672455c5.165344 5.1653595 8.0672 12.171112 8.0672 19.476059l0 0c0 15.211746 -12.331543 27.543304 -27.543274 27.543304l0 0c-15.211731 0 -27.543335 -12.331558 -27.543335 -27.543304z" fill-rule="evenodd"/></g></svg>