<svg version="1.1" viewBox="0.0 0.0 139.69291338582678 149.85826771653544" fill="none" stroke="none" stroke-linecap="square" stroke-miterlimit="10" xmlns:xlink="http://www.w3.org/1999/xlink" xmlns="http://www.w3.org/2000/svg"><clipPath id="p.0"><path d="m0 0l139.69292 0l0 149.85826l-139.69292 0l0 -149.85826z" clip-rule="nonzero"/></clipPath><g clip-path="url(#p.0)"><path fill="#000000" fill-opacity="0.0" d="m0 0l139.69292 0l0 149.85826l-139.69292 0z" fill-rule="evenodd"/><path fill="#274e13" fill-opacity="0.71" d="m35.156315 108.53041c-7.6595764 3.222084 -12.974354 10.991287 -14.068798 15.91893c-1.0944462 4.927643 2.5001965 10.235825 7.5021286 13.646927c5.00193 3.4111176 14.224709 5.6831207 22.509464 6.819748c8.284756 1.1366119 19.6954 0.56829834 27.199062 0c7.5036697 -0.5683136 12.820496 -1.3256531 17.822945 -3.4098663c5.0024414 -2.0842285 10.941376 -4.7367706 12.191727 -9.095474c1.2503586 -4.358719 -0.9380188 -12.697464 -4.689598 -17.0568c-3.7515793 -4.359329 -11.723488 -7.3930206 -17.819862 -9.099197c-6.096382 -1.7061768 -10.317223 -1.5171585 -18.7584 -1.1378632c-8.441181 0.37928772 -24.229088 0.19150543 -31.888668 3.413597z" fill-rule="evenodd"/><path fill="#ffffff" d="m15.446195 73.485565l0 0c0 -30.301735 24.564407 -54.866142 54.86614 -54.866142l0 0c14.551407 0 28.506828 5.7805233 38.796227 16.06992c10.289398 10.289398 16.069916 24.244816 16.069916 38.796223l0 0c0 30.301735 -24.564407 54.866135 -54.866142 54.866135l0 0c-30.301731 0 -54.86614 -24.5644 -54.86614 -54.866135z" fill-rule="evenodd"/><path stroke="#000000" stroke-width="8.0" stroke-linejoin="round" stroke-linecap="butt" d="m15.446195 73.485565l0 0c0 -30.301735 24.564407 -54.866142 54.86614 -54.866142l0 0c14.551407 0 28.506828 5.7805233 38.796227 16.06992c10.289398 10.289398 16.069916 24.244816 16.069916 38.796223l0 0c0 30.301735 -24.564407 54.866135 -54.866142 54.866135l0 0c-30.301731 0 -54.86614 -24.5644 -54.86614 -54.866135z" fill-rule="evenodd"/><path fill="#b7b7b7" d="m73.057526 120.67585c-3.0091858 0.2314148 -9.073929 -0.045051575 -13.333336 -0.832016c-4.259403 -0.7869644 -8.010059 -1.5748062 -12.223095 -3.8897629c-4.2130356 -2.3149643 -9.583115 -6.20385 -13.055119 -10.0c-3.472004 -3.7961502 -5.971567 -7.9160156 -7.776903 -12.776909c-1.8053379 -4.8608856 -2.8237095 -10.832893 -3.0551186 -16.38845c-0.23140907 -5.5555496 0.694664 -12.222656 1.666666 -16.944878c0.97200394 -4.722225 2.2672806 -8.008751 4.1653557 -11.388454c1.8980751 -3.3796997 4.3062096 -6.389763 7.223095 -8.889763c2.9168854 -2.5 7.3617706 -4.489937 10.278217 -6.110237c2.9164467 -1.6202965 4.3040237 -2.6391068 7.2204704 -3.6115475c2.9164505 -0.9724407 7.9168854 -2.08399 10.278217 -2.2230968c2.3613281 -0.13910866 3.3342056 0.46237946 3.8897629 1.3884506c0.55555725 0.9260731 1.4343872 2.8713913 -0.556427 4.16798c-1.9908142 1.2965889 -7.5459366 0.5096245 -11.388454 3.6115494c-3.8425217 3.101925 -9.398075 9.259403 -11.666668 15.0c-2.268589 5.740593 -2.7318459 12.406826 -1.9448814 19.44357c0.7869644 7.036743 3.472004 16.85083 6.666668 22.776901c3.194664 5.926071 8.797462 9.816277 12.501312 12.779526c3.7038498 2.9632568 6.7589645 3.7502213 9.7217865 5.0c2.9628143 1.2497864 7.036743 1.3875809 8.055115 2.4986877c1.0183716 1.1111145 -0.83377075 3.103241 -1.9448776 4.167984c-1.1111145 1.0647354 -1.7126007 1.9890594 -4.7217865 2.2204666z" fill-rule="evenodd"/></g></svg>