<svg version="1.1" viewBox="0.0 0.0 378.61942257217845 494.06824146981626" fill="none" stroke="none" stroke-linecap="square" stroke-miterlimit="10" xmlns:xlink="http://www.w3.org/1999/xlink" xmlns="http://www.w3.org/2000/svg"><clipPath id="p.0"><path d="m0 0l378.61942 0l0 494.06824l-378.61942 0l0 -494.06824z" clip-rule="nonzero"/></clipPath><g clip-path="url(#p.0)"><path fill="#000000" fill-opacity="0.0" d="m0 0l378.61942 0l0 494.06824l-378.61942 0z" fill-rule="evenodd"/><path fill="#274e13" fill-opacity="0.7136" d="m146.2074 418.4825c14.2760315 4.9654236 18.827652 19.033234 32.275604 18.619415c13.447937 -0.41381836 34.136475 -20.688538 48.412064 -21.102356c14.275589 -0.41381836 35.793076 9.309265 37.24147 18.619415c1.4483948 9.31015 -1.447937 31.034546 -28.551178 37.241455c-27.103241 6.206909 -103.44751 6.206909 -134.06824 0c-30.620735 -6.206909 -48.207783 -26.48294 -49.656166 -37.241455c-1.4483795 -10.758545 25.24147 -24.6203 40.96588 -27.309723c15.724411 -2.689392 39.104553 6.207794 53.38057 11.173248z" fill-rule="evenodd"/><path fill="#ffffff" d="m205.72629 373.85684l0 0c-12.567734 -40.808197 -5.2562256 -79.27643 16.330719 -85.921265l0 0c10.366409 -3.1909485 22.705734 1.5335999 34.303467 13.134277c11.597717 11.6006775 21.503815 29.127228 27.539062 48.724l0 0c12.5677185 40.808197 5.2562256 79.27646 -16.330719 85.921265l0 0c-21.586945 6.644806 -49.27478 -21.05008 -61.84253 -61.858276z" fill-rule="evenodd"/><path stroke="#0000ff" stroke-width="8.0" stroke-linejoin="round" stroke-linecap="butt" d="m205.72629 373.85684l0 0c-12.567734 -40.808197 -5.2562256 -79.27643 16.330719 -85.921265l0 0c10.366409 -3.1909485 22.705734 1.5335999 34.303467 13.134277c11.597717 11.6006775 21.503815 29.127228 27.539062 48.724l0 0c12.5677185 40.808197 5.2562256 79.27646 -16.330719 85.921265l0 0c-21.586945 6.644806 -49.27478 -21.05008 -61.84253 -61.858276z" fill-rule="evenodd"/><path fill="#9fc5e8" d="m91.53342 348.46982l0 0c13.941933 -40.355927 42.553406 -67.09192 63.905518 -59.716522l0 0c10.253647 3.5417786 17.427689 14.637024 19.943924 30.84491c2.5162354 16.207855 0.16854858 36.200684 -6.526596 55.58029l0 0c-13.94194 40.355927 -42.553406 67.09192 -63.905518 59.716522l0 0c-21.352112 -7.3753967 -27.359253 -46.069275 -13.417328 -86.4252z" fill-rule="evenodd"/><path stroke="#0000ff" stroke-width="8.0" stroke-linejoin="round" stroke-linecap="butt" d="m91.53342 348.46982l0 0c13.941933 -40.355927 42.553406 -67.09192 63.905518 -59.716522l0 0c10.253647 3.5417786 17.427689 14.637024 19.943924 30.84491c2.5162354 16.207855 0.16854858 36.200684 -6.526596 55.58029l0 0c-13.94194 40.355927 -42.553406 67.09192 -63.905518 59.716522l0 0c-21.352112 -7.3753967 -27.359253 -46.069275 -13.417328 -86.4252z" fill-rule="evenodd"/><path fill="#ffffff" d="m73.72179 221.24147l0 0c0 -69.92708 50.574196 -126.614174 112.96063 -126.614174l0 0c29.959015 0 58.690994 13.339668 79.87523 37.084435c21.184235 23.744766 33.08539 55.94957 33.08539 89.52974l0 0c0 69.92708 -50.57419 126.61418 -112.96062 126.61418l0 0c-62.386436 0 -112.96063 -56.687103 -112.96063 -126.61418z" fill-rule="evenodd"/><path stroke="#0000ff" stroke-width="8.0" stroke-linejoin="round" stroke-linecap="butt" d="m73.72179 221.24147l0 0c0 -69.92708 50.574196 -126.614174 112.96063 -126.614174l0 0c29.959015 0 58.690994 13.339668 79.87523 37.084435c21.184235 23.744766 33.08539 55.94957 33.08539 89.52974l0 0c0 69.92708 -50.57419 126.61418 -112.96062 126.61418l0 0c-62.386436 0 -112.96063 -56.687103 -112.96063 -126.61418z" fill-rule="evenodd"/><path fill="#ffffff" d="m142.61942 62.968502l0 0c0 -27.083694 19.727676 -49.039368 44.063004 -49.039368l0 0c11.6862335 0 22.89383 5.1666327 31.157242 14.363299c8.263412 9.196665 12.905746 21.670023 12.905746 34.67607l0 0c0 27.083698 -19.727676 49.03937 -44.06299 49.03937l0 0c-24.335327 0 -44.063004 -21.955673 -44.063004 -49.03937z" fill-rule="evenodd"/><path stroke="#0000ff" stroke-width="8.0" stroke-linejoin="round" stroke-linecap="butt" d="m142.61942 62.968502l0 0c0 -27.083694 19.727676 -49.039368 44.063004 -49.039368l0 0c11.6862335 0 22.89383 5.1666327 31.157242 14.363299c8.263412 9.196665 12.905746 21.670023 12.905746 34.67607l0 0c0 27.083698 -19.727676 49.03937 -44.06299 49.03937l0 0c-24.335327 0 -44.063004 -21.955673 -44.063004 -49.03937z" fill-rule="evenodd"/><path fill="#ffffff" d="m271.87924 212.27562l0 0c-22.71759 -51.51468 -24.381546 -100.67171 -3.7165222 -109.79527l0 0c9.923676 -4.3812943 23.774658 1.2440796 38.50586 15.638603c14.731201 14.394524 29.135956 36.37908 40.04532 61.117302l0 0c22.71759 51.51468 24.381561 100.67171 3.7165527 109.79527l0 0c-20.66504 9.123566 -55.833588 -25.24121 -78.55121 -76.755905z" fill-rule="evenodd"/><path stroke="#0000ff" stroke-width="8.0" stroke-linejoin="round" stroke-linecap="butt" d="m271.87924 212.27562l0 0c-22.71759 -51.51468 -24.381546 -100.67171 -3.7165222 -109.79527l0 0c9.923676 -4.3812943 23.774658 1.2440796 38.50586 15.638603c14.731201 14.394524 29.135956 36.37908 40.04532 61.117302l0 0c22.71759 51.51468 24.381561 100.67171 3.7165527 109.79527l0 0c-20.66504 9.123566 -55.833588 -25.24121 -78.55121 -76.755905z" fill-rule="evenodd"/><path fill="#0000ff" d="m327.58 121.926506l-95.07594 19.863518l-35.26927 -31.034119l29.134933 -24.8294l59.806686 -8.690285z" fill-rule="evenodd"/><path stroke="#0000ff" stroke-width="1.0" stroke-linejoin="round" stroke-linecap="butt" d="m327.58 121.926506l-95.07594 19.863518l-35.26927 -31.034119l29.134933 -24.8294l59.806686 -8.690285z" fill-rule="evenodd"/><path fill="#9fc5e8" d="m339.52814 275.1904c-7.1684265 -0.73153687 -21.650665 -13.167938 -28.965118 -20.190384c-7.3144226 -7.0224457 -19.164062 -22.968689 -14.921478 -21.94423c4.2426147 1.0244598 30.72174 23.702087 40.377106 28.090973c9.655334 4.388916 16.970093 -4.0981445 17.554993 -1.7575378c0.5849304 2.3406067 -6.8770447 16.532715 -14.045502 15.801178z" fill-rule="evenodd"/><path fill="#9fc5e8" d="m84.98116 260.96588c-1.986351 -7.6548615 -4.568611 -20.06868 -2.3836212 -37.24147c2.18499 -17.17279 10.3294525 -48.622482 15.493546 -65.79527c5.164093 -17.17279 6.156006 -31.24147 15.49102 -37.24147c9.335014 -6.0 30.190872 -0.20691681 40.51906 1.2414627c10.328186 1.4483871 15.49144 6.6211777 21.450073 7.4488297c5.9586334 0.8276367 17.678116 -6.827652 14.301743 -2.4829483c-3.3763885 4.3447037 -25.42363 17.585747 -34.560013 28.551186c-9.136368 10.965439 -16.087341 24.0 -20.258255 37.24147c-4.170929 13.24147 -4.7672577 28.13823 -4.7672577 42.20735c0 14.069107 -0.59547424 29.586609 4.7672577 42.207336c5.3627167 12.620728 18.074112 26.068695 27.409134 33.51706c9.335007 7.448395 29.395477 8.276459 28.600937 11.173248c-0.7945404 2.896759 -22.04683 8.276459 -33.368195 6.2073364c-11.32135 -2.0691223 -24.033173 -8.897644 -34.55999 -18.62204c-10.526825 -9.724426 -22.24504 -31.655731 -28.600945 -39.724426c-6.3559113 -8.068665 -7.5481415 -1.0328064 -9.5344925 -8.687653z" fill-rule="evenodd"/><path fill="#ffffff" d="m26.382563 182.43315l0 0c18.342813 -53.071533 50.521904 -90.115555 71.874016 -82.740166l0 0c10.253647 3.5417862 16.588158 17.062729 17.610008 37.588356c1.0218506 20.525635 -3.3526611 46.37462 -12.161186 71.86046l0 0c-18.342812 53.071518 -50.521904 90.115555 -71.874016 82.74016l0 0c-21.352112 -7.3753967 -23.791632 -56.37729 -5.44882 -109.44881z" fill-rule="evenodd"/><path stroke="#0000ff" stroke-width="8.0" stroke-linejoin="round" stroke-linecap="butt" d="m26.382563 182.43315l0 0c18.342813 -53.071533 50.521904 -90.115555 71.874016 -82.740166l0 0c10.253647 3.5417862 16.588158 17.062729 17.610008 37.588356c1.0218506 20.525635 -3.3526611 46.37462 -12.161186 71.86046l0 0c-18.342812 53.071518 -50.521904 90.115555 -71.874016 82.74016l0 0c-21.352112 -7.3753967 -23.791632 -56.37729 -5.44882 -109.44881z" fill-rule="evenodd"/><path fill="#9fc5e8" d="m25.319849 266.47745c-2.6372967 -2.4521484 -4.4605637 -11.280502 -4.6802216 -20.213684c-0.2196598 -8.9331665 1.3008881 -23.147995 3.3622723 -33.385345c2.0613842 -10.23735 4.198036 -15.491135 9.006031 -28.038757c4.8079987 -12.547607 14.132591 -36.209305 19.84195 -47.246964c5.709358 -11.037651 9.837475 -16.164131 14.414211 -18.978966c4.576729 -2.8148346 16.846626 -10.3159485 13.046188 2.0899734c-3.8004303 12.40593 -28.410847 53.12326 -35.848797 72.34555c-7.4379463 19.222305 -7.4458694 31.666992 -8.778881 42.988235c-1.3330154 11.321259 2.5079308 19.865936 0.7808037 24.939255c-1.7271233 5.0733337 -8.50626 7.952881 -11.143557 5.500702z" fill-rule="evenodd"/><path fill="#0000ff" d="m42.06824 121.926506l95.07596 19.863518l35.26927 -31.034119l-29.134918 -24.8294l-59.806686 -8.690285z" fill-rule="evenodd"/><path stroke="#0000ff" stroke-width="1.0" stroke-linejoin="round" stroke-linecap="butt" d="m42.06824 121.926506l95.07596 19.863518l35.26927 -31.034119l-29.134918 -24.8294l-59.806686 -8.690285z" fill-rule="evenodd"/><path fill="#9fc5e8" d="m150.96176 56.257545c3.3127747 -1.4492569 16.409012 7.712162 21.740158 9.627296c5.3311462 1.9151382 10.143478 4.348755E-4 10.246719 1.8635178c0.10324097 1.8630829 -7.3499603 5.8989487 -9.627289 9.314964c-2.2773438 3.416008 -3.829834 7.816704 -4.0367584 11.181099c-0.20690918 3.3643951 4.296158 8.694664 2.795288 9.005249c-1.500885 0.31058502 -8.591431 -3.3635178 -11.800537 -7.1417313c-3.2090912 -3.7782135 -5.901123 -9.885826 -7.454056 -15.527557c-1.5529327 -5.6417313 -5.1763 -16.87358 -1.8635254 -18.322838z" fill-rule="evenodd"/><path fill="#9fc5e8" d="m185.3039 53.495502c-5.181595 0.3684311 -13.409988 -6.266819 -14.171997 -8.847c-0.7619934 -2.5801811 6.8567963 -6.486641 9.600006 -6.6340904c2.7431946 -0.1474495 4.725601 5.823307 6.859192 5.7493896c2.133606 -0.07391739 3.5039978 -5.971916 5.942398 -6.192898c2.4384003 -0.2209816 10.059601 2.2129097 8.688004 4.867008c-1.3715973 2.6541023 -11.735992 10.689159 -16.917603 11.0575905z" fill-rule="evenodd"/><path fill="#ffffff" d="m130.36401 420.9078c-5.8211517 -1.1293945 -4.288208 -56.47296 1.8395233 -66.41226c6.1277313 -9.939331 35.23346 -4.292328 34.92688 6.7763977c-0.30659485 11.068726 -30.945267 60.76529 -36.766403 59.635864z" fill-rule="evenodd"/><path fill="#9fc5e8" d="m208.99315 352.38608c4.0 -2.8000793 18.667099 -4.6679688 24.800522 -6.401581c6.133423 -1.7335815 13.866577 -6.2668457 12.0 -4.0c-1.8665771 2.2668457 -21.199463 8.400696 -23.199463 17.601044c-2.0 9.200348 6.5328064 28.26773 11.199463 37.601044c4.6666718 9.3333435 11.467194 14.398956 16.800537 18.398956c5.3333282 4.0 13.999542 3.3342285 15.199463 5.6010437c1.1999207 2.2668457 -3.0664978 8.666687 -8.0 8.0c-4.933502 -0.6666565 -15.201218 -6.0 -21.601044 -12.0c-6.399826 -6.0 -12.398071 -14.933044 -16.797897 -24.0c-4.399826 -9.066925 -7.867462 -23.60147 -9.601059 -30.40155c-1.7335968 -6.80011 -4.800522 -7.598877 -0.80052185 -10.398956z" fill-rule="evenodd"/></g></svg>