<svg version="1.1" viewBox="0.0 0.0 1010.8293963254594 625.7034120734908" fill="none" stroke="none" stroke-linecap="square" stroke-miterlimit="10" xmlns:xlink="http://www.w3.org/1999/xlink" xmlns="http://www.w3.org/2000/svg"><clipPath id="p.0"><path d="m0 0l1010.8294 0l0 625.7034l-1010.8294 0l0 -625.7034z" clip-rule="nonzero"/></clipPath><g clip-path="url(#p.0)"><path fill="#6aa84f" d="m0 0l1010.8294 0l0 625.7034l-1010.8294 0z" fill-rule="evenodd"/><path fill="#000000" fill-opacity="0.0" d="m234.79265 312.8517l0 0c0 -148.96904 121.63048 -269.7323 271.6693 -269.7323l0 0c72.05118 0 141.15134 28.418144 192.09921 79.002754c50.947876 50.584625 79.57007 119.19208 79.57007 190.72954l0 0c0 148.96902 -121.63049 269.73227 -271.66928 269.73227l0 0c-150.03882 0 -271.6693 -120.763245 -271.6693 -269.73227z" fill-rule="evenodd"/><path stroke="#ffffff" stroke-width="4.0" stroke-linejoin="round" stroke-linecap="butt" d="m234.79265 312.8517l0 0c0 -148.96904 121.63048 -269.7323 271.6693 -269.7323l0 0c72.05118 0 141.15134 28.418144 192.09921 79.002754c50.947876 50.584625 79.57007 119.19208 79.57007 190.72954l0 0c0 148.96902 -121.63049 269.73227 -271.66928 269.73227l0 0c-150.03882 0 -271.6693 -120.763245 -271.6693 -269.73227z" fill-rule="evenodd"/><path fill="#000000" fill-opacity="0.0" d="m278.1286 310.67978l0 0c0 -128.36488 102.22714 -232.42519 228.33072 -232.42519l0 0c60.557037 0 118.63388 24.487587 161.4542 68.07576c42.820312 43.58818 66.876526 102.706436 66.876526 164.34943l0 0c0 128.3649 -102.22717 232.4252 -228.33072 232.4252l0 0c-126.10358 0 -228.33072 -104.0603 -228.33072 -232.4252z" fill-rule="evenodd"/><path stroke="#ffffff" stroke-width="2.0" stroke-linejoin="round" stroke-linecap="butt" stroke-dasharray="8.0,6.0" d="m278.1286 310.67978l0 0c0 -128.36488 102.22714 -232.42519 228.33072 -232.42519l0 0c60.557037 0 118.63388 24.487587 161.4542 68.07576c42.820312 43.58818 66.876526 102.706436 66.876526 164.34943l0 0c0 128.3649 -102.22717 232.4252 -228.33072 232.4252l0 0c-126.10358 0 -228.33072 -104.0603 -228.33072 -232.4252z" fill-rule="evenodd"/><path fill="#000000" fill-opacity="0.0" d="m450.91077 312.85303l0 0c0 -30.64093 24.402252 -55.480316 54.503937 -55.480316l0 0c14.455353 0 28.318634 5.845215 38.54007 16.249786c10.221497 10.404602 15.963867 24.516235 15.963867 39.23053l0 0c0 30.64093 -24.402222 55.480316 -54.503937 55.480316l0 0c-30.101685 0 -54.503937 -24.839386 -54.503937 -55.480316z" fill-rule="evenodd"/><path stroke="#ffffff" stroke-width="2.0" stroke-linejoin="round" stroke-linecap="butt" stroke-dasharray="8.0,6.0" d="m450.91077 312.85303l0 0c0 -30.64093 24.402252 -55.480316 54.503937 -55.480316l0 0c14.455353 0 28.318634 5.845215 38.54007 16.249786c10.221497 10.404602 15.963867 24.516235 15.963867 39.23053l0 0c0 30.64093 -24.402222 55.480316 -54.503937 55.480316l0 0c-30.101685 0 -54.503937 -24.839386 -54.503937 -55.480316z" fill-rule="evenodd"/><path fill="#ffffff" d="m499.91077 312.85303l0 0c0 -3.679016 2.9330444 -6.661438 6.551178 -6.661438l0 0c1.7374878 0 3.4038086 0.70184326 4.6323853 1.9511108c1.2286072 1.2492371 1.9187927 2.9436035 1.9187927 4.710327l0 0c0 3.6789856 -2.933075 6.6614075 -6.551178 6.6614075l0 0c-3.6181335 0 -6.551178 -2.9824219 -6.551178 -6.6614075z" fill-rule="evenodd"/><path stroke="#ffffff" stroke-width="2.0" stroke-linejoin="round" stroke-linecap="butt" d="m499.91077 312.85303l0 0c0 -3.679016 2.9330444 -6.661438 6.551178 -6.661438l0 0c1.7374878 0 3.4038086 0.70184326 4.6323853 1.9511108c1.2286072 1.2492371 1.9187927 2.9436035 1.9187927 4.710327l0 0c0 3.6789856 -2.933075 6.6614075 -6.551178 6.6614075l0 0c-3.6181335 0 -6.551178 -2.9824219 -6.551178 -6.6614075z" fill-rule="evenodd"/></g></svg>