<svg version="1.1" viewBox="0.0 0.0 960.0 720.0" fill="none" stroke="none" stroke-linecap="square" stroke-miterlimit="10" xmlns:xlink="http://www.w3.org/1999/xlink" xmlns="http://www.w3.org/2000/svg"><clipPath id="p.0"><path d="m0 0l960.0 0l0 720.0l-960.0 0l0 -720.0z" clip-rule="nonzero"/></clipPath><g clip-path="url(#p.0)"><path fill="#000000" d="m0 0l960.0 0l0 720.0l-960.0 0z" fill-rule="evenodd"/><path fill="#ffd966" d="m274.46194 391.958l0 0c0 -10.532562 8.53833 -19.070862 19.070862 -19.070862l0 0c5.0579224 0 9.908661 2.0092468 13.485138 5.585724c3.576477 3.576477 5.585724 8.427216 5.585724 13.485138l0 0c0 10.532532 -8.5383 19.070862 -19.070862 19.070862l0 0c-10.532532 0 -19.070862 -8.53833 -19.070862 -19.070862z" fill-rule="evenodd"/><path fill="#ffd966" d="m456.00525 163.69817l0 0c0 -10.532547 8.53833 -19.070862 19.070862 -19.070862l0 0c5.0579224 0 9.908661 2.0092316 13.485138 5.585724c3.576477 3.576477 5.585724 8.427231 5.585724 13.485138l0 0c0 10.532547 -8.5383 19.070862 -19.070862 19.070862l0 0c-10.532532 0 -19.070862 -8.538315 -19.070862 -19.070862z" fill-rule="evenodd"/><path fill="#ffd966" d="m603.6982 360.0l0 0c0 -10.532562 8.538269 -19.070862 19.070862 -19.070862l0 0c5.0579224 0 9.90863 2.0092468 13.485107 5.585724c3.576477 3.576477 5.5857544 8.427216 5.5857544 13.485138l0 0c0 10.532562 -8.53833 19.070862 -19.070862 19.070862l0 0c-10.532593 0 -19.070862 -8.5383 -19.070862 -19.070862z" fill-rule="evenodd"/><path fill="#000000" fill-opacity="0.0" d="m-1.243669 162.44138l281.29135 216.0315" fill-rule="evenodd"/><path stroke="#ffffff" stroke-width="3.0" stroke-linejoin="round" stroke-linecap="butt" d="m-1.243669 162.44138l281.29135 216.0315" fill-rule="evenodd"/><path fill="#000000" fill-opacity="0.0" d="m333.5328 721.2336l-40.0 -310.2047" fill-rule="evenodd"/><path stroke="#ffffff" stroke-width="3.0" stroke-linejoin="round" stroke-linecap="butt" d="m333.5328 721.2336l-40.0 -310.2047" fill-rule="evenodd"/><path fill="#000000" fill-opacity="0.0" d="m461.59097 177.1833l-154.58267 201.29134" fill-rule="evenodd"/><path stroke="#ffffff" stroke-width="3.0" stroke-linejoin="round" stroke-linecap="butt" d="m461.59097 177.1833l-154.58267 201.29134" fill-rule="evenodd"/><path fill="#000000" fill-opacity="0.0" d="m488.56125 177.1833l120.724396 169.32283" fill-rule="evenodd"/><path stroke="#ffffff" stroke-width="3.0" stroke-linejoin="round" stroke-linecap="butt" d="m488.56125 177.1833l120.724396 169.32283" fill-rule="evenodd"/><path fill="#000000" fill-opacity="0.0" d="m312.60367 391.958l291.08664 -31.968506" fill-rule="evenodd"/><path stroke="#ffffff" stroke-width="3.0" stroke-linejoin="round" stroke-linecap="butt" d="m312.60367 391.958l291.08664 -31.968506" fill-rule="evenodd"/><path fill="#000000" fill-opacity="0.0" d="m461.59097 150.21303l-153.88977 -153.92126" fill-rule="evenodd"/><path stroke="#ffffff" stroke-width="3.0" stroke-linejoin="round" stroke-linecap="butt" d="m461.59097 150.21303l-153.88977 -153.92126" fill-rule="evenodd"/><path fill="#000000" fill-opacity="0.0" d="m571.08093 -2.4798894l-82.519684 152.69292" fill-rule="evenodd"/><path stroke="#ffffff" stroke-width="3.0" stroke-linejoin="round" stroke-linecap="butt" d="m571.08093 -2.4798894l-82.519684 152.69292" fill-rule="evenodd"/><path fill="#000000" fill-opacity="0.0" d="m963.6903 157.52493l-469.54333 6.173233" fill-rule="evenodd"/><path stroke="#ffffff" stroke-width="3.0" stroke-linejoin="round" stroke-linecap="butt" d="m963.6903 157.52493l-469.54333 6.173233" fill-rule="evenodd"/><path fill="#000000" fill-opacity="0.0" d="m622.76904 379.07086l-36.91339 342.17322" fill-rule="evenodd"/><path stroke="#ffffff" stroke-width="3.0" stroke-linejoin="round" stroke-linecap="butt" d="m622.76904 379.07086l-36.91339 342.17322" fill-rule="evenodd"/><path fill="#000000" fill-opacity="0.0" d="m636.25415 373.48514l195.74805 347.74802" fill-rule="evenodd"/><path stroke="#ffffff" stroke-width="3.0" stroke-linejoin="round" stroke-linecap="butt" d="m636.25415 373.48514l195.74805 347.74802" fill-rule="evenodd"/><path fill="#000000" fill-opacity="0.0" d="m-3.668866 558.7975l283.71652 -153.35434" fill-rule="evenodd"/><path stroke="#ffffff" stroke-width="3.0" stroke-linejoin="round" stroke-linecap="butt" d="m-3.668866 558.7975l283.71652 -153.35434" fill-rule="evenodd"/></g></svg>