<svg version="1.1" viewBox="0.0 0.0 960.0 720.0" fill="none" stroke="none" stroke-linecap="square" stroke-miterlimit="10" xmlns:xlink="http://www.w3.org/1999/xlink" xmlns="http://www.w3.org/2000/svg"><clipPath id="p.0"><path d="m0 0l960.0 0l0 720.0l-960.0 0l0 -720.0z" clip-rule="nonzero"/></clipPath><g clip-path="url(#p.0)"><path fill="#000000" d="m0 0l960.0 0l0 720.0l-960.0 0z" fill-rule="evenodd"/><path fill="#cfe2f3" d="m326.15485 126.14698l0 0c0 -1.6959915 1.3748779 -3.0708618 3.0708618 -3.0708618l0 0c0.8144531 0 1.5955505 0.3235321 2.1714478 0.8994293c0.5758972 0.57590485 0.8994446 1.356987 0.8994446 2.1714325l0 0c0 1.6959915 -1.3748779 3.0708694 -3.0708923 3.0708694l0 0c-1.6959839 0 -3.0708618 -1.3748779 -3.0708618 -3.0708694z" fill-rule="evenodd"/><path fill="#cfe2f3" d="m318.15485 142.14699l0 0c0 -1.6959991 1.3748779 -3.070877 3.0708618 -3.070877l0 0c0.8144531 0 1.5955505 0.32354736 2.1714478 0.8994446c0.5758972 0.5758972 0.8994446 1.3569794 0.8994446 2.1714325l0 0c0 1.6959839 -1.3748779 3.0708618 -3.0708923 3.0708618l0 0c-1.6959839 0 -3.0708618 -1.3748779 -3.0708618 -3.0708618z" fill-rule="evenodd"/><path fill="#cfe2f3" d="m334.15485 38.14698l0 0c0 -1.6959915 1.3748779 -3.0708656 3.0708618 -3.0708656l0 0c0.8144531 0 1.5955505 0.32353592 2.1714478 0.89943695c0.5758972 0.5758972 0.8994446 1.356987 0.8994446 2.1714287l0 0c0 1.6959953 -1.3748779 3.0708656 -3.0708923 3.0708656l0 0c-1.6959839 0 -3.0708618 -1.3748703 -3.0708618 -3.0708656z" fill-rule="evenodd"/><path fill="#cfe2f3" d="m78.154854 174.14699l0 0c0 -1.6959991 1.3748779 -3.070877 3.0708694 -3.070877l0 0c0.8144455 0 1.5955276 0.32354736 2.1714325 0.8994446c0.5758972 0.5758972 0.8994293 1.3569794 0.8994293 2.1714325l0 0c0 1.6959839 -1.3748703 3.0708618 -3.0708618 3.0708618l0 0c-1.6959915 0 -3.0708694 -1.3748779 -3.0708694 -3.0708618z" fill-rule="evenodd"/><path fill="#cfe2f3" d="m94.154854 222.14699l0 0c0 -1.6959991 1.3748779 -3.070877 3.0708694 -3.070877l0 0c0.8144455 0 1.5955276 0.32354736 2.1714325 0.8994446c0.5758972 0.5758972 0.8994293 1.3569794 0.8994293 2.1714325l0 0c0 1.6959839 -1.3748703 3.0708618 -3.0708618 3.0708618l0 0c-1.6959915 0 -3.0708694 -1.3748779 -3.0708694 -3.0708618z" fill-rule="evenodd"/><path fill="#cfe2f3" d="m86.154854 182.14699l0 0c0 -1.6959991 1.3748779 -3.070877 3.0708694 -3.070877l0 0c0.8144455 0 1.5955276 0.32354736 2.1714325 0.8994446c0.5758972 0.5758972 0.8994293 1.3569794 0.8994293 2.1714325l0 0c0 1.6959839 -1.3748703 3.0708618 -3.0708618 3.0708618l0 0c-1.6959915 0 -3.0708694 -1.3748779 -3.0708694 -3.0708618z" fill-rule="evenodd"/><path fill="#cfe2f3" d="m102.154854 38.14698l0 0c0 -1.6959915 1.3748779 -3.0708656 3.0708694 -3.0708656l0 0c0.8144455 0 1.5955276 0.32353592 2.1714325 0.89943695c0.5758972 0.5758972 0.8994293 1.356987 0.8994293 2.1714287l0 0c0 1.6959953 -1.3748703 3.0708656 -3.0708618 3.0708656l0 0c-1.6959915 0 -3.0708694 -1.3748703 -3.0708694 -3.0708656z" fill-rule="evenodd"/><path fill="#cfe2f3" d="m118.154854 526.147l0 0c0 -1.6959839 1.3748779 -3.0708618 3.0708694 -3.0708618l0 0c0.8144455 0 1.5955276 0.32354736 2.1714325 0.89941406c0.5758972 0.57592773 0.8994293 1.3569946 0.8994293 2.1714478l0 0c0 1.6959839 -1.3748703 3.0708618 -3.0708618 3.0708618l0 0c-1.6959915 0 -3.0708694 -1.3748779 -3.0708694 -3.0708618z" fill-rule="evenodd"/><path fill="#cfe2f3" d="m118.154854 542.147l0 0c0 -1.6959839 1.3748779 -3.0708618 3.0708694 -3.0708618l0 0c0.8144455 0 1.5955276 0.32354736 2.1714325 0.89941406c0.5758972 0.57592773 0.8994293 1.3569946 0.8994293 2.1714478l0 0c0 1.6959839 -1.3748703 3.0708618 -3.0708618 3.0708618l0 0c-1.6959915 0 -3.0708694 -1.3748779 -3.0708694 -3.0708618z" fill-rule="evenodd"/><path fill="#cfe2f3" d="m134.15486 478.14697l0 0c0 -1.6959839 1.3748627 -3.0708618 3.0708618 -3.0708618l0 0c0.81443787 0 1.5955353 0.32354736 2.1714325 0.8994446c0.5758972 0.5758972 0.8994293 1.3569946 0.8994293 2.1714172l0 0c0 1.6960144 -1.3748779 3.0708618 -3.0708618 3.0708618l0 0c-1.6959991 0 -3.0708618 -1.3748474 -3.0708618 -3.0708618z" fill-rule="evenodd"/><path fill="#cfe2f3" d="m358.15485 670.147l0 0c0 -1.6959839 1.3748779 -3.0708618 3.0708618 -3.0708618l0 0c0.8144531 0 1.5955505 0.32354736 2.1714478 0.89941406c0.5758972 0.57592773 0.8994446 1.3569946 0.8994446 2.1714478l0 0c0 1.6959839 -1.3748779 3.0708618 -3.0708923 3.0708618l0 0c-1.6959839 0 -3.0708618 -1.3748779 -3.0708618 -3.0708618z" fill-rule="evenodd"/><path fill="#cfe2f3" d="m326.15485 646.147l0 0c0 -1.6959839 1.3748779 -3.0708618 3.0708618 -3.0708618l0 0c0.8144531 0 1.5955505 0.32354736 2.1714478 0.89941406c0.5758972 0.57592773 0.8994446 1.3569946 0.8994446 2.1714478l0 0c0 1.6959839 -1.3748779 3.0708618 -3.0708923 3.0708618l0 0c-1.6959839 0 -3.0708618 -1.3748779 -3.0708618 -3.0708618z" fill-rule="evenodd"/><path fill="#cfe2f3" d="m350.15485 654.147l0 0c0 -1.6959839 1.3748779 -3.0708618 3.0708618 -3.0708618l0 0c0.8144531 0 1.5955505 0.32354736 2.1714478 0.89941406c0.5758972 0.57592773 0.8994446 1.3569946 0.8994446 2.1714478l0 0c0 1.6959839 -1.3748779 3.0708618 -3.0708923 3.0708618l0 0c-1.6959839 0 -3.0708618 -1.3748779 -3.0708618 -3.0708618z" fill-rule="evenodd"/><path fill="#cfe2f3" d="m430.15485 670.147l0 0c0 -1.6959839 1.3748779 -3.0708618 3.0708618 -3.0708618l0 0c0.8144531 0 1.5955505 0.32354736 2.1714478 0.89941406c0.5758972 0.57592773 0.8994446 1.3569946 0.8994446 2.1714478l0 0c0 1.6959839 -1.3748779 3.0708618 -3.0708923 3.0708618l0 0c-1.6959839 0 -3.0708618 -1.3748779 -3.0708618 -3.0708618z" fill-rule="evenodd"/><path fill="#cfe2f3" d="m414.15485 238.14699l0 0c0 -1.6959991 1.3748779 -3.070877 3.0708618 -3.070877l0 0c0.8144531 0 1.5955505 0.32354736 2.1714478 0.8994446c0.5758972 0.5758972 0.8994446 1.3569794 0.8994446 2.1714325l0 0c0 1.6959839 -1.3748779 3.0708618 -3.0708923 3.0708618l0 0c-1.6959839 0 -3.0708618 -1.3748779 -3.0708618 -3.0708618z" fill-rule="evenodd"/><path fill="#cfe2f3" d="m446.15485 214.14699l0 0c0 -1.6959991 1.3748779 -3.070877 3.0708618 -3.070877l0 0c0.8144531 0 1.5955505 0.32354736 2.1714478 0.8994446c0.5758972 0.5758972 0.8994446 1.3569794 0.8994446 2.1714325l0 0c0 1.6959839 -1.3748779 3.0708618 -3.0708923 3.0708618l0 0c-1.6959839 0 -3.0708618 -1.3748779 -3.0708618 -3.0708618z" fill-rule="evenodd"/><path fill="#cfe2f3" d="m750.15485 254.14699l0 0c0 -1.6959991 1.3748779 -3.070877 3.0708618 -3.070877l0 0c0.8144531 0 1.59552 0.32354736 2.1714478 0.8994446c0.5758667 0.5758972 0.89941406 1.3569794 0.89941406 2.1714325l0 0c0 1.6959839 -1.3748779 3.0708466 -3.0708618 3.0708466l0 0c-1.6959839 0 -3.0708618 -1.3748627 -3.0708618 -3.0708466z" fill-rule="evenodd"/><path fill="#cfe2f3" d="m774.15485 262.14697l0 0c0 -1.6959839 1.3748779 -3.0708618 3.0708618 -3.0708618l0 0c0.8144531 0 1.59552 0.32354736 2.1714478 0.8994446c0.5758667 0.5758972 0.89941406 1.3569946 0.89941406 2.1714172l0 0c0 1.6960144 -1.3748779 3.0708618 -3.0708618 3.0708618l0 0c-1.6959839 0 -3.0708618 -1.3748474 -3.0708618 -3.0708618z" fill-rule="evenodd"/><path fill="#cfe2f3" d="m806.15485 278.14697l0 0c0 -1.6959839 1.3748779 -3.0708618 3.0708618 -3.0708618l0 0c0.8144531 0 1.59552 0.32354736 2.1714478 0.8994446c0.5758667 0.5758972 0.89941406 1.3569946 0.89941406 2.1714172l0 0c0 1.6960144 -1.3748779 3.0708618 -3.0708618 3.0708618l0 0c-1.6959839 0 -3.0708618 -1.3748474 -3.0708618 -3.0708618z" fill-rule="evenodd"/><path fill="#cfe2f3" d="m774.15485 278.14697l0 0c0 -1.6959839 1.3748779 -3.0708618 3.0708618 -3.0708618l0 0c0.8144531 0 1.59552 0.32354736 2.1714478 0.8994446c0.5758667 0.5758972 0.89941406 1.3569946 0.89941406 2.1714172l0 0c0 1.6960144 -1.3748779 3.0708618 -3.0708618 3.0708618l0 0c-1.6959839 0 -3.0708618 -1.3748474 -3.0708618 -3.0708618z" fill-rule="evenodd"/><path fill="#cfe2f3" d="m694.15485 294.14697l0 0c0 -1.6959839 1.3748779 -3.0708618 3.0708618 -3.0708618l0 0c0.8144531 0 1.59552 0.32354736 2.1714478 0.8994446c0.5758667 0.5758972 0.89941406 1.3569946 0.89941406 2.1714172l0 0c0 1.6960144 -1.3748779 3.0708618 -3.0708618 3.0708618l0 0c-1.6959839 0 -3.0708618 -1.3748474 -3.0708618 -3.0708618z" fill-rule="evenodd"/><path fill="#cfe2f3" d="m526.15485 374.14697l0 0c0 -1.6959839 1.3748779 -3.0708618 3.0708618 -3.0708618l0 0c0.8144531 0 1.59552 0.32354736 2.1714478 0.8994446c0.5758667 0.5758972 0.89941406 1.3569946 0.89941406 2.1714172l0 0c0 1.6960144 -1.3748779 3.0708618 -3.0708618 3.0708618l0 0c-1.6959839 0 -3.0708618 -1.3748474 -3.0708618 -3.0708618z" fill-rule="evenodd"/><path fill="#cfe2f3" d="m678.15485 310.14697l0 0c0 -1.6959839 1.3748779 -3.0708618 3.0708618 -3.0708618l0 0c0.8144531 0 1.59552 0.32354736 2.1714478 0.8994446c0.5758667 0.5758972 0.89941406 1.3569946 0.89941406 2.1714172l0 0c0 1.6960144 -1.3748779 3.0708618 -3.0708618 3.0708618l0 0c-1.6959839 0 -3.0708618 -1.3748474 -3.0708618 -3.0708618z" fill-rule="evenodd"/><path fill="#cfe2f3" d="m526.15485 398.14697l0 0c0 -1.6959839 1.3748779 -3.0708618 3.0708618 -3.0708618l0 0c0.8144531 0 1.59552 0.32354736 2.1714478 0.8994446c0.5758667 0.5758972 0.89941406 1.3569946 0.89941406 2.1714172l0 0c0 1.6960144 -1.3748779 3.0708618 -3.0708618 3.0708618l0 0c-1.6959839 0 -3.0708618 -1.3748474 -3.0708618 -3.0708618z" fill-rule="evenodd"/><path fill="#cfe2f3" d="m558.15485 390.14697l0 0c0 -1.6959839 1.3748779 -3.0708618 3.0708618 -3.0708618l0 0c0.8144531 0 1.59552 0.32354736 2.1714478 0.8994446c0.5758667 0.5758972 0.89941406 1.3569946 0.89941406 2.1714172l0 0c0 1.6960144 -1.3748779 3.0708618 -3.0708618 3.0708618l0 0c-1.6959839 0 -3.0708618 -1.3748474 -3.0708618 -3.0708618z" fill-rule="evenodd"/><path fill="#cfe2f3" d="m590.15485 406.14697l0 0c0 -1.6959839 1.3748779 -3.0708618 3.0708618 -3.0708618l0 0c0.8144531 0 1.59552 0.32354736 2.1714478 0.8994446c0.5758667 0.5758972 0.89941406 1.3569946 0.89941406 2.1714172l0 0c0 1.6960144 -1.3748779 3.0708618 -3.0708618 3.0708618l0 0c-1.6959839 0 -3.0708618 -1.3748474 -3.0708618 -3.0708618z" fill-rule="evenodd"/><path fill="#cfe2f3" d="m614.15485 366.14697l0 0c0 -1.6959839 1.3748779 -3.0708618 3.0708618 -3.0708618l0 0c0.8144531 0 1.59552 0.32354736 2.1714478 0.8994446c0.5758667 0.5758972 0.89941406 1.3569946 0.89941406 2.1714172l0 0c0 1.6960144 -1.3748779 3.0708618 -3.0708618 3.0708618l0 0c-1.6959839 0 -3.0708618 -1.3748474 -3.0708618 -3.0708618z" fill-rule="evenodd"/><path fill="#cfe2f3" d="m310.15485 382.14697l0 0c0 -1.6959839 1.3748779 -3.0708618 3.0708618 -3.0708618l0 0c0.8144531 0 1.5955505 0.32354736 2.1714478 0.8994446c0.5758972 0.5758972 0.8994446 1.3569946 0.8994446 2.1714172l0 0c0 1.6960144 -1.3748779 3.0708618 -3.0708923 3.0708618l0 0c-1.6959839 0 -3.0708618 -1.3748474 -3.0708618 -3.0708618z" fill-rule="evenodd"/><path fill="#cfe2f3" d="m766.15485 486.14697l0 0c0 -1.6959839 1.3748779 -3.0708618 3.0708618 -3.0708618l0 0c0.8144531 0 1.59552 0.32354736 2.1714478 0.8994446c0.5758667 0.5758972 0.89941406 1.3569946 0.89941406 2.1714172l0 0c0 1.6960144 -1.3748779 3.0708618 -3.0708618 3.0708618l0 0c-1.6959839 0 -3.0708618 -1.3748474 -3.0708618 -3.0708618z" fill-rule="evenodd"/><path fill="#cfe2f3" d="m758.15485 502.14697l0 0c0 -1.6959839 1.3748779 -3.0708618 3.0708618 -3.0708618l0 0c0.8144531 0 1.59552 0.32354736 2.1714478 0.8994446c0.5758667 0.5758972 0.89941406 1.3569946 0.89941406 2.1714172l0 0c0 1.6960144 -1.3748779 3.0708618 -3.0708618 3.0708618l0 0c-1.6959839 0 -3.0708618 -1.3748474 -3.0708618 -3.0708618z" fill-rule="evenodd"/><path fill="#cfe2f3" d="m742.15485 518.147l0 0c0 -1.6959839 1.3748779 -3.0708618 3.0708618 -3.0708618l0 0c0.8144531 0 1.59552 0.32354736 2.1714478 0.89941406c0.5758667 0.57592773 0.89941406 1.3569946 0.89941406 2.1714478l0 0c0 1.6959839 -1.3748779 3.0708618 -3.0708618 3.0708618l0 0c-1.6959839 0 -3.0708618 -1.3748779 -3.0708618 -3.0708618z" fill-rule="evenodd"/><path fill="#cfe2f3" d="m798.15485 534.147l0 0c0 -1.6959839 1.3748779 -3.0708618 3.0708618 -3.0708618l0 0c0.8144531 0 1.59552 0.32354736 2.1714478 0.89941406c0.5758667 0.57592773 0.89941406 1.3569946 0.89941406 2.1714478l0 0c0 1.6959839 -1.3748779 3.0708618 -3.0708618 3.0708618l0 0c-1.6959839 0 -3.0708618 -1.3748779 -3.0708618 -3.0708618z" fill-rule="evenodd"/><path fill="#cfe2f3" d="m814.15485 510.14697l0 0c0 -1.6959839 1.3748779 -3.0708618 3.0708618 -3.0708618l0 0c0.8144531 0 1.59552 0.32354736 2.1714478 0.8994446c0.5758667 0.5758972 0.89941406 1.3569946 0.89941406 2.1714172l0 0c0 1.6960144 -1.3748779 3.0708618 -3.0708618 3.0708618l0 0c-1.6959839 0 -3.0708618 -1.3748474 -3.0708618 -3.0708618z" fill-rule="evenodd"/><path fill="#cfe2f3" d="m830.15485 534.147l0 0c0 -1.6959839 1.3748779 -3.0708618 3.0708618 -3.0708618l0 0c0.8144531 0 1.59552 0.32354736 2.1714478 0.89941406c0.5758667 0.57592773 0.89941406 1.3569946 0.89941406 2.1714478l0 0c0 1.6959839 -1.3748779 3.0708618 -3.0708618 3.0708618l0 0c-1.6959839 0 -3.0708618 -1.3748779 -3.0708618 -3.0708618z" fill-rule="evenodd"/><path fill="#cfe2f3" d="m862.15485 518.147l0 0c0 -1.6959839 1.3748779 -3.0708618 3.0708618 -3.0708618l0 0c0.8144531 0 1.59552 0.32354736 2.1714478 0.89941406c0.5758667 0.57592773 0.89941406 1.3569946 0.89941406 2.1714478l0 0c0 1.6959839 -1.3748779 3.0708618 -3.0708618 3.0708618l0 0c-1.6959839 0 -3.0708618 -1.3748779 -3.0708618 -3.0708618z" fill-rule="evenodd"/><path fill="#000000" d="m868.1085 521.5201l1.609375 0.21875q-0.265625 1.65625 -1.359375 2.609375q-1.078125 0.9375 -2.671875 0.9375q-1.984375 0 -3.1875 -1.296875q-1.203125 -1.296875 -1.203125 -3.71875q0 -1.578125 0.515625 -2.75q0.515625 -1.171875 1.578125 -1.75q1.0625 -0.59375 2.3125 -0.59375q1.578125 0 2.578125 0.796875q1.0 0.796875 1.28125 2.265625l-1.59375 0.234375q-0.234375 -0.96875 -0.8125 -1.453125q-0.578125 -0.5 -1.390625 -0.5q-1.234375 0 -2.015625 0.890625q-0.78125 0.890625 -0.78125 2.8125q0 1.953125 0.75 2.84375q0.75 0.875 1.953125 0.875q0.96875 0 1.609375 -0.59375q0.65625 -0.59375 0.828125 -1.828125z" fill-rule="nonzero"/><path fill="#cfe2f3" d="m534.15485 598.147l0 0c0 -1.6959839 1.3748779 -3.0708618 3.0708618 -3.0708618l0 0c0.8144531 0 1.59552 0.32354736 2.1714478 0.89941406c0.5758667 0.57592773 0.89941406 1.3569946 0.89941406 2.1714478l0 0c0 1.6959839 -1.3748779 3.0708618 -3.0708618 3.0708618l0 0c-1.6959839 0 -3.0708618 -1.3748779 -3.0708618 -3.0708618z" fill-rule="evenodd"/><path fill="#cfe2f3" d="m566.15485 582.147l0 0c0 -1.6959839 1.3748779 -3.0708618 3.0708618 -3.0708618l0 0c0.8144531 0 1.59552 0.32354736 2.1714478 0.89941406c0.5758667 0.57592773 0.89941406 1.3569946 0.89941406 2.1714478l0 0c0 1.6959839 -1.3748779 3.0708618 -3.0708618 3.0708618l0 0c-1.6959839 0 -3.0708618 -1.3748779 -3.0708618 -3.0708618z" fill-rule="evenodd"/><path fill="#cfe2f3" d="m566.15485 102.14698l0 0c0 -1.6959915 1.3748779 -3.0708618 3.0708618 -3.0708618l0 0c0.8144531 0 1.59552 0.3235321 2.1714478 0.8994293c0.5758667 0.57590485 0.89941406 1.356987 0.89941406 2.1714325l0 0c0 1.6959915 -1.3748779 3.0708694 -3.0708618 3.0708694l0 0c-1.6959839 0 -3.0708618 -1.3748779 -3.0708618 -3.0708694z" fill-rule="evenodd"/><path fill="#cfe2f3" d="m814.15485 110.14698l0 0c0 -1.6959915 1.3748779 -3.0708618 3.0708618 -3.0708618l0 0c0.8144531 0 1.59552 0.3235321 2.1714478 0.8994293c0.5758667 0.57590485 0.89941406 1.356987 0.89941406 2.1714325l0 0c0 1.6959915 -1.3748779 3.0708694 -3.0708618 3.0708694l0 0c-1.6959839 0 -3.0708618 -1.3748779 -3.0708618 -3.0708694z" fill-rule="evenodd"/><path fill="#cfe2f3" d="m830.15485 118.14698l0 0c0 -1.6959915 1.3748779 -3.0708618 3.0708618 -3.0708618l0 0c0.8144531 0 1.59552 0.3235321 2.1714478 0.8994293c0.5758667 0.57590485 0.89941406 1.356987 0.89941406 2.1714325l0 0c0 1.6959915 -1.3748779 3.0708694 -3.0708618 3.0708694l0 0c-1.6959839 0 -3.0708618 -1.3748779 -3.0708618 -3.0708694z" fill-rule="evenodd"/><path fill="#cfe2f3" d="m110.154854 662.147l0 0c0 -1.6959839 1.3748779 -3.0708618 3.0708694 -3.0708618l0 0c0.8144455 0 1.5955276 0.32354736 2.1714325 0.89941406c0.5758972 0.57592773 0.8994293 1.3569946 0.8994293 2.1714478l0 0c0 1.6959839 -1.3748703 3.0708618 -3.0708618 3.0708618l0 0c-1.6959915 0 -3.0708694 -1.3748779 -3.0708694 -3.0708618z" fill-rule="evenodd"/><path fill="#ffff00" d="m158.15486 157.13911l0 0c0 -1.1393585 0.92362976 -2.0630035 2.0629883 -2.0630035l0 0c0.5471344 0 1.0718689 0.21736145 1.4587555 0.60424805c0.3868866 0.3868866 0.6042328 0.91160583 0.6042328 1.4587555l0 0c0 1.1393585 -0.92362976 2.0629883 -2.0629883 2.0629883l0 0c-1.1393585 0 -2.0629883 -0.92362976 -2.0629883 -2.0629883z" fill-rule="evenodd"/><path fill="#ffff00" d="m158.15486 501.1391l0 0c0 -1.1393433 0.92362976 -2.0629883 2.0629883 -2.0629883l0 0c0.5471344 0 1.0718689 0.21734619 1.4587555 0.60424805c0.3868866 0.38687134 0.6042328 0.9116211 0.6042328 1.4587402l0 0c0 1.1393738 -0.92362976 2.0629883 -2.0629883 2.0629883l0 0c-1.1393585 0 -2.0629883 -0.9236145 -2.0629883 -2.0629883z" fill-rule="evenodd"/><path fill="#ffff00" d="m174.15486 517.1391l0 0c0 -1.1393433 0.92362976 -2.0629883 2.0629883 -2.0629883l0 0c0.5471344 0 1.0718689 0.21734619 1.4587555 0.60424805c0.3868866 0.38690186 0.6042328 0.9116211 0.6042328 1.4587402l0 0c0 1.1393433 -0.92362976 2.0629883 -2.0629883 2.0629883l0 0c-1.1393585 0 -2.0629883 -0.923645 -2.0629883 -2.0629883z" fill-rule="evenodd"/><path fill="#ffff00" d="m198.15486 509.1391l0 0c0 -1.1393433 0.92362976 -2.0629883 2.0629883 -2.0629883l0 0c0.5471344 0 1.0718689 0.21734619 1.4587555 0.60424805c0.3868866 0.38687134 0.6042328 0.9116211 0.6042328 1.4587402l0 0c0 1.1393738 -0.92362976 2.0629883 -2.0629883 2.0629883l0 0c-1.1393585 0 -2.0629883 -0.9236145 -2.0629883 -2.0629883z" fill-rule="evenodd"/><path fill="#ffff00" d="m206.15486 333.1391l0 0c0 -1.1393433 0.92362976 -2.0629883 2.0629883 -2.0629883l0 0c0.5471344 0 1.0718689 0.21734619 1.4587555 0.60424805c0.3868866 0.38687134 0.6042328 0.9116211 0.6042328 1.4587402l0 0c0 1.1393738 -0.92362976 2.0629883 -2.0629883 2.0629883l0 0c-1.1393585 0 -2.0629883 -0.9236145 -2.0629883 -2.0629883z" fill-rule="evenodd"/><path fill="#ffff00" d="m230.15486 325.1391l0 0c0 -1.1393433 0.92362976 -2.0629883 2.0629883 -2.0629883l0 0c0.5471344 0 1.0718689 0.21734619 1.4587555 0.60424805c0.3868866 0.38687134 0.6042328 0.9116211 0.6042328 1.4587402l0 0c0 1.1393738 -0.92362976 2.0629883 -2.0629883 2.0629883l0 0c-1.1393585 0 -2.0629883 -0.9236145 -2.0629883 -2.0629883z" fill-rule="evenodd"/><path fill="#ffff00" d="m246.15486 341.1391l0 0c0 -1.1393433 0.92362976 -2.0629883 2.0629883 -2.0629883l0 0c0.5471344 0 1.0718689 0.21734619 1.4587555 0.60424805c0.3868866 0.38687134 0.6042328 0.9116211 0.6042328 1.4587402l0 0c0 1.1393738 -0.92362976 2.0629883 -2.0629883 2.0629883l0 0c-1.1393585 0 -2.0629883 -0.9236145 -2.0629883 -2.0629883z" fill-rule="evenodd"/><path fill="#ffff00" d="m230.15486 349.1391l0 0c0 -1.1393433 0.92362976 -2.0629883 2.0629883 -2.0629883l0 0c0.5471344 0 1.0718689 0.21734619 1.4587555 0.60424805c0.3868866 0.38687134 0.6042328 0.9116211 0.6042328 1.4587402l0 0c0 1.1393738 -0.92362976 2.0629883 -2.0629883 2.0629883l0 0c-1.1393585 0 -2.0629883 -0.9236145 -2.0629883 -2.0629883z" fill-rule="evenodd"/><path fill="#ffff00" d="m230.15486 373.1391l0 0c0 -1.1393433 0.92362976 -2.0629883 2.0629883 -2.0629883l0 0c0.5471344 0 1.0718689 0.21734619 1.4587555 0.60424805c0.3868866 0.38687134 0.6042328 0.9116211 0.6042328 1.4587402l0 0c0 1.1393738 -0.92362976 2.0629883 -2.0629883 2.0629883l0 0c-1.1393585 0 -2.0629883 -0.9236145 -2.0629883 -2.0629883z" fill-rule="evenodd"/><path fill="#ffff00" d="m270.15485 381.1391l0 0c0 -1.1393433 0.923645 -2.0629883 2.0629883 -2.0629883l0 0c0.54714966 0 1.0718689 0.21734619 1.4587708 0.60424805c0.38687134 0.38687134 0.60424805 0.9116211 0.60424805 1.4587402l0 0c0 1.1393738 -0.923645 2.0629883 -2.0630188 2.0629883l0 0c-1.1393433 0 -2.0629883 -0.9236145 -2.0629883 -2.0629883z" fill-rule="evenodd"/><path fill="#ffff00" d="m278.15485 85.13911l0 0c0 -1.1393585 0.923645 -2.0629883 2.0629883 -2.0629883l0 0c0.54714966 0 1.0718689 0.21734619 1.4587708 0.6042328c0.38687134 0.3868866 0.60424805 0.91161346 0.60424805 1.4587555l0 0c0 1.1393585 -0.923645 2.062996 -2.0630188 2.062996l0 0c-1.1393433 0 -2.0629883 -0.9236374 -2.0629883 -2.062996z" fill-rule="evenodd"/><path fill="#ffff00" d="m550.15485 413.1391l0 0c0 -1.1393433 0.923645 -2.0629883 2.0629883 -2.0629883l0 0c0.5471802 0 1.0718994 0.21734619 1.4587402 0.60424805c0.38690186 0.38687134 0.60424805 0.9116211 0.60424805 1.4587402l0 0c0 1.1393738 -0.923645 2.0629883 -2.0629883 2.0629883l0 0c-1.1393433 0 -2.0629883 -0.9236145 -2.0629883 -2.0629883z" fill-rule="evenodd"/><path fill="#ffff00" d="m310.15485 165.13911l0 0c0 -1.1393585 0.923645 -2.0630035 2.0629883 -2.0630035l0 0c0.54714966 0 1.0718689 0.21736145 1.4587708 0.60424805c0.38687134 0.3868866 0.60424805 0.91160583 0.60424805 1.4587555l0 0c0 1.1393585 -0.923645 2.0629883 -2.0630188 2.0629883l0 0c-1.1393433 0 -2.0629883 -0.92362976 -2.0629883 -2.0629883z" fill-rule="evenodd"/><path fill="#ffff00" d="m614.15485 181.13911l0 0c0 -1.1393585 0.923645 -2.0630035 2.0629883 -2.0630035l0 0c0.5471802 0 1.0718994 0.21736145 1.4587402 0.60424805c0.38690186 0.3868866 0.60424805 0.91160583 0.60424805 1.4587555l0 0c0 1.1393585 -0.923645 2.0629883 -2.0629883 2.0629883l0 0c-1.1393433 0 -2.0629883 -0.92362976 -2.0629883 -2.0629883z" fill-rule="evenodd"/><path fill="#ffff00" d="m630.15485 197.13911l0 0c0 -1.1393585 0.923645 -2.0630035 2.0629883 -2.0630035l0 0c0.5471802 0 1.0718994 0.21736145 1.4587402 0.60424805c0.38690186 0.3868866 0.60424805 0.91160583 0.60424805 1.4587555l0 0c0 1.1393585 -0.923645 2.0629883 -2.0629883 2.0629883l0 0c-1.1393433 0 -2.0629883 -0.92362976 -2.0629883 -2.0629883z" fill-rule="evenodd"/><path fill="#ffff00" d="m638.15485 181.13911l0 0c0 -1.1393585 0.923645 -2.0630035 2.0629883 -2.0630035l0 0c0.5471802 0 1.0718994 0.21736145 1.4587402 0.60424805c0.38690186 0.3868866 0.60424805 0.91160583 0.60424805 1.4587555l0 0c0 1.1393585 -0.923645 2.0629883 -2.0629883 2.0629883l0 0c-1.1393433 0 -2.0629883 -0.92362976 -2.0629883 -2.0629883z" fill-rule="evenodd"/><path fill="#ffff00" d="m686.15485 165.13911l0 0c0 -1.1393585 0.923645 -2.0630035 2.0629883 -2.0630035l0 0c0.5471802 0 1.0718994 0.21736145 1.4587402 0.60424805c0.38690186 0.3868866 0.60424805 0.91160583 0.60424805 1.4587555l0 0c0 1.1393585 -0.923645 2.0629883 -2.0629883 2.0629883l0 0c-1.1393433 0 -2.0629883 -0.92362976 -2.0629883 -2.0629883z" fill-rule="evenodd"/><path fill="#ffff00" d="m814.15485 245.13911l0 0c0 -1.1393585 0.923645 -2.0630035 2.0629883 -2.0630035l0 0c0.5471802 0 1.0718994 0.21736145 1.4587402 0.60424805c0.38690186 0.3868866 0.60424805 0.91160583 0.60424805 1.4587555l0 0c0 1.1393585 -0.923645 2.0629883 -2.0629883 2.0629883l0 0c-1.1393433 0 -2.0629883 -0.92362976 -2.0629883 -2.0629883z" fill-rule="evenodd"/><path fill="#ffff00" d="m702.15485 261.1391l0 0c0 -1.1393433 0.923645 -2.0629883 2.0629883 -2.0629883l0 0c0.5471802 0 1.0718994 0.21734619 1.4587402 0.60424805c0.38690186 0.38687134 0.60424805 0.9116211 0.60424805 1.4587402l0 0c0 1.1393738 -0.923645 2.0629883 -2.0629883 2.0629883l0 0c-1.1393433 0 -2.0629883 -0.9236145 -2.0629883 -2.0629883z" fill-rule="evenodd"/><path fill="#ffff00" d="m718.15485 293.1391l0 0c0 -1.1393433 0.923645 -2.0629883 2.0629883 -2.0629883l0 0c0.5471802 0 1.0718994 0.21734619 1.4587402 0.60424805c0.38690186 0.38687134 0.60424805 0.9116211 0.60424805 1.4587402l0 0c0 1.1393738 -0.923645 2.0629883 -2.0629883 2.0629883l0 0c-1.1393433 0 -2.0629883 -0.9236145 -2.0629883 -2.0629883z" fill-rule="evenodd"/><path fill="#ffff00" d="m870.15485 293.1391l0 0c0 -1.1393433 0.923645 -2.0629883 2.0629883 -2.0629883l0 0c0.5471802 0 1.0718994 0.21734619 1.4587402 0.60424805c0.38690186 0.38687134 0.60424805 0.9116211 0.60424805 1.4587402l0 0c0 1.1393738 -0.923645 2.0629883 -2.0629883 2.0629883l0 0c-1.1393433 0 -2.0629883 -0.9236145 -2.0629883 -2.0629883z" fill-rule="evenodd"/><path fill="#ffff00" d="m750.15485 453.1391l0 0c0 -1.1393433 0.923645 -2.0629883 2.0629883 -2.0629883l0 0c0.5471802 0 1.0718994 0.21734619 1.4587402 0.60424805c0.38690186 0.38687134 0.60424805 0.9116211 0.60424805 1.4587402l0 0c0 1.1393738 -0.923645 2.0629883 -2.0629883 2.0629883l0 0c-1.1393433 0 -2.0629883 -0.9236145 -2.0629883 -2.0629883z" fill-rule="evenodd"/><path fill="#ffff00" d="m662.15485 413.1391l0 0c0 -1.1393433 0.923645 -2.0629883 2.0629883 -2.0629883l0 0c0.5471802 0 1.0718994 0.21734619 1.4587402 0.60424805c0.38690186 0.38687134 0.60424805 0.9116211 0.60424805 1.4587402l0 0c0 1.1393738 -0.923645 2.0629883 -2.0629883 2.0629883l0 0c-1.1393433 0 -2.0629883 -0.9236145 -2.0629883 -2.0629883z" fill-rule="evenodd"/><path fill="#ffff00" d="m598.15485 429.1391l0 0c0 -1.1393433 0.923645 -2.0629883 2.0629883 -2.0629883l0 0c0.5471802 0 1.0718994 0.21734619 1.4587402 0.60424805c0.38690186 0.38687134 0.60424805 0.9116211 0.60424805 1.4587402l0 0c0 1.1393738 -0.923645 2.0629883 -2.0629883 2.0629883l0 0c-1.1393433 0 -2.0629883 -0.9236145 -2.0629883 -2.0629883z" fill-rule="evenodd"/><path fill="#ffff00" d="m614.15485 445.1391l0 0c0 -1.1393433 0.923645 -2.0629883 2.0629883 -2.0629883l0 0c0.5471802 0 1.0718994 0.21734619 1.4587402 0.60424805c0.38690186 0.38687134 0.60424805 0.9116211 0.60424805 1.4587402l0 0c0 1.1393738 -0.923645 2.0629883 -2.0629883 2.0629883l0 0c-1.1393433 0 -2.0629883 -0.9236145 -2.0629883 -2.0629883z" fill-rule="evenodd"/><path fill="#ffff00" d="m494.15485 573.1391l0 0c0 -1.1393433 0.923645 -2.0629883 2.0629883 -2.0629883l0 0c0.54714966 0 1.0718689 0.21734619 1.4587708 0.60424805c0.38687134 0.38690186 0.60424805 0.9116211 0.60424805 1.4587402l0 0c0 1.1393433 -0.923645 2.0629883 -2.0630188 2.0629883l0 0c-1.1393433 0 -2.0629883 -0.923645 -2.0629883 -2.0629883z" fill-rule="evenodd"/><path fill="#ffff00" d="m302.15485 589.1391l0 0c0 -1.1393433 0.923645 -2.0629883 2.0629883 -2.0629883l0 0c0.54714966 0 1.0718689 0.21734619 1.4587708 0.60424805c0.38687134 0.38690186 0.60424805 0.9116211 0.60424805 1.4587402l0 0c0 1.1393433 -0.923645 2.0629883 -2.0630188 2.0629883l0 0c-1.1393433 0 -2.0629883 -0.923645 -2.0629883 -2.0629883z" fill-rule="evenodd"/><path fill="#ffff00" d="m326.15485 621.1391l0 0c0 -1.1393433 0.923645 -2.0629883 2.0629883 -2.0629883l0 0c0.54714966 0 1.0718689 0.21734619 1.4587708 0.60424805c0.38687134 0.38690186 0.60424805 0.9116211 0.60424805 1.4587402l0 0c0 1.1393433 -0.923645 2.0629883 -2.0630188 2.0629883l0 0c-1.1393433 0 -2.0629883 -0.923645 -2.0629883 -2.0629883z" fill-rule="evenodd"/><path fill="#ffff00" d="m206.15486 637.1391l0 0c0 -1.1393433 0.92362976 -2.0629883 2.0629883 -2.0629883l0 0c0.5471344 0 1.0718689 0.21734619 1.4587555 0.60424805c0.3868866 0.38690186 0.6042328 0.9116211 0.6042328 1.4587402l0 0c0 1.1393433 -0.92362976 2.0629883 -2.0629883 2.0629883l0 0c-1.1393585 0 -2.0629883 -0.923645 -2.0629883 -2.0629883z" fill-rule="evenodd"/><path fill="#ffff00" d="m86.154854 653.1391l0 0c0 -1.1393433 0.9236374 -2.0629883 2.062996 -2.0629883l0 0c0.5471344 0 1.0718689 0.21734619 1.4587555 0.60424805c0.3868866 0.38690186 0.6042328 0.9116211 0.6042328 1.4587402l0 0c0 1.1393433 -0.92362976 2.0629883 -2.0629883 2.0629883l0 0c-1.1393585 0 -2.062996 -0.923645 -2.062996 -2.0629883z" fill-rule="evenodd"/><path fill="#ffff00" d="m102.154854 557.1391l0 0c0 -1.1393433 0.9236374 -2.0629883 2.062996 -2.0629883l0 0c0.5471344 0 1.0718689 0.21734619 1.4587555 0.60424805c0.3868866 0.38690186 0.6042328 0.9116211 0.6042328 1.4587402l0 0c0 1.1393433 -0.92362976 2.0629883 -2.0629883 2.0629883l0 0c-1.1393585 0 -2.062996 -0.923645 -2.062996 -2.0629883z" fill-rule="evenodd"/><path fill="#ffff00" d="m782.15485 573.1391l0 0c0 -1.1393433 0.923645 -2.0629883 2.0629883 -2.0629883l0 0c0.5471802 0 1.0718994 0.21734619 1.4587402 0.60424805c0.38690186 0.38690186 0.60424805 0.9116211 0.60424805 1.4587402l0 0c0 1.1393433 -0.923645 2.0629883 -2.0629883 2.0629883l0 0c-1.1393433 0 -2.0629883 -0.923645 -2.0629883 -2.0629883z" fill-rule="evenodd"/><path fill="#ffff00" d="m798.15485 637.1391l0 0c0 -1.1393433 0.923645 -2.0629883 2.0629883 -2.0629883l0 0c0.5471802 0 1.0718994 0.21734619 1.4587402 0.60424805c0.38690186 0.38690186 0.60424805 0.9116211 0.60424805 1.4587402l0 0c0 1.1393433 -0.923645 2.0629883 -2.0629883 2.0629883l0 0c-1.1393433 0 -2.0629883 -0.923645 -2.0629883 -2.0629883z" fill-rule="evenodd"/><path fill="#ffff00" d="m814.15485 605.1391l0 0c0 -1.1393433 0.923645 -2.0629883 2.0629883 -2.0629883l0 0c0.5471802 0 1.0718994 0.21734619 1.4587402 0.60424805c0.38690186 0.38690186 0.60424805 0.9116211 0.60424805 1.4587402l0 0c0 1.1393433 -0.923645 2.0629883 -2.0629883 2.0629883l0 0c-1.1393433 0 -2.0629883 -0.923645 -2.0629883 -2.0629883z" fill-rule="evenodd"/><path fill="#ffff00" d="m566.15485 621.1391l0 0c0 -1.1393433 0.923645 -2.0629883 2.0629883 -2.0629883l0 0c0.5471802 0 1.0718994 0.21734619 1.4587402 0.60424805c0.38690186 0.38690186 0.60424805 0.9116211 0.60424805 1.4587402l0 0c0 1.1393433 -0.923645 2.0629883 -2.0629883 2.0629883l0 0c-1.1393433 0 -2.0629883 -0.923645 -2.0629883 -2.0629883z" fill-rule="evenodd"/><path fill="#ffff00" d="m582.15485 557.1391l0 0c0 -1.1393433 0.923645 -2.0629883 2.0629883 -2.0629883l0 0c0.5471802 0 1.0718994 0.21734619 1.4587402 0.60424805c0.38690186 0.38690186 0.60424805 0.9116211 0.60424805 1.4587402l0 0c0 1.1393433 -0.923645 2.0629883 -2.0629883 2.0629883l0 0c-1.1393433 0 -2.0629883 -0.923645 -2.0629883 -2.0629883z" fill-rule="evenodd"/><path fill="#ffff00" d="m598.15485 581.1391l0 0c0 -1.1393433 0.923645 -2.0629883 2.0629883 -2.0629883l0 0c0.5471802 0 1.0718994 0.21734619 1.4587402 0.60424805c0.38690186 0.38690186 0.60424805 0.9116211 0.60424805 1.4587402l0 0c0 1.1393433 -0.923645 2.0629883 -2.0629883 2.0629883l0 0c-1.1393433 0 -2.0629883 -0.923645 -2.0629883 -2.0629883z" fill-rule="evenodd"/><path fill="#ffff00" d="m614.15485 565.1391l0 0c0 -1.1393433 0.923645 -2.0629883 2.0629883 -2.0629883l0 0c0.5471802 0 1.0718994 0.21734619 1.4587402 0.60424805c0.38690186 0.38690186 0.60424805 0.9116211 0.60424805 1.4587402l0 0c0 1.1393433 -0.923645 2.0629883 -2.0629883 2.0629883l0 0c-1.1393433 0 -2.0629883 -0.923645 -2.0629883 -2.0629883z" fill-rule="evenodd"/><path fill="#ffff00" d="m630.15485 77.13911l0 0c0 -1.1393585 0.923645 -2.0629883 2.0629883 -2.0629883l0 0c0.5471802 0 1.0718994 0.21734619 1.4587402 0.6042328c0.38690186 0.3868866 0.60424805 0.91161346 0.60424805 1.4587555l0 0c0 1.1393585 -0.923645 2.062996 -2.0629883 2.062996l0 0c-1.1393433 0 -2.0629883 -0.9236374 -2.0629883 -2.062996z" fill-rule="evenodd"/><path fill="#ffff00" d="m654.15485 85.13911l0 0c0 -1.1393585 0.923645 -2.0629883 2.0629883 -2.0629883l0 0c0.5471802 0 1.0718994 0.21734619 1.4587402 0.6042328c0.38690186 0.3868866 0.60424805 0.91161346 0.60424805 1.4587555l0 0c0 1.1393585 -0.923645 2.062996 -2.0629883 2.062996l0 0c-1.1393433 0 -2.0629883 -0.9236374 -2.0629883 -2.062996z" fill-rule="evenodd"/><path fill="#ffff00" d="m670.15485 53.139107l0 0c0 -1.1393585 0.923645 -2.062992 2.0629883 -2.062992l0 0c0.5471802 0 1.0718994 0.21735 1.4587402 0.6042366c0.38690186 0.3868866 0.60424805 0.9116173 0.60424805 1.4587555l0 0c0 1.1393585 -0.923645 2.062992 -2.0629883 2.062992l0 0c-1.1393433 0 -2.0629883 -0.9236336 -2.0629883 -2.062992z" fill-rule="evenodd"/><path fill="#ffff00" d="m854.15485 85.13911l0 0c0 -1.1393585 0.923645 -2.0629883 2.0629883 -2.0629883l0 0c0.5471802 0 1.0718994 0.21734619 1.4587402 0.6042328c0.38690186 0.3868866 0.60424805 0.91161346 0.60424805 1.4587555l0 0c0 1.1393585 -0.923645 2.062996 -2.0629883 2.062996l0 0c-1.1393433 0 -2.0629883 -0.9236374 -2.0629883 -2.062996z" fill-rule="evenodd"/></g></svg>