<svg version="1.1" viewBox="0.0 0.0 960.0 720.0" fill="none" stroke="none" stroke-linecap="square" stroke-miterlimit="10" xmlns:xlink="http://www.w3.org/1999/xlink" xmlns="http://www.w3.org/2000/svg"><clipPath id="p.0"><path d="m0 0l960.0 0l0 720.0l-960.0 0l0 -720.0z" clip-rule="nonzero"/></clipPath><g clip-path="url(#p.0)"><path fill="#000000" d="m0 0l960.0 0l0 720.0l-960.0 0z" fill-rule="evenodd"/><path fill="#cfe2f3" d="m326.15485 126.14698l0 0c0 -1.6959915 1.3748779 -3.0708618 3.0708618 -3.0708618l0 0c0.8144531 0 1.5955505 0.3235321 2.1714478 0.8994293c0.5758972 0.57590485 0.8994446 1.356987 0.8994446 2.1714325l0 0c0 1.6959915 -1.3748779 3.0708694 -3.0708923 3.0708694l0 0c-1.6959839 0 -3.0708618 -1.3748779 -3.0708618 -3.0708694z" fill-rule="evenodd"/><path fill="#cfe2f3" d="m318.15485 142.14699l0 0c0 -1.6959991 1.3748779 -3.070877 3.0708618 -3.070877l0 0c0.8144531 0 1.5955505 0.32354736 2.1714478 0.8994446c0.5758972 0.5758972 0.8994446 1.3569794 0.8994446 2.1714325l0 0c0 1.6959839 -1.3748779 3.0708618 -3.0708923 3.0708618l0 0c-1.6959839 0 -3.0708618 -1.3748779 -3.0708618 -3.0708618z" fill-rule="evenodd"/><path fill="#cfe2f3" d="m334.15485 38.14698l0 0c0 -1.6959915 1.3748779 -3.0708656 3.0708618 -3.0708656l0 0c0.8144531 0 1.5955505 0.32353592 2.1714478 0.89943695c0.5758972 0.5758972 0.8994446 1.356987 0.8994446 2.1714287l0 0c0 1.6959953 -1.3748779 3.0708656 -3.0708923 3.0708656l0 0c-1.6959839 0 -3.0708618 -1.3748703 -3.0708618 -3.0708656z" fill-rule="evenodd"/><path fill="#cfe2f3" d="m78.154854 174.14699l0 0c0 -1.6959991 1.3748779 -3.070877 3.0708694 -3.070877l0 0c0.8144455 0 1.5955276 0.32354736 2.1714325 0.8994446c0.5758972 0.5758972 0.8994293 1.3569794 0.8994293 2.1714325l0 0c0 1.6959839 -1.3748703 3.0708618 -3.0708618 3.0708618l0 0c-1.6959915 0 -3.0708694 -1.3748779 -3.0708694 -3.0708618z" fill-rule="evenodd"/><path fill="#cfe2f3" d="m94.154854 222.14699l0 0c0 -1.6959991 1.3748779 -3.070877 3.0708694 -3.070877l0 0c0.8144455 0 1.5955276 0.32354736 2.1714325 0.8994446c0.5758972 0.5758972 0.8994293 1.3569794 0.8994293 2.1714325l0 0c0 1.6959839 -1.3748703 3.0708618 -3.0708618 3.0708618l0 0c-1.6959915 0 -3.0708694 -1.3748779 -3.0708694 -3.0708618z" fill-rule="evenodd"/><path fill="#cfe2f3" d="m86.154854 182.14699l0 0c0 -1.6959991 1.3748779 -3.070877 3.0708694 -3.070877l0 0c0.8144455 0 1.5955276 0.32354736 2.1714325 0.8994446c0.5758972 0.5758972 0.8994293 1.3569794 0.8994293 2.1714325l0 0c0 1.6959839 -1.3748703 3.0708618 -3.0708618 3.0708618l0 0c-1.6959915 0 -3.0708694 -1.3748779 -3.0708694 -3.0708618z" fill-rule="evenodd"/><path fill="#cfe2f3" d="m102.154854 38.14698l0 0c0 -1.6959915 1.3748779 -3.0708656 3.0708694 -3.0708656l0 0c0.8144455 0 1.5955276 0.32353592 2.1714325 0.89943695c0.5758972 0.5758972 0.8994293 1.356987 0.8994293 2.1714287l0 0c0 1.6959953 -1.3748703 3.0708656 -3.0708618 3.0708656l0 0c-1.6959915 0 -3.0708694 -1.3748703 -3.0708694 -3.0708656z" fill-rule="evenodd"/><path fill="#cfe2f3" d="m118.154854 526.147l0 0c0 -1.6959839 1.3748779 -3.0708618 3.0708694 -3.0708618l0 0c0.8144455 0 1.5955276 0.32354736 2.1714325 0.89941406c0.5758972 0.57592773 0.8994293 1.3569946 0.8994293 2.1714478l0 0c0 1.6959839 -1.3748703 3.0708618 -3.0708618 3.0708618l0 0c-1.6959915 0 -3.0708694 -1.3748779 -3.0708694 -3.0708618z" fill-rule="evenodd"/><path fill="#cfe2f3" d="m118.154854 542.147l0 0c0 -1.6959839 1.3748779 -3.0708618 3.0708694 -3.0708618l0 0c0.8144455 0 1.5955276 0.32354736 2.1714325 0.89941406c0.5758972 0.57592773 0.8994293 1.3569946 0.8994293 2.1714478l0 0c0 1.6959839 -1.3748703 3.0708618 -3.0708618 3.0708618l0 0c-1.6959915 0 -3.0708694 -1.3748779 -3.0708694 -3.0708618z" fill-rule="evenodd"/><path fill="#cfe2f3" d="m134.15486 478.14697l0 0c0 -1.6959839 1.3748627 -3.0708618 3.0708618 -3.0708618l0 0c0.81443787 0 1.5955353 0.32354736 2.1714325 0.8994446c0.5758972 0.5758972 0.8994293 1.3569946 0.8994293 2.1714172l0 0c0 1.6960144 -1.3748779 3.0708618 -3.0708618 3.0708618l0 0c-1.6959991 0 -3.0708618 -1.3748474 -3.0708618 -3.0708618z" fill-rule="evenodd"/><path fill="#cfe2f3" d="m358.15485 670.147l0 0c0 -1.6959839 1.3748779 -3.0708618 3.0708618 -3.0708618l0 0c0.8144531 0 1.5955505 0.32354736 2.1714478 0.89941406c0.5758972 0.57592773 0.8994446 1.3569946 0.8994446 2.1714478l0 0c0 1.6959839 -1.3748779 3.0708618 -3.0708923 3.0708618l0 0c-1.6959839 0 -3.0708618 -1.3748779 -3.0708618 -3.0708618z" fill-rule="evenodd"/><path fill="#cfe2f3" d="m326.15485 646.147l0 0c0 -1.6959839 1.3748779 -3.0708618 3.0708618 -3.0708618l0 0c0.8144531 0 1.5955505 0.32354736 2.1714478 0.89941406c0.5758972 0.57592773 0.8994446 1.3569946 0.8994446 2.1714478l0 0c0 1.6959839 -1.3748779 3.0708618 -3.0708923 3.0708618l0 0c-1.6959839 0 -3.0708618 -1.3748779 -3.0708618 -3.0708618z" fill-rule="evenodd"/><path fill="#cfe2f3" d="m350.15485 654.147l0 0c0 -1.6959839 1.3748779 -3.0708618 3.0708618 -3.0708618l0 0c0.8144531 0 1.5955505 0.32354736 2.1714478 0.89941406c0.5758972 0.57592773 0.8994446 1.3569946 0.8994446 2.1714478l0 0c0 1.6959839 -1.3748779 3.0708618 -3.0708923 3.0708618l0 0c-1.6959839 0 -3.0708618 -1.3748779 -3.0708618 -3.0708618z" fill-rule="evenodd"/><path fill="#cfe2f3" d="m430.15485 670.147l0 0c0 -1.6959839 1.3748779 -3.0708618 3.0708618 -3.0708618l0 0c0.8144531 0 1.5955505 0.32354736 2.1714478 0.89941406c0.5758972 0.57592773 0.8994446 1.3569946 0.8994446 2.1714478l0 0c0 1.6959839 -1.3748779 3.0708618 -3.0708923 3.0708618l0 0c-1.6959839 0 -3.0708618 -1.3748779 -3.0708618 -3.0708618z" fill-rule="evenodd"/><path fill="#cfe2f3" d="m414.15485 238.14699l0 0c0 -1.6959991 1.3748779 -3.070877 3.0708618 -3.070877l0 0c0.8144531 0 1.5955505 0.32354736 2.1714478 0.8994446c0.5758972 0.5758972 0.8994446 1.3569794 0.8994446 2.1714325l0 0c0 1.6959839 -1.3748779 3.0708618 -3.0708923 3.0708618l0 0c-1.6959839 0 -3.0708618 -1.3748779 -3.0708618 -3.0708618z" fill-rule="evenodd"/><path fill="#cfe2f3" d="m750.15485 254.14699l0 0c0 -1.6959991 1.3748779 -3.070877 3.0708618 -3.070877l0 0c0.8144531 0 1.59552 0.32354736 2.1714478 0.8994446c0.5758667 0.5758972 0.89941406 1.3569794 0.89941406 2.1714325l0 0c0 1.6959839 -1.3748779 3.0708466 -3.0708618 3.0708466l0 0c-1.6959839 0 -3.0708618 -1.3748627 -3.0708618 -3.0708466z" fill-rule="evenodd"/><path fill="#cfe2f3" d="m774.15485 262.14697l0 0c0 -1.6959839 1.3748779 -3.0708618 3.0708618 -3.0708618l0 0c0.8144531 0 1.59552 0.32354736 2.1714478 0.8994446c0.5758667 0.5758972 0.89941406 1.3569946 0.89941406 2.1714172l0 0c0 1.6960144 -1.3748779 3.0708618 -3.0708618 3.0708618l0 0c-1.6959839 0 -3.0708618 -1.3748474 -3.0708618 -3.0708618z" fill-rule="evenodd"/><path fill="#cfe2f3" d="m806.15485 278.14697l0 0c0 -1.6959839 1.3748779 -3.0708618 3.0708618 -3.0708618l0 0c0.8144531 0 1.59552 0.32354736 2.1714478 0.8994446c0.5758667 0.5758972 0.89941406 1.3569946 0.89941406 2.1714172l0 0c0 1.6960144 -1.3748779 3.0708618 -3.0708618 3.0708618l0 0c-1.6959839 0 -3.0708618 -1.3748474 -3.0708618 -3.0708618z" fill-rule="evenodd"/><path fill="#cfe2f3" d="m774.15485 278.14697l0 0c0 -1.6959839 1.3748779 -3.0708618 3.0708618 -3.0708618l0 0c0.8144531 0 1.59552 0.32354736 2.1714478 0.8994446c0.5758667 0.5758972 0.89941406 1.3569946 0.89941406 2.1714172l0 0c0 1.6960144 -1.3748779 3.0708618 -3.0708618 3.0708618l0 0c-1.6959839 0 -3.0708618 -1.3748474 -3.0708618 -3.0708618z" fill-rule="evenodd"/><path fill="#cfe2f3" d="m694.15485 294.14697l0 0c0 -1.6959839 1.3748779 -3.0708618 3.0708618 -3.0708618l0 0c0.8144531 0 1.59552 0.32354736 2.1714478 0.8994446c0.5758667 0.5758972 0.89941406 1.3569946 0.89941406 2.1714172l0 0c0 1.6960144 -1.3748779 3.0708618 -3.0708618 3.0708618l0 0c-1.6959839 0 -3.0708618 -1.3748474 -3.0708618 -3.0708618z" fill-rule="evenodd"/><path fill="#cfe2f3" d="m526.15485 374.14697l0 0c0 -1.6959839 1.3748779 -3.0708618 3.0708618 -3.0708618l0 0c0.8144531 0 1.59552 0.32354736 2.1714478 0.8994446c0.5758667 0.5758972 0.89941406 1.3569946 0.89941406 2.1714172l0 0c0 1.6960144 -1.3748779 3.0708618 -3.0708618 3.0708618l0 0c-1.6959839 0 -3.0708618 -1.3748474 -3.0708618 -3.0708618z" fill-rule="evenodd"/><path fill="#cfe2f3" d="m678.15485 310.14697l0 0c0 -1.6959839 1.3748779 -3.0708618 3.0708618 -3.0708618l0 0c0.8144531 0 1.59552 0.32354736 2.1714478 0.8994446c0.5758667 0.5758972 0.89941406 1.3569946 0.89941406 2.1714172l0 0c0 1.6960144 -1.3748779 3.0708618 -3.0708618 3.0708618l0 0c-1.6959839 0 -3.0708618 -1.3748474 -3.0708618 -3.0708618z" fill-rule="evenodd"/><path fill="#cfe2f3" d="m526.15485 398.14697l0 0c0 -1.6959839 1.3748779 -3.0708618 3.0708618 -3.0708618l0 0c0.8144531 0 1.59552 0.32354736 2.1714478 0.8994446c0.5758667 0.5758972 0.89941406 1.3569946 0.89941406 2.1714172l0 0c0 1.6960144 -1.3748779 3.0708618 -3.0708618 3.0708618l0 0c-1.6959839 0 -3.0708618 -1.3748474 -3.0708618 -3.0708618z" fill-rule="evenodd"/><path fill="#cfe2f3" d="m558.15485 390.14697l0 0c0 -1.6959839 1.3748779 -3.0708618 3.0708618 -3.0708618l0 0c0.8144531 0 1.59552 0.32354736 2.1714478 0.8994446c0.5758667 0.5758972 0.89941406 1.3569946 0.89941406 2.1714172l0 0c0 1.6960144 -1.3748779 3.0708618 -3.0708618 3.0708618l0 0c-1.6959839 0 -3.0708618 -1.3748474 -3.0708618 -3.0708618z" fill-rule="evenodd"/><path fill="#cfe2f3" d="m614.15485 366.14697l0 0c0 -1.6959839 1.3748779 -3.0708618 3.0708618 -3.0708618l0 0c0.8144531 0 1.59552 0.32354736 2.1714478 0.8994446c0.5758667 0.5758972 0.89941406 1.3569946 0.89941406 2.1714172l0 0c0 1.6960144 -1.3748779 3.0708618 -3.0708618 3.0708618l0 0c-1.6959839 0 -3.0708618 -1.3748474 -3.0708618 -3.0708618z" fill-rule="evenodd"/><path fill="#cfe2f3" d="m310.15485 382.14697l0 0c0 -1.6959839 1.3748779 -3.0708618 3.0708618 -3.0708618l0 0c0.8144531 0 1.5955505 0.32354736 2.1714478 0.8994446c0.5758972 0.5758972 0.8994446 1.3569946 0.8994446 2.1714172l0 0c0 1.6960144 -1.3748779 3.0708618 -3.0708923 3.0708618l0 0c-1.6959839 0 -3.0708618 -1.3748474 -3.0708618 -3.0708618z" fill-rule="evenodd"/><path fill="#cfe2f3" d="m766.15485 486.14697l0 0c0 -1.6959839 1.3748779 -3.0708618 3.0708618 -3.0708618l0 0c0.8144531 0 1.59552 0.32354736 2.1714478 0.8994446c0.5758667 0.5758972 0.89941406 1.3569946 0.89941406 2.1714172l0 0c0 1.6960144 -1.3748779 3.0708618 -3.0708618 3.0708618l0 0c-1.6959839 0 -3.0708618 -1.3748474 -3.0708618 -3.0708618z" fill-rule="evenodd"/><path fill="#cfe2f3" d="m758.15485 502.14697l0 0c0 -1.6959839 1.3748779 -3.0708618 3.0708618 -3.0708618l0 0c0.8144531 0 1.59552 0.32354736 2.1714478 0.8994446c0.5758667 0.5758972 0.89941406 1.3569946 0.89941406 2.1714172l0 0c0 1.6960144 -1.3748779 3.0708618 -3.0708618 3.0708618l0 0c-1.6959839 0 -3.0708618 -1.3748474 -3.0708618 -3.0708618z" fill-rule="evenodd"/><path fill="#cfe2f3" d="m742.15485 518.147l0 0c0 -1.6959839 1.3748779 -3.0708618 3.0708618 -3.0708618l0 0c0.8144531 0 1.59552 0.32354736 2.1714478 0.89941406c0.5758667 0.57592773 0.89941406 1.3569946 0.89941406 2.1714478l0 0c0 1.6959839 -1.3748779 3.0708618 -3.0708618 3.0708618l0 0c-1.6959839 0 -3.0708618 -1.3748779 -3.0708618 -3.0708618z" fill-rule="evenodd"/><path fill="#cfe2f3" d="m798.15485 534.147l0 0c0 -1.6959839 1.3748779 -3.0708618 3.0708618 -3.0708618l0 0c0.8144531 0 1.59552 0.32354736 2.1714478 0.89941406c0.5758667 0.57592773 0.89941406 1.3569946 0.89941406 2.1714478l0 0c0 1.6959839 -1.3748779 3.0708618 -3.0708618 3.0708618l0 0c-1.6959839 0 -3.0708618 -1.3748779 -3.0708618 -3.0708618z" fill-rule="evenodd"/><path fill="#cfe2f3" d="m814.15485 510.14697l0 0c0 -1.6959839 1.3748779 -3.0708618 3.0708618 -3.0708618l0 0c0.8144531 0 1.59552 0.32354736 2.1714478 0.8994446c0.5758667 0.5758972 0.89941406 1.3569946 0.89941406 2.1714172l0 0c0 1.6960144 -1.3748779 3.0708618 -3.0708618 3.0708618l0 0c-1.6959839 0 -3.0708618 -1.3748474 -3.0708618 -3.0708618z" fill-rule="evenodd"/><path fill="#cfe2f3" d="m830.15485 534.147l0 0c0 -1.6959839 1.3748779 -3.0708618 3.0708618 -3.0708618l0 0c0.8144531 0 1.59552 0.32354736 2.1714478 0.89941406c0.5758667 0.57592773 0.89941406 1.3569946 0.89941406 2.1714478l0 0c0 1.6959839 -1.3748779 3.0708618 -3.0708618 3.0708618l0 0c-1.6959839 0 -3.0708618 -1.3748779 -3.0708618 -3.0708618z" fill-rule="evenodd"/><path fill="#cfe2f3" d="m862.15485 518.147l0 0c0 -1.6959839 1.3748779 -3.0708618 3.0708618 -3.0708618l0 0c0.8144531 0 1.59552 0.32354736 2.1714478 0.89941406c0.5758667 0.57592773 0.89941406 1.3569946 0.89941406 2.1714478l0 0c0 1.6959839 -1.3748779 3.0708618 -3.0708618 3.0708618l0 0c-1.6959839 0 -3.0708618 -1.3748779 -3.0708618 -3.0708618z" fill-rule="evenodd"/><path fill="#000000" d="m868.1085 521.5201l1.609375 0.21875q-0.265625 1.65625 -1.359375 2.609375q-1.078125 0.9375 -2.671875 0.9375q-1.984375 0 -3.1875 -1.296875q-1.203125 -1.296875 -1.203125 -3.71875q0 -1.578125 0.515625 -2.75q0.515625 -1.171875 1.578125 -1.75q1.0625 -0.59375 2.3125 -0.59375q1.578125 0 2.578125 0.796875q1.0 0.796875 1.28125 2.265625l-1.59375 0.234375q-0.234375 -0.96875 -0.8125 -1.453125q-0.578125 -0.5 -1.390625 -0.5q-1.234375 0 -2.015625 0.890625q-0.78125 0.890625 -0.78125 2.8125q0 1.953125 0.75 2.84375q0.75 0.875 1.953125 0.875q0.96875 0 1.609375 -0.59375q0.65625 -0.59375 0.828125 -1.828125z" fill-rule="nonzero"/><path fill="#cfe2f3" d="m534.15485 598.147l0 0c0 -1.6959839 1.3748779 -3.0708618 3.0708618 -3.0708618l0 0c0.8144531 0 1.59552 0.32354736 2.1714478 0.89941406c0.5758667 0.57592773 0.89941406 1.3569946 0.89941406 2.1714478l0 0c0 1.6959839 -1.3748779 3.0708618 -3.0708618 3.0708618l0 0c-1.6959839 0 -3.0708618 -1.3748779 -3.0708618 -3.0708618z" fill-rule="evenodd"/><path fill="#cfe2f3" d="m566.15485 582.147l0 0c0 -1.6959839 1.3748779 -3.0708618 3.0708618 -3.0708618l0 0c0.8144531 0 1.59552 0.32354736 2.1714478 0.89941406c0.5758667 0.57592773 0.89941406 1.3569946 0.89941406 2.1714478l0 0c0 1.6959839 -1.3748779 3.0708618 -3.0708618 3.0708618l0 0c-1.6959839 0 -3.0708618 -1.3748779 -3.0708618 -3.0708618z" fill-rule="evenodd"/><path fill="#cfe2f3" d="m566.15485 102.14698l0 0c0 -1.6959915 1.3748779 -3.0708618 3.0708618 -3.0708618l0 0c0.8144531 0 1.59552 0.3235321 2.1714478 0.8994293c0.5758667 0.57590485 0.89941406 1.356987 0.89941406 2.1714325l0 0c0 1.6959915 -1.3748779 3.0708694 -3.0708618 3.0708694l0 0c-1.6959839 0 -3.0708618 -1.3748779 -3.0708618 -3.0708694z" fill-rule="evenodd"/><path fill="#cfe2f3" d="m814.15485 110.14698l0 0c0 -1.6959915 1.3748779 -3.0708618 3.0708618 -3.0708618l0 0c0.8144531 0 1.59552 0.3235321 2.1714478 0.8994293c0.5758667 0.57590485 0.89941406 1.356987 0.89941406 2.1714325l0 0c0 1.6959915 -1.3748779 3.0708694 -3.0708618 3.0708694l0 0c-1.6959839 0 -3.0708618 -1.3748779 -3.0708618 -3.0708694z" fill-rule="evenodd"/><path fill="#cfe2f3" d="m830.15485 118.14698l0 0c0 -1.6959915 1.3748779 -3.0708618 3.0708618 -3.0708618l0 0c0.8144531 0 1.59552 0.3235321 2.1714478 0.8994293c0.5758667 0.57590485 0.89941406 1.356987 0.89941406 2.1714325l0 0c0 1.6959915 -1.3748779 3.0708694 -3.0708618 3.0708694l0 0c-1.6959839 0 -3.0708618 -1.3748779 -3.0708618 -3.0708694z" fill-rule="evenodd"/><path fill="#cfe2f3" d="m110.154854 662.147l0 0c0 -1.6959839 1.3748779 -3.0708618 3.0708694 -3.0708618l0 0c0.8144455 0 1.5955276 0.32354736 2.1714325 0.89941406c0.5758972 0.57592773 0.8994293 1.3569946 0.8994293 2.1714478l0 0c0 1.6959839 -1.3748703 3.0708618 -3.0708618 3.0708618l0 0c-1.6959915 0 -3.0708694 -1.3748779 -3.0708694 -3.0708618z" fill-rule="evenodd"/><path fill="#ffff00" d="m158.15486 157.13911l0 0c0 -1.1393585 0.92362976 -2.0630035 2.0629883 -2.0630035l0 0c0.5471344 0 1.0718689 0.21736145 1.4587555 0.60424805c0.3868866 0.3868866 0.6042328 0.91160583 0.6042328 1.4587555l0 0c0 1.1393585 -0.92362976 2.0629883 -2.0629883 2.0629883l0 0c-1.1393585 0 -2.0629883 -0.92362976 -2.0629883 -2.0629883z" fill-rule="evenodd"/><path fill="#ffff00" d="m158.15486 501.1391l0 0c0 -1.1393433 0.92362976 -2.0629883 2.0629883 -2.0629883l0 0c0.5471344 0 1.0718689 0.21734619 1.4587555 0.60424805c0.3868866 0.38687134 0.6042328 0.9116211 0.6042328 1.4587402l0 0c0 1.1393738 -0.92362976 2.0629883 -2.0629883 2.0629883l0 0c-1.1393585 0 -2.0629883 -0.9236145 -2.0629883 -2.0629883z" fill-rule="evenodd"/><path fill="#ffff00" d="m174.15486 517.1391l0 0c0 -1.1393433 0.92362976 -2.0629883 2.0629883 -2.0629883l0 0c0.5471344 0 1.0718689 0.21734619 1.4587555 0.60424805c0.3868866 0.38690186 0.6042328 0.9116211 0.6042328 1.4587402l0 0c0 1.1393433 -0.92362976 2.0629883 -2.0629883 2.0629883l0 0c-1.1393585 0 -2.0629883 -0.923645 -2.0629883 -2.0629883z" fill-rule="evenodd"/><path fill="#ffff00" d="m198.15486 509.1391l0 0c0 -1.1393433 0.92362976 -2.0629883 2.0629883 -2.0629883l0 0c0.5471344 0 1.0718689 0.21734619 1.4587555 0.60424805c0.3868866 0.38687134 0.6042328 0.9116211 0.6042328 1.4587402l0 0c0 1.1393738 -0.92362976 2.0629883 -2.0629883 2.0629883l0 0c-1.1393585 0 -2.0629883 -0.9236145 -2.0629883 -2.0629883z" fill-rule="evenodd"/><path fill="#ffff00" d="m206.15486 333.1391l0 0c0 -1.1393433 0.92362976 -2.0629883 2.0629883 -2.0629883l0 0c0.5471344 0 1.0718689 0.21734619 1.4587555 0.60424805c0.3868866 0.38687134 0.6042328 0.9116211 0.6042328 1.4587402l0 0c0 1.1393738 -0.92362976 2.0629883 -2.0629883 2.0629883l0 0c-1.1393585 0 -2.0629883 -0.9236145 -2.0629883 -2.0629883z" fill-rule="evenodd"/><path fill="#ffff00" d="m230.15486 325.1391l0 0c0 -1.1393433 0.92362976 -2.0629883 2.0629883 -2.0629883l0 0c0.5471344 0 1.0718689 0.21734619 1.4587555 0.60424805c0.3868866 0.38687134 0.6042328 0.9116211 0.6042328 1.4587402l0 0c0 1.1393738 -0.92362976 2.0629883 -2.0629883 2.0629883l0 0c-1.1393585 0 -2.0629883 -0.9236145 -2.0629883 -2.0629883z" fill-rule="evenodd"/><path fill="#ffff00" d="m246.15486 341.1391l0 0c0 -1.1393433 0.92362976 -2.0629883 2.0629883 -2.0629883l0 0c0.5471344 0 1.0718689 0.21734619 1.4587555 0.60424805c0.3868866 0.38687134 0.6042328 0.9116211 0.6042328 1.4587402l0 0c0 1.1393738 -0.92362976 2.0629883 -2.0629883 2.0629883l0 0c-1.1393585 0 -2.0629883 -0.9236145 -2.0629883 -2.0629883z" fill-rule="evenodd"/><path fill="#ffff00" d="m230.15486 349.1391l0 0c0 -1.1393433 0.92362976 -2.0629883 2.0629883 -2.0629883l0 0c0.5471344 0 1.0718689 0.21734619 1.4587555 0.60424805c0.3868866 0.38687134 0.6042328 0.9116211 0.6042328 1.4587402l0 0c0 1.1393738 -0.92362976 2.0629883 -2.0629883 2.0629883l0 0c-1.1393585 0 -2.0629883 -0.9236145 -2.0629883 -2.0629883z" fill-rule="evenodd"/><path fill="#ffff00" d="m230.15486 373.1391l0 0c0 -1.1393433 0.92362976 -2.0629883 2.0629883 -2.0629883l0 0c0.5471344 0 1.0718689 0.21734619 1.4587555 0.60424805c0.3868866 0.38687134 0.6042328 0.9116211 0.6042328 1.4587402l0 0c0 1.1393738 -0.92362976 2.0629883 -2.0629883 2.0629883l0 0c-1.1393585 0 -2.0629883 -0.9236145 -2.0629883 -2.0629883z" fill-rule="evenodd"/><path fill="#ffff00" d="m270.15485 381.1391l0 0c0 -1.1393433 0.923645 -2.0629883 2.0629883 -2.0629883l0 0c0.54714966 0 1.0718689 0.21734619 1.4587708 0.60424805c0.38687134 0.38687134 0.60424805 0.9116211 0.60424805 1.4587402l0 0c0 1.1393738 -0.923645 2.0629883 -2.0630188 2.0629883l0 0c-1.1393433 0 -2.0629883 -0.9236145 -2.0629883 -2.0629883z" fill-rule="evenodd"/><path fill="#ffff00" d="m277.85565 85.13911l0 0c0 -1.1393585 0.9236145 -2.0629883 2.0629883 -2.0629883l0 0c0.54714966 0 1.0718689 0.21734619 1.4587402 0.6042328c0.38690186 0.3868866 0.60424805 0.91161346 0.60424805 1.4587555l0 0c0 1.1393585 -0.923645 2.062996 -2.0629883 2.062996l0 0c-1.1393738 0 -2.0629883 -0.9236374 -2.0629883 -2.062996z" fill-rule="evenodd"/><path fill="#ffff00" d="m550.15485 413.1391l0 0c0 -1.1393433 0.923645 -2.0629883 2.0629883 -2.0629883l0 0c0.5471802 0 1.0718994 0.21734619 1.4587402 0.60424805c0.38690186 0.38687134 0.60424805 0.9116211 0.60424805 1.4587402l0 0c0 1.1393738 -0.923645 2.0629883 -2.0629883 2.0629883l0 0c-1.1393433 0 -2.0629883 -0.9236145 -2.0629883 -2.0629883z" fill-rule="evenodd"/><path fill="#ffff00" d="m310.15485 165.13911l0 0c0 -1.1393585 0.923645 -2.0630035 2.0629883 -2.0630035l0 0c0.54714966 0 1.0718689 0.21736145 1.4587708 0.60424805c0.38687134 0.3868866 0.60424805 0.91160583 0.60424805 1.4587555l0 0c0 1.1393585 -0.923645 2.0629883 -2.0630188 2.0629883l0 0c-1.1393433 0 -2.0629883 -0.92362976 -2.0629883 -2.0629883z" fill-rule="evenodd"/><path fill="#ffff00" d="m630.15485 192.1076l0 0c0 -1.1393585 0.923645 -2.0629883 2.0629883 -2.0629883l0 0c0.5471802 0 1.0718994 0.21734619 1.4587402 0.6042328c0.38690186 0.3868866 0.60424805 0.9116211 0.60424805 1.4587555l0 0c0 1.1393585 -0.923645 2.0630035 -2.0629883 2.0630035l0 0c-1.1393433 0 -2.0629883 -0.923645 -2.0629883 -2.0630035z" fill-rule="evenodd"/><path fill="#ffff00" d="m686.15485 165.13911l0 0c0 -1.1393585 0.923645 -2.0630035 2.0629883 -2.0630035l0 0c0.5471802 0 1.0718994 0.21736145 1.4587402 0.60424805c0.38690186 0.3868866 0.60424805 0.91160583 0.60424805 1.4587555l0 0c0 1.1393585 -0.923645 2.0629883 -2.0629883 2.0629883l0 0c-1.1393433 0 -2.0629883 -0.92362976 -2.0629883 -2.0629883z" fill-rule="evenodd"/><path fill="#ffff00" d="m814.15485 245.13911l0 0c0 -1.1393585 0.923645 -2.0630035 2.0629883 -2.0630035l0 0c0.5471802 0 1.0718994 0.21736145 1.4587402 0.60424805c0.38690186 0.3868866 0.60424805 0.91160583 0.60424805 1.4587555l0 0c0 1.1393585 -0.923645 2.0629883 -2.0629883 2.0629883l0 0c-1.1393433 0 -2.0629883 -0.92362976 -2.0629883 -2.0629883z" fill-rule="evenodd"/><path fill="#ffff00" d="m702.15485 261.1391l0 0c0 -1.1393433 0.923645 -2.0629883 2.0629883 -2.0629883l0 0c0.5471802 0 1.0718994 0.21734619 1.4587402 0.60424805c0.38690186 0.38687134 0.60424805 0.9116211 0.60424805 1.4587402l0 0c0 1.1393738 -0.923645 2.0629883 -2.0629883 2.0629883l0 0c-1.1393433 0 -2.0629883 -0.9236145 -2.0629883 -2.0629883z" fill-rule="evenodd"/><path fill="#ffff00" d="m718.15485 293.1391l0 0c0 -1.1393433 0.923645 -2.0629883 2.0629883 -2.0629883l0 0c0.5471802 0 1.0718994 0.21734619 1.4587402 0.60424805c0.38690186 0.38687134 0.60424805 0.9116211 0.60424805 1.4587402l0 0c0 1.1393738 -0.923645 2.0629883 -2.0629883 2.0629883l0 0c-1.1393433 0 -2.0629883 -0.9236145 -2.0629883 -2.0629883z" fill-rule="evenodd"/><path fill="#ffff00" d="m750.15485 453.1391l0 0c0 -1.1393433 0.923645 -2.0629883 2.0629883 -2.0629883l0 0c0.5471802 0 1.0718994 0.21734619 1.4587402 0.60424805c0.38690186 0.38687134 0.60424805 0.9116211 0.60424805 1.4587402l0 0c0 1.1393738 -0.923645 2.0629883 -2.0629883 2.0629883l0 0c-1.1393433 0 -2.0629883 -0.9236145 -2.0629883 -2.0629883z" fill-rule="evenodd"/><path fill="#ffff00" d="m662.15485 413.1391l0 0c0 -1.1393433 0.923645 -2.0629883 2.0629883 -2.0629883l0 0c0.5471802 0 1.0718994 0.21734619 1.4587402 0.60424805c0.38690186 0.38687134 0.60424805 0.9116211 0.60424805 1.4587402l0 0c0 1.1393738 -0.923645 2.0629883 -2.0629883 2.0629883l0 0c-1.1393433 0 -2.0629883 -0.9236145 -2.0629883 -2.0629883z" fill-rule="evenodd"/><path fill="#ffff00" d="m598.15485 429.1391l0 0c0 -1.1393433 0.923645 -2.0629883 2.0629883 -2.0629883l0 0c0.5471802 0 1.0718994 0.21734619 1.4587402 0.60424805c0.38690186 0.38687134 0.60424805 0.9116211 0.60424805 1.4587402l0 0c0 1.1393738 -0.923645 2.0629883 -2.0629883 2.0629883l0 0c-1.1393433 0 -2.0629883 -0.9236145 -2.0629883 -2.0629883z" fill-rule="evenodd"/><path fill="#ffff00" d="m614.15485 445.1391l0 0c0 -1.1393433 0.923645 -2.0629883 2.0629883 -2.0629883l0 0c0.5471802 0 1.0718994 0.21734619 1.4587402 0.60424805c0.38690186 0.38687134 0.60424805 0.9116211 0.60424805 1.4587402l0 0c0 1.1393738 -0.923645 2.0629883 -2.0629883 2.0629883l0 0c-1.1393433 0 -2.0629883 -0.9236145 -2.0629883 -2.0629883z" fill-rule="evenodd"/><path fill="#ffff00" d="m494.15485 573.1391l0 0c0 -1.1393433 0.923645 -2.0629883 2.0629883 -2.0629883l0 0c0.54714966 0 1.0718689 0.21734619 1.4587708 0.60424805c0.38687134 0.38690186 0.60424805 0.9116211 0.60424805 1.4587402l0 0c0 1.1393433 -0.923645 2.0629883 -2.0630188 2.0629883l0 0c-1.1393433 0 -2.0629883 -0.923645 -2.0629883 -2.0629883z" fill-rule="evenodd"/><path fill="#ffff00" d="m302.15485 589.1391l0 0c0 -1.1393433 0.923645 -2.0629883 2.0629883 -2.0629883l0 0c0.54714966 0 1.0718689 0.21734619 1.4587708 0.60424805c0.38687134 0.38690186 0.60424805 0.9116211 0.60424805 1.4587402l0 0c0 1.1393433 -0.923645 2.0629883 -2.0630188 2.0629883l0 0c-1.1393433 0 -2.0629883 -0.923645 -2.0629883 -2.0629883z" fill-rule="evenodd"/><path fill="#ffff00" d="m326.15485 621.1391l0 0c0 -1.1393433 0.923645 -2.0629883 2.0629883 -2.0629883l0 0c0.54714966 0 1.0718689 0.21734619 1.4587708 0.60424805c0.38687134 0.38690186 0.60424805 0.9116211 0.60424805 1.4587402l0 0c0 1.1393433 -0.923645 2.0629883 -2.0630188 2.0629883l0 0c-1.1393433 0 -2.0629883 -0.923645 -2.0629883 -2.0629883z" fill-rule="evenodd"/><path fill="#ffff00" d="m206.15486 637.1391l0 0c0 -1.1393433 0.92362976 -2.0629883 2.0629883 -2.0629883l0 0c0.5471344 0 1.0718689 0.21734619 1.4587555 0.60424805c0.3868866 0.38690186 0.6042328 0.9116211 0.6042328 1.4587402l0 0c0 1.1393433 -0.92362976 2.0629883 -2.0629883 2.0629883l0 0c-1.1393585 0 -2.0629883 -0.923645 -2.0629883 -2.0629883z" fill-rule="evenodd"/><path fill="#ffff00" d="m86.154854 653.1391l0 0c0 -1.1393433 0.9236374 -2.0629883 2.062996 -2.0629883l0 0c0.5471344 0 1.0718689 0.21734619 1.4587555 0.60424805c0.3868866 0.38690186 0.6042328 0.9116211 0.6042328 1.4587402l0 0c0 1.1393433 -0.92362976 2.0629883 -2.0629883 2.0629883l0 0c-1.1393585 0 -2.062996 -0.923645 -2.062996 -2.0629883z" fill-rule="evenodd"/><path fill="#ffff00" d="m102.154854 557.1391l0 0c0 -1.1393433 0.9236374 -2.0629883 2.062996 -2.0629883l0 0c0.5471344 0 1.0718689 0.21734619 1.4587555 0.60424805c0.3868866 0.38690186 0.6042328 0.9116211 0.6042328 1.4587402l0 0c0 1.1393433 -0.92362976 2.0629883 -2.0629883 2.0629883l0 0c-1.1393585 0 -2.062996 -0.923645 -2.062996 -2.0629883z" fill-rule="evenodd"/><path fill="#ffff00" d="m782.15485 573.1391l0 0c0 -1.1393433 0.923645 -2.0629883 2.0629883 -2.0629883l0 0c0.5471802 0 1.0718994 0.21734619 1.4587402 0.60424805c0.38690186 0.38690186 0.60424805 0.9116211 0.60424805 1.4587402l0 0c0 1.1393433 -0.923645 2.0629883 -2.0629883 2.0629883l0 0c-1.1393433 0 -2.0629883 -0.923645 -2.0629883 -2.0629883z" fill-rule="evenodd"/><path fill="#ffff00" d="m798.15485 637.1391l0 0c0 -1.1393433 0.923645 -2.0629883 2.0629883 -2.0629883l0 0c0.5471802 0 1.0718994 0.21734619 1.4587402 0.60424805c0.38690186 0.38690186 0.60424805 0.9116211 0.60424805 1.4587402l0 0c0 1.1393433 -0.923645 2.0629883 -2.0629883 2.0629883l0 0c-1.1393433 0 -2.0629883 -0.923645 -2.0629883 -2.0629883z" fill-rule="evenodd"/><path fill="#ffff00" d="m814.15485 605.1391l0 0c0 -1.1393433 0.923645 -2.0629883 2.0629883 -2.0629883l0 0c0.5471802 0 1.0718994 0.21734619 1.4587402 0.60424805c0.38690186 0.38690186 0.60424805 0.9116211 0.60424805 1.4587402l0 0c0 1.1393433 -0.923645 2.0629883 -2.0629883 2.0629883l0 0c-1.1393433 0 -2.0629883 -0.923645 -2.0629883 -2.0629883z" fill-rule="evenodd"/><path fill="#ffff00" d="m566.15485 621.1391l0 0c0 -1.1393433 0.923645 -2.0629883 2.0629883 -2.0629883l0 0c0.5471802 0 1.0718994 0.21734619 1.4587402 0.60424805c0.38690186 0.38690186 0.60424805 0.9116211 0.60424805 1.4587402l0 0c0 1.1393433 -0.923645 2.0629883 -2.0629883 2.0629883l0 0c-1.1393433 0 -2.0629883 -0.923645 -2.0629883 -2.0629883z" fill-rule="evenodd"/><path fill="#ffff00" d="m582.15485 557.1391l0 0c0 -1.1393433 0.923645 -2.0629883 2.0629883 -2.0629883l0 0c0.5471802 0 1.0718994 0.21734619 1.4587402 0.60424805c0.38690186 0.38690186 0.60424805 0.9116211 0.60424805 1.4587402l0 0c0 1.1393433 -0.923645 2.0629883 -2.0629883 2.0629883l0 0c-1.1393433 0 -2.0629883 -0.923645 -2.0629883 -2.0629883z" fill-rule="evenodd"/><path fill="#ffff00" d="m598.15485 581.1391l0 0c0 -1.1393433 0.923645 -2.0629883 2.0629883 -2.0629883l0 0c0.5471802 0 1.0718994 0.21734619 1.4587402 0.60424805c0.38690186 0.38690186 0.60424805 0.9116211 0.60424805 1.4587402l0 0c0 1.1393433 -0.923645 2.0629883 -2.0629883 2.0629883l0 0c-1.1393433 0 -2.0629883 -0.923645 -2.0629883 -2.0629883z" fill-rule="evenodd"/><path fill="#ffff00" d="m614.15485 565.1391l0 0c0 -1.1393433 0.923645 -2.0629883 2.0629883 -2.0629883l0 0c0.5471802 0 1.0718994 0.21734619 1.4587402 0.60424805c0.38690186 0.38690186 0.60424805 0.9116211 0.60424805 1.4587402l0 0c0 1.1393433 -0.923645 2.0629883 -2.0629883 2.0629883l0 0c-1.1393433 0 -2.0629883 -0.923645 -2.0629883 -2.0629883z" fill-rule="evenodd"/><path fill="#ffff00" d="m630.15485 77.13911l0 0c0 -1.1393585 0.923645 -2.0629883 2.0629883 -2.0629883l0 0c0.5471802 0 1.0718994 0.21734619 1.4587402 0.6042328c0.38690186 0.3868866 0.60424805 0.91161346 0.60424805 1.4587555l0 0c0 1.1393585 -0.923645 2.062996 -2.0629883 2.062996l0 0c-1.1393433 0 -2.0629883 -0.9236374 -2.0629883 -2.062996z" fill-rule="evenodd"/><path fill="#ffff00" d="m654.15485 85.13911l0 0c0 -1.1393585 0.923645 -2.0629883 2.0629883 -2.0629883l0 0c0.5471802 0 1.0718994 0.21734619 1.4587402 0.6042328c0.38690186 0.3868866 0.60424805 0.91161346 0.60424805 1.4587555l0 0c0 1.1393585 -0.923645 2.062996 -2.0629883 2.062996l0 0c-1.1393433 0 -2.0629883 -0.9236374 -2.0629883 -2.062996z" fill-rule="evenodd"/><path fill="#ffff00" d="m670.15485 53.139107l0 0c0 -1.1393585 0.923645 -2.062992 2.0629883 -2.062992l0 0c0.5471802 0 1.0718994 0.21735 1.4587402 0.6042366c0.38690186 0.3868866 0.60424805 0.9116173 0.60424805 1.4587555l0 0c0 1.1393585 -0.923645 2.062992 -2.0629883 2.062992l0 0c-1.1393433 0 -2.0629883 -0.9236336 -2.0629883 -2.062992z" fill-rule="evenodd"/><path fill="#ffff00" d="m854.15485 85.13911l0 0c0 -1.1393585 0.923645 -2.0629883 2.0629883 -2.0629883l0 0c0.5471802 0 1.0718994 0.21734619 1.4587402 0.6042328c0.38690186 0.3868866 0.60424805 0.91161346 0.60424805 1.4587555l0 0c0 1.1393585 -0.923645 2.062996 -2.0629883 2.062996l0 0c-1.1393433 0 -2.0629883 -0.9236374 -2.0629883 -2.062996z" fill-rule="evenodd"/><path fill="#e06666" d="m326.15485 181.13911l0 0c0 -1.1393585 0.923645 -2.0630035 2.0629883 -2.0630035l0 0c0.54714966 0 1.0718689 0.21736145 1.4587708 0.60424805c0.38687134 0.3868866 0.60424805 0.91160583 0.60424805 1.4587555l0 0c0 1.1393585 -0.923645 2.0629883 -2.0630188 2.0629883l0 0c-1.1393433 0 -2.0629883 -0.92362976 -2.0629883 -2.0629883z" fill-rule="evenodd"/><path fill="#e06666" d="m342.15485 53.139107l0 0c0 -1.1393585 0.923645 -2.062992 2.0629883 -2.062992l0 0c0.54714966 0 1.0718689 0.21735 1.4587708 0.6042366c0.38687134 0.3868866 0.60424805 0.9116173 0.60424805 1.4587555l0 0c0 1.1393585 -0.923645 2.062992 -2.0630188 2.062992l0 0c-1.1393433 0 -2.0629883 -0.9236336 -2.0629883 -2.062992z" fill-rule="evenodd"/><path fill="#e06666" d="m662.15485 69.13911l0 0c0 -1.1393585 0.923645 -2.0629883 2.0629883 -2.0629883l0 0c0.5471802 0 1.0718994 0.21734619 1.4587402 0.6042328c0.38690186 0.3868866 0.60424805 0.91161346 0.60424805 1.4587555l0 0c0 1.1393585 -0.923645 2.062996 -2.0629883 2.062996l0 0c-1.1393433 0 -2.0629883 -0.9236374 -2.0629883 -2.062996z" fill-rule="evenodd"/><path fill="#e06666" d="m668.7507 85.13911l0 0c0 -1.1393585 0.923645 -2.0629883 2.0629883 -2.0629883l0 0c0.54711914 0 1.0718384 0.21734619 1.4587402 0.6042328c0.38690186 0.3868866 0.60424805 0.91161346 0.60424805 1.4587555l0 0c0 1.1393585 -0.923645 2.062996 -2.0629883 2.062996l0 0c-1.1393433 0 -2.0629883 -0.9236374 -2.0629883 -2.062996z" fill-rule="evenodd"/><path fill="#e06666" d="m630.15485 205.13911l0 0c0 -1.1393585 0.923645 -2.0630035 2.0629883 -2.0630035l0 0c0.5471802 0 1.0718994 0.21736145 1.4587402 0.60424805c0.38690186 0.3868866 0.60424805 0.91160583 0.60424805 1.4587555l0 0c0 1.1393585 -0.923645 2.0629883 -2.0629883 2.0629883l0 0c-1.1393433 0 -2.0629883 -0.92362976 -2.0629883 -2.0629883z" fill-rule="evenodd"/><path fill="#e06666" d="m574.15485 373.1391l0 0c0 -1.1393433 0.923645 -2.0629883 2.0629883 -2.0629883l0 0c0.5471802 0 1.0718994 0.21734619 1.4587402 0.60424805c0.38690186 0.38687134 0.60424805 0.9116211 0.60424805 1.4587402l0 0c0 1.1393738 -0.923645 2.0629883 -2.0629883 2.0629883l0 0c-1.1393433 0 -2.0629883 -0.9236145 -2.0629883 -2.0629883z" fill-rule="evenodd"/><path fill="#e06666" d="m470.15485 421.1391l0 0c0 -1.1393433 0.923645 -2.0629883 2.0629883 -2.0629883l0 0c0.54714966 0 1.0718689 0.21734619 1.4587708 0.60424805c0.38687134 0.38687134 0.60424805 0.9116211 0.60424805 1.4587402l0 0c0 1.1393738 -0.923645 2.0629883 -2.0630188 2.0629883l0 0c-1.1393433 0 -2.0629883 -0.9236145 -2.0629883 -2.0629883z" fill-rule="evenodd"/><path fill="#e06666" d="m598.15485 445.1391l0 0c0 -1.1393433 0.923645 -2.0629883 2.0629883 -2.0629883l0 0c0.5471802 0 1.0718994 0.21734619 1.4587402 0.60424805c0.38690186 0.38687134 0.60424805 0.9116211 0.60424805 1.4587402l0 0c0 1.1393738 -0.923645 2.0629883 -2.0629883 2.0629883l0 0c-1.1393433 0 -2.0629883 -0.9236145 -2.0629883 -2.0629883z" fill-rule="evenodd"/><path fill="#e06666" d="m798.15485 509.1391l0 0c0 -1.1393433 0.923645 -2.0629883 2.0629883 -2.0629883l0 0c0.5471802 0 1.0718994 0.21734619 1.4587402 0.60424805c0.38690186 0.38687134 0.60424805 0.9116211 0.60424805 1.4587402l0 0c0 1.1393738 -0.923645 2.0629883 -2.0629883 2.0629883l0 0c-1.1393433 0 -2.0629883 -0.9236145 -2.0629883 -2.0629883z" fill-rule="evenodd"/><path fill="#e06666" d="m222.15486 581.1391l0 0c0 -1.1393433 0.92362976 -2.0629883 2.0629883 -2.0629883l0 0c0.5471344 0 1.0718689 0.21734619 1.4587555 0.60424805c0.3868866 0.38690186 0.6042328 0.9116211 0.6042328 1.4587402l0 0c0 1.1393433 -0.92362976 2.0629883 -2.0629883 2.0629883l0 0c-1.1393585 0 -2.0629883 -0.923645 -2.0629883 -2.0629883z" fill-rule="evenodd"/><path fill="#e06666" d="m542.15485 565.1391l0 0c0 -1.1393433 0.923645 -2.0629883 2.0629883 -2.0629883l0 0c0.5471802 0 1.0718994 0.21734619 1.4587402 0.60424805c0.38690186 0.38690186 0.60424805 0.9116211 0.60424805 1.4587402l0 0c0 1.1393433 -0.923645 2.0629883 -2.0629883 2.0629883l0 0c-1.1393433 0 -2.0629883 -0.923645 -2.0629883 -2.0629883z" fill-rule="evenodd"/><path fill="#e06666" d="m230.15486 597.1391l0 0c0 -1.1393433 0.92362976 -2.0629883 2.0629883 -2.0629883l0 0c0.5471344 0 1.0718689 0.21734619 1.4587555 0.60424805c0.3868866 0.38690186 0.6042328 0.9116211 0.6042328 1.4587402l0 0c0 1.1393433 -0.92362976 2.0629883 -2.0629883 2.0629883l0 0c-1.1393585 0 -2.0629883 -0.923645 -2.0629883 -2.0629883z" fill-rule="evenodd"/><path fill="#e06666" d="m134.15486 613.1391l0 0c0 -1.1393433 0.92362976 -2.0629883 2.0629883 -2.0629883l0 0c0.5471344 0 1.0718689 0.21734619 1.4587555 0.60424805c0.3868866 0.38690186 0.6042328 0.9116211 0.6042328 1.4587402l0 0c0 1.1393433 -0.92362976 2.0629883 -2.0629883 2.0629883l0 0c-1.1393585 0 -2.0629883 -0.923645 -2.0629883 -2.0629883z" fill-rule="evenodd"/><path fill="#e06666" d="m150.15486 517.1391l0 0c0 -1.1393433 0.92362976 -2.0629883 2.0629883 -2.0629883l0 0c0.5471344 0 1.0718689 0.21734619 1.4587555 0.60424805c0.3868866 0.38690186 0.6042328 0.9116211 0.6042328 1.4587402l0 0c0 1.1393433 -0.92362976 2.0629883 -2.0629883 2.0629883l0 0c-1.1393585 0 -2.0629883 -0.923645 -2.0629883 -2.0629883z" fill-rule="evenodd"/><path fill="#e06666" d="m190.15486 533.1391l0 0c0 -1.1393433 0.92362976 -2.0629883 2.0629883 -2.0629883l0 0c0.5471344 0 1.0718689 0.21734619 1.4587555 0.60424805c0.3868866 0.38690186 0.6042328 0.9116211 0.6042328 1.4587402l0 0c0 1.1393433 -0.92362976 2.0629883 -2.0629883 2.0629883l0 0c-1.1393585 0 -2.0629883 -0.923645 -2.0629883 -2.0629883z" fill-rule="evenodd"/><path fill="#e06666" d="m462.15485 549.1391l0 0c0 -1.1393433 0.923645 -2.0629883 2.0629883 -2.0629883l0 0c0.54714966 0 1.0718689 0.21734619 1.4587708 0.60424805c0.38687134 0.38690186 0.60424805 0.9116211 0.60424805 1.4587402l0 0c0 1.1393433 -0.923645 2.0629883 -2.0630188 2.0629883l0 0c-1.1393433 0 -2.0629883 -0.923645 -2.0629883 -2.0629883z" fill-rule="evenodd"/><path fill="#e06666" d="m246.15486 405.1391l0 0c0 -1.1393433 0.92362976 -2.0629883 2.0629883 -2.0629883l0 0c0.5471344 0 1.0718689 0.21734619 1.4587555 0.60424805c0.3868866 0.38687134 0.6042328 0.9116211 0.6042328 1.4587402l0 0c0 1.1393738 -0.92362976 2.0629883 -2.0629883 2.0629883l0 0c-1.1393585 0 -2.0629883 -0.9236145 -2.0629883 -2.0629883z" fill-rule="evenodd"/><path fill="#e06666" d="m710.15485 197.13911l0 0c0 -1.1393585 0.923645 -2.0630035 2.0629883 -2.0630035l0 0c0.5471802 0 1.0718994 0.21736145 1.4587402 0.60424805c0.38690186 0.3868866 0.60424805 0.91160583 0.60424805 1.4587555l0 0c0 1.1393585 -0.923645 2.0629883 -2.0629883 2.0629883l0 0c-1.1393433 0 -2.0629883 -0.92362976 -2.0629883 -2.0629883z" fill-rule="evenodd"/><path fill="#e06666" d="m726.15485 165.13911l0 0c0 -1.1393585 0.923645 -2.0630035 2.0629883 -2.0630035l0 0c0.5471802 0 1.0718994 0.21736145 1.4587402 0.60424805c0.38690186 0.3868866 0.60424805 0.91160583 0.60424805 1.4587555l0 0c0 1.1393585 -0.923645 2.0629883 -2.0629883 2.0629883l0 0c-1.1393433 0 -2.0629883 -0.92362976 -2.0629883 -2.0629883z" fill-rule="evenodd"/><path fill="#e06666" d="m734.15485 181.13911l0 0c0 -1.1393585 0.923645 -2.0630035 2.0629883 -2.0630035l0 0c0.5471802 0 1.0718994 0.21736145 1.4587402 0.60424805c0.38690186 0.3868866 0.60424805 0.91160583 0.60424805 1.4587555l0 0c0 1.1393585 -0.923645 2.0629883 -2.0629883 2.0629883l0 0c-1.1393433 0 -2.0629883 -0.92362976 -2.0629883 -2.0629883z" fill-rule="evenodd"/><path fill="#e06666" d="m854.15485 61.139107l0 0c0 -1.1393585 0.923645 -2.062992 2.0629883 -2.062992l0 0c0.5471802 0 1.0718994 0.21735 1.4587402 0.6042366c0.38690186 0.3868866 0.60424805 0.9116173 0.60424805 1.4587555l0 0c0 1.1393585 -0.923645 2.062992 -2.0629883 2.062992l0 0c-1.1393433 0 -2.0629883 -0.9236336 -2.0629883 -2.062992z" fill-rule="evenodd"/><path fill="#e06666" d="m838.15485 77.13911l0 0c0 -1.1393585 0.923645 -2.0629883 2.0629883 -2.0629883l0 0c0.5471802 0 1.0718994 0.21734619 1.4587402 0.6042328c0.38690186 0.3868866 0.60424805 0.91161346 0.60424805 1.4587555l0 0c0 1.1393585 -0.923645 2.062996 -2.0629883 2.062996l0 0c-1.1393433 0 -2.0629883 -0.9236374 -2.0629883 -2.062996z" fill-rule="evenodd"/><path fill="#e06666" d="m766.15485 93.13911l0 0c0 -1.1393585 0.923645 -2.0629883 2.0629883 -2.0629883l0 0c0.5471802 0 1.0718994 0.21734619 1.4587402 0.6042328c0.38690186 0.3868866 0.60424805 0.91161346 0.60424805 1.4587555l0 0c0 1.1393585 -0.923645 2.062996 -2.0629883 2.062996l0 0c-1.1393433 0 -2.0629883 -0.9236374 -2.0629883 -2.062996z" fill-rule="evenodd"/><path fill="#e06666" d="m798.15485 109.13911l0 0c0 -1.1393585 0.923645 -2.0629883 2.0629883 -2.0629883l0 0c0.5471802 0 1.0718994 0.21734619 1.4587402 0.6042328c0.38690186 0.3868866 0.60424805 0.91161346 0.60424805 1.4587555l0 0c0 1.1393585 -0.923645 2.062996 -2.0629883 2.062996l0 0c-1.1393433 0 -2.0629883 -0.9236374 -2.0629883 -2.062996z" fill-rule="evenodd"/><path fill="#e06666" d="m294.15485 125.13911l0 0c0 -1.1393585 0.923645 -2.0629883 2.0629883 -2.0629883l0 0c0.54714966 0 1.0718689 0.21734619 1.4587708 0.6042328c0.38687134 0.3868866 0.60424805 0.91161346 0.60424805 1.4587555l0 0c0 1.1393585 -0.923645 2.062996 -2.0630188 2.062996l0 0c-1.1393433 0 -2.0629883 -0.9236374 -2.0629883 -2.062996z" fill-rule="evenodd"/><path fill="#e06666" d="m102.154854 141.13911l0 0c0 -1.1393585 0.9236374 -2.0630035 2.062996 -2.0630035l0 0c0.5471344 0 1.0718689 0.21736145 1.4587555 0.60424805c0.3868866 0.3868866 0.6042328 0.91160583 0.6042328 1.4587555l0 0c0 1.1393585 -0.92362976 2.0629883 -2.0629883 2.0629883l0 0c-1.1393585 0 -2.062996 -0.92362976 -2.062996 -2.0629883z" fill-rule="evenodd"/><path fill="#e06666" d="m118.154854 165.13911l0 0c0 -1.1393585 0.9236374 -2.0630035 2.062996 -2.0630035l0 0c0.5471344 0 1.0718689 0.21736145 1.4587555 0.60424805c0.3868866 0.3868866 0.6042328 0.91160583 0.6042328 1.4587555l0 0c0 1.1393585 -0.92362976 2.0629883 -2.0629883 2.0629883l0 0c-1.1393585 0 -2.062996 -0.92362976 -2.062996 -2.0629883z" fill-rule="evenodd"/><path fill="#e06666" d="m78.154854 197.13911l0 0c0 -1.1393585 0.9236374 -2.0630035 2.062996 -2.0630035l0 0c0.5471344 0 1.0718689 0.21736145 1.4587555 0.60424805c0.3868866 0.3868866 0.6042328 0.91160583 0.6042328 1.4587555l0 0c0 1.1393585 -0.92362976 2.0629883 -2.0629883 2.0629883l0 0c-1.1393585 0 -2.062996 -0.92362976 -2.062996 -2.0629883z" fill-rule="evenodd"/><path fill="#e06666" d="m70.154854 213.13911l0 0c0 -1.1393585 0.9236374 -2.0630035 2.062996 -2.0630035l0 0c0.5471344 0 1.0718689 0.21736145 1.4587555 0.60424805c0.3868866 0.3868866 0.6042328 0.91160583 0.6042328 1.4587555l0 0c0 1.1393585 -0.92362976 2.0629883 -2.0629883 2.0629883l0 0c-1.1393585 0 -2.062996 -0.92362976 -2.062996 -2.0629883z" fill-rule="evenodd"/><path fill="#e06666" d="m54.154854 261.1391l0 0c0 -1.1393433 0.9236336 -2.0629883 2.062992 -2.0629883l0 0c0.547142 0 1.0718727 0.21734619 1.4587593 0.60424805c0.38688278 0.38687134 0.6042328 0.9116211 0.6042328 1.4587402l0 0c0 1.1393738 -0.92362976 2.0629883 -2.062992 2.0629883l0 0c-1.1393585 0 -2.062992 -0.9236145 -2.062992 -2.0629883z" fill-rule="evenodd"/><path fill="#e06666" d="m70.154854 637.1391l0 0c0 -1.1393433 0.9236374 -2.0629883 2.062996 -2.0629883l0 0c0.5471344 0 1.0718689 0.21734619 1.4587555 0.60424805c0.3868866 0.38690186 0.6042328 0.9116211 0.6042328 1.4587402l0 0c0 1.1393433 -0.92362976 2.0629883 -2.0629883 2.0629883l0 0c-1.1393585 0 -2.062996 -0.923645 -2.062996 -2.0629883z" fill-rule="evenodd"/><path fill="#e06666" d="m94.154854 437.1391l0 0c0 -1.1393433 0.9236374 -2.0629883 2.062996 -2.0629883l0 0c0.5471344 0 1.0718689 0.21734619 1.4587555 0.60424805c0.3868866 0.38687134 0.6042328 0.9116211 0.6042328 1.4587402l0 0c0 1.1393738 -0.92362976 2.0629883 -2.0629883 2.0629883l0 0c-1.1393585 0 -2.062996 -0.9236145 -2.062996 -2.0629883z" fill-rule="evenodd"/><path fill="#e06666" d="m774.15485 453.1391l0 0c0 -1.1393433 0.923645 -2.0629883 2.0629883 -2.0629883l0 0c0.5471802 0 1.0718994 0.21734619 1.4587402 0.60424805c0.38690186 0.38687134 0.60424805 0.9116211 0.60424805 1.4587402l0 0c0 1.1393738 -0.923645 2.0629883 -2.0629883 2.0629883l0 0c-1.1393433 0 -2.0629883 -0.9236145 -2.0629883 -2.0629883z" fill-rule="evenodd"/><path fill="#e06666" d="m446.15485 253.13911l0 0c0 -1.1393585 0.923645 -2.0630035 2.0629883 -2.0630035l0 0c0.54714966 0 1.0718689 0.21736145 1.4587708 0.60424805c0.38687134 0.3868866 0.60424805 0.91160583 0.60424805 1.4587555l0 0c0 1.1393585 -0.923645 2.0629883 -2.0630188 2.0629883l0 0c-1.1393433 0 -2.0629883 -0.92362976 -2.0629883 -2.0629883z" fill-rule="evenodd"/><path fill="#e06666" d="m246.15486 269.1391l0 0c0 -1.1393433 0.92362976 -2.0629883 2.0629883 -2.0629883l0 0c0.5471344 0 1.0718689 0.21734619 1.4587555 0.60424805c0.3868866 0.38687134 0.6042328 0.9116211 0.6042328 1.4587402l0 0c0 1.1393738 -0.92362976 2.0629883 -2.0629883 2.0629883l0 0c-1.1393585 0 -2.0629883 -0.9236145 -2.0629883 -2.0629883z" fill-rule="evenodd"/><path fill="#000000" fill-opacity="0.0" d="m313.2257 379.0761l-2.456665 -212.47244" fill-rule="evenodd"/><path stroke="#3c78d8" stroke-width="1.0" stroke-linejoin="round" stroke-linecap="butt" d="m313.2257 379.0761l-2.456665 -212.47244" fill-rule="evenodd"/><path fill="#000000" fill-opacity="0.0" d="m451.39716 211.97556l115.27557 -107.05512" fill-rule="evenodd"/><path stroke="#3c78d8" stroke-width="1.0" stroke-linejoin="round" stroke-linecap="butt" d="m451.39716 211.97556l115.27557 -107.05512" fill-rule="evenodd"/><path fill="#000000" fill-opacity="0.0" d="m642.2808 181.13911l-24.598389 -1.448822" fill-rule="evenodd"/><path stroke="#3c78d8" stroke-width="1.0" stroke-linejoin="round" stroke-linecap="butt" d="m642.2808 181.13911l-24.598389 -1.448822" fill-rule="evenodd"/><path fill="#000000" fill-opacity="0.0" d="m766.15485 93.13911l-194.77167 11.181107" fill-rule="evenodd"/><path stroke="#3c78d8" stroke-width="1.0" stroke-linejoin="round" stroke-linecap="butt" d="m766.15485 93.13911l-194.77167 11.181107" fill-rule="evenodd"/><path fill="#000000" fill-opacity="0.0" d="m449.2257 211.07611l165.54333 168.59842" fill-rule="evenodd"/><path stroke="#3c78d8" stroke-width="1.0" stroke-linejoin="round" stroke-linecap="butt" d="m449.2257 211.07611l165.54333 168.59842" fill-rule="evenodd"/><path fill="#000000" fill-opacity="0.0" d="m617.6766 379.68036l61.385864 -67.37009" fill-rule="evenodd"/><path stroke="#3c78d8" stroke-width="1.0" stroke-linejoin="round" stroke-linecap="butt" d="m617.6766 379.68036l61.385864 -67.37009" fill-rule="evenodd"/><path fill="#000000" fill-opacity="0.0" d="m619.39716 363.97556l155.65356 -83.653534" fill-rule="evenodd"/><path stroke="#3c78d8" stroke-width="1.0" stroke-linejoin="round" stroke-linecap="butt" d="m619.39716 363.97556l155.65356 -83.653534" fill-rule="evenodd"/><path fill="#000000" fill-opacity="0.0" d="m683.39716 307.97556l36.81891 -12.787415" fill-rule="evenodd"/><path stroke="#3c78d8" stroke-width="1.0" stroke-linejoin="round" stroke-linecap="butt" d="m683.39716 307.97556l36.81891 -12.787415" fill-rule="evenodd"/><path fill="#000000" fill-opacity="0.0" d="m825.6766 294.59787l-45.385803 -16.440948" fill-rule="evenodd"/><path stroke="#3c78d8" stroke-width="1.0" stroke-linejoin="round" stroke-linecap="butt" d="m825.6766 294.59787l-45.385803 -16.440948" fill-rule="evenodd"/><path fill="#cfe2f3" d="m446.15485 214.14699l0 0c0 -1.6959991 1.3748779 -3.070877 3.0708618 -3.070877l0 0c0.8144531 0 1.5955505 0.32354736 2.1714478 0.8994446c0.5758972 0.5758972 0.8994446 1.3569794 0.8994446 2.1714325l0 0c0 1.6959839 -1.3748779 3.0708618 -3.0708923 3.0708618l0 0c-1.6959839 0 -3.0708618 -1.3748779 -3.0708618 -3.0708618z" fill-rule="evenodd"/><path fill="#ffff00" d="m638.15485 181.13911l0 0c0 -1.1393585 0.923645 -2.0630035 2.0629883 -2.0630035l0 0c0.5471802 0 1.0718994 0.21736145 1.4587402 0.60424805c0.38690186 0.3868866 0.60424805 0.91160583 0.60424805 1.4587555l0 0c0 1.1393585 -0.923645 2.0629883 -2.0629883 2.0629883l0 0c-1.1393433 0 -2.0629883 -0.92362976 -2.0629883 -2.0629883z" fill-rule="evenodd"/><path fill="#ffff00" d="m614.15485 181.13911l0 0c0 -1.1393585 0.923645 -2.0630035 2.0629883 -2.0630035l0 0c0.5471802 0 1.0718994 0.21736145 1.4587402 0.60424805c0.38690186 0.3868866 0.60424805 0.91160583 0.60424805 1.4587555l0 0c0 1.1393585 -0.923645 2.0629883 -2.0629883 2.0629883l0 0c-1.1393433 0 -2.0629883 -0.92362976 -2.0629883 -2.0629883z" fill-rule="evenodd"/><path fill="#000000" fill-opacity="0.0" d="m825.6766 294.59787l48.0 0" fill-rule="evenodd"/><path stroke="#3c78d8" stroke-width="1.0" stroke-linejoin="round" stroke-linecap="butt" d="m825.6766 294.59787l48.0 0" fill-rule="evenodd"/><path fill="#e06666" d="m822.15485 293.1391l0 0c0 -1.1393433 0.923645 -2.0629883 2.0629883 -2.0629883l0 0c0.5471802 0 1.0718994 0.21734619 1.4587402 0.60424805c0.38690186 0.38687134 0.60424805 0.9116211 0.60424805 1.4587402l0 0c0 1.1393738 -0.923645 2.0629883 -2.0629883 2.0629883l0 0c-1.1393433 0 -2.0629883 -0.9236145 -2.0629883 -2.0629883z" fill-rule="evenodd"/><path fill="#ffff00" d="m870.15485 293.1391l0 0c0 -1.1393433 0.923645 -2.0629883 2.0629883 -2.0629883l0 0c0.5471802 0 1.0718994 0.21734619 1.4587402 0.60424805c0.38690186 0.38687134 0.60424805 0.9116211 0.60424805 1.4587402l0 0c0 1.1393738 -0.923645 2.0629883 -2.0629883 2.0629883l0 0c-1.1393433 0 -2.0629883 -0.9236145 -2.0629883 -2.0629883z" fill-rule="evenodd"/><path fill="#000000" fill-opacity="0.0" d="m617.6766 379.68036l-24.440918 29.543304" fill-rule="evenodd"/><path stroke="#3c78d8" stroke-width="1.0" stroke-linejoin="round" stroke-linecap="butt" d="m617.6766 379.68036l-24.440918 29.543304" fill-rule="evenodd"/><path fill="#000000" fill-opacity="0.0" d="m554.2808 413.1391l35.874023 -6.9921265" fill-rule="evenodd"/><path stroke="#3c78d8" stroke-width="1.0" stroke-linejoin="round" stroke-linecap="butt" d="m554.2808 413.1391l35.874023 -6.9921265" fill-rule="evenodd"/><path fill="#cfe2f3" d="m590.15485 406.14697l0 0c0 -1.6959839 1.3748779 -3.0708618 3.0708618 -3.0708618l0 0c0.8144531 0 1.59552 0.32354736 2.1714478 0.8994446c0.5758667 0.5758972 0.89941406 1.3569946 0.89941406 2.1714172l0 0c0 1.6960144 -1.3748779 3.0708618 -3.0708618 3.0708618l0 0c-1.6959839 0 -3.0708618 -1.3748474 -3.0708618 -3.0708618z" fill-rule="evenodd"/><path fill="#e06666" d="m614.15485 381.1391l0 0c0 -1.1393433 0.923645 -2.0629883 2.0629883 -2.0629883l0 0c0.5471802 0 1.0718994 0.21734619 1.4587402 0.60424805c0.38690186 0.38687134 0.60424805 0.9116211 0.60424805 1.4587402l0 0c0 1.1393738 -0.923645 2.0629883 -2.0629883 2.0629883l0 0c-1.1393433 0 -2.0629883 -0.9236145 -2.0629883 -2.0629883z" fill-rule="evenodd"/><path fill="#000000" fill-opacity="0.0" d="m472.21783 423.2021l-5.9527283 125.95276" fill-rule="evenodd"/><path stroke="#3c78d8" stroke-width="1.0" stroke-linejoin="round" stroke-linecap="butt" d="m472.21783 423.2021l-5.9527283 125.95276" fill-rule="evenodd"/><path fill="#000000" fill-opacity="0.0" d="m465.6766 550.59784l-30.26773 117.385864" fill-rule="evenodd"/><path stroke="#3c78d8" stroke-width="1.0" stroke-linejoin="round" stroke-linecap="butt" d="m465.6766 550.59784l-30.26773 117.385864" fill-rule="evenodd"/><path fill="#000000" fill-opacity="0.0" d="m430.15485 670.147l-74.77164 -13.826782" fill-rule="evenodd"/><path stroke="#3c78d8" stroke-width="1.0" stroke-linejoin="round" stroke-linecap="butt" d="m430.15485 670.147l-74.77164 -13.826782" fill-rule="evenodd"/><path fill="#000000" fill-opacity="0.0" d="m351.0543 651.9755l-21.385834 -29.385803" fill-rule="evenodd"/><path stroke="#3c78d8" stroke-width="1.0" stroke-linejoin="round" stroke-linecap="butt" d="m351.0543 651.9755l-21.385834 -29.385803" fill-rule="evenodd"/><path fill="#000000" fill-opacity="0.0" d="m326.15485 621.1391l-92.47243 -22.551147" fill-rule="evenodd"/><path stroke="#3c78d8" stroke-width="1.0" stroke-linejoin="round" stroke-linecap="butt" d="m326.15485 621.1391l-92.47243 -22.551147" fill-rule="evenodd"/><path fill="#000000" fill-opacity="0.0" d="m209.6766 638.59784l21.070862 -40.0" fill-rule="evenodd"/><path stroke="#3c78d8" stroke-width="1.0" stroke-linejoin="round" stroke-linecap="butt" d="m209.6766 638.59784l21.070862 -40.0" fill-rule="evenodd"/><path fill="#000000" fill-opacity="0.0" d="m194.28084 533.1391l13.952759 101.95276" fill-rule="evenodd"/><path stroke="#3c78d8" stroke-width="1.0" stroke-linejoin="round" stroke-linecap="butt" d="m194.28084 533.1391l13.952759 101.95276" fill-rule="evenodd"/><path fill="#000000" fill-opacity="0.0" d="m193.6766 531.68036l6.551178 -20.472443" fill-rule="evenodd"/><path stroke="#3c78d8" stroke-width="1.0" stroke-linejoin="round" stroke-linecap="butt" d="m193.6766 531.68036l6.551178 -20.472443" fill-rule="evenodd"/><path fill="#000000" fill-opacity="0.0" d="m194.28084 533.1391l-16.59842 -14.551147" fill-rule="evenodd"/><path stroke="#3c78d8" stroke-width="1.0" stroke-linejoin="round" stroke-linecap="butt" d="m194.28084 533.1391l-16.59842 -14.551147" fill-rule="evenodd"/><path fill="#000000" fill-opacity="0.0" d="m302.15485 589.1391l-111.401566 -57.44879" fill-rule="evenodd"/><path stroke="#3c78d8" stroke-width="1.0" stroke-linejoin="round" stroke-linecap="butt" d="m302.15485 589.1391l-111.401566 -57.44879" fill-rule="evenodd"/><path fill="#000000" fill-opacity="0.0" d="m534.15485 598.147l-228.47244 -7.559021" fill-rule="evenodd"/><path stroke="#3c78d8" stroke-width="1.0" stroke-linejoin="round" stroke-linecap="butt" d="m534.15485 598.147l-228.47244 -7.559021" fill-rule="evenodd"/><path fill="#000000" fill-opacity="0.0" d="m566.7591 619.68036l-27.370056 -19.370056" fill-rule="evenodd"/><path stroke="#3c78d8" stroke-width="1.0" stroke-linejoin="round" stroke-linecap="butt" d="m566.7591 619.68036l-27.370056 -19.370056" fill-rule="evenodd"/><path fill="#000000" fill-opacity="0.0" d="m569.2257 585.21783l-1.0078735 33.858276" fill-rule="evenodd"/><path stroke="#3c78d8" stroke-width="1.0" stroke-linejoin="round" stroke-linecap="butt" d="m569.2257 585.21783l-1.0078735 33.858276" fill-rule="evenodd"/><path fill="#000000" fill-opacity="0.0" d="m572.2966 582.147l25.858276 -1.0078735" fill-rule="evenodd"/><path stroke="#3c78d8" stroke-width="1.0" stroke-linejoin="round" stroke-linecap="butt" d="m572.2966 582.147l25.858276 -1.0078735" fill-rule="evenodd"/><path fill="#000000" fill-opacity="0.0" d="m601.6766 579.68036l13.070923 -13.070862" fill-rule="evenodd"/><path stroke="#3c78d8" stroke-width="1.0" stroke-linejoin="round" stroke-linecap="butt" d="m601.6766 579.68036l13.070923 -13.070862" fill-rule="evenodd"/><path fill="#000000" fill-opacity="0.0" d="m586.2808 557.1391l27.874023 8.0" fill-rule="evenodd"/><path stroke="#3c78d8" stroke-width="1.0" stroke-linejoin="round" stroke-linecap="butt" d="m586.2808 557.1391l27.874023 8.0" fill-rule="evenodd"/><path fill="#000000" fill-opacity="0.0" d="m582.15485 557.1391l-35.874023 8.0" fill-rule="evenodd"/><path stroke="#3c78d8" stroke-width="1.0" stroke-linejoin="round" stroke-linecap="butt" d="m582.15485 557.1391l-35.874023 8.0" fill-rule="evenodd"/><path fill="#000000" fill-opacity="0.0" d="m542.15485 565.1391l-43.873993 8.0" fill-rule="evenodd"/><path stroke="#3c78d8" stroke-width="1.0" stroke-linejoin="round" stroke-linecap="butt" d="m542.15485 565.1391l-43.873993 8.0" fill-rule="evenodd"/><path fill="#000000" fill-opacity="0.0" d="m545.6766 563.68036l53.070923 -117.07086" fill-rule="evenodd"/><path stroke="#3c78d8" stroke-width="1.0" stroke-linejoin="round" stroke-linecap="butt" d="m545.6766 563.68036l53.070923 -117.07086" fill-rule="evenodd"/><path fill="#000000" fill-opacity="0.0" d="m743.0543 520.3184l-125.385864 43.370056" fill-rule="evenodd"/><path stroke="#3c78d8" stroke-width="1.0" stroke-linejoin="round" stroke-linecap="butt" d="m743.0543 520.3184l-125.385864 43.370056" fill-rule="evenodd"/><path fill="#000000" fill-opacity="0.0" d="m782.7591 571.68036l-35.370056 -51.370056" fill-rule="evenodd"/><path stroke="#3c78d8" stroke-width="1.0" stroke-linejoin="round" stroke-linecap="butt" d="m782.7591 571.68036l-35.370056 -51.370056" fill-rule="evenodd"/><path fill="#000000" fill-opacity="0.0" d="m759.0543 504.31842l-11.653564 11.653564" fill-rule="evenodd"/><path stroke="#3c78d8" stroke-width="1.0" stroke-linejoin="round" stroke-linecap="butt" d="m759.0543 504.31842l-11.653564 11.653564" fill-rule="evenodd"/><path fill="#000000" fill-opacity="0.0" d="m763.39716 499.97556l5.826782 -10.7716675" fill-rule="evenodd"/><path stroke="#3c78d8" stroke-width="1.0" stroke-linejoin="round" stroke-linecap="butt" d="m763.39716 499.97556l5.826782 -10.7716675" fill-rule="evenodd"/><path fill="#000000" fill-opacity="0.0" d="m799.0543 536.3184l-13.385864 35.370056" fill-rule="evenodd"/><path stroke="#3c78d8" stroke-width="1.0" stroke-linejoin="round" stroke-linecap="butt" d="m799.0543 536.3184l-13.385864 35.370056" fill-rule="evenodd"/><path fill="#000000" fill-opacity="0.0" d="m814.7591 603.68036l-29.070862 -29.070862" fill-rule="evenodd"/><path stroke="#3c78d8" stroke-width="1.0" stroke-linejoin="round" stroke-linecap="butt" d="m814.7591 603.68036l-29.070862 -29.070862" fill-rule="evenodd"/><path fill="#000000" fill-opacity="0.0" d="m801.6766 635.68036l14.5512085 -28.472473" fill-rule="evenodd"/><path stroke="#3c78d8" stroke-width="1.0" stroke-linejoin="round" stroke-linecap="butt" d="m801.6766 635.68036l14.5512085 -28.472473" fill-rule="evenodd"/><path fill="#000000" fill-opacity="0.0" d="m803.39716 531.9755l11.653564 -19.653503" fill-rule="evenodd"/><path stroke="#3c78d8" stroke-width="1.0" stroke-linejoin="round" stroke-linecap="butt" d="m803.39716 531.9755l11.653564 -19.653503" fill-rule="evenodd"/><path fill="#000000" fill-opacity="0.0" d="m831.0543 531.9755l-11.653564 -19.653503" fill-rule="evenodd"/><path stroke="#3c78d8" stroke-width="1.0" stroke-linejoin="round" stroke-linecap="butt" d="m831.0543 531.9755l-11.653564 -19.653503" fill-rule="evenodd"/><path fill="#000000" fill-opacity="0.0" d="m863.0543 520.3184l-26.771667 13.826782" fill-rule="evenodd"/><path stroke="#3c78d8" stroke-width="1.0" stroke-linejoin="round" stroke-linecap="butt" d="m863.0543 520.3184l-26.771667 13.826782" fill-rule="evenodd"/><path fill="#000000" fill-opacity="0.0" d="m863.0543 515.9755l-84.787415 -62.834625" fill-rule="evenodd"/><path stroke="#3c78d8" stroke-width="1.0" stroke-linejoin="round" stroke-linecap="butt" d="m863.0543 515.9755l-84.787415 -62.834625" fill-rule="evenodd"/><path fill="#000000" fill-opacity="0.0" d="m774.15485 453.1391l-19.874023 0" fill-rule="evenodd"/><path stroke="#3c78d8" stroke-width="1.0" stroke-linejoin="round" stroke-linecap="butt" d="m774.15485 453.1391l-19.874023 0" fill-rule="evenodd"/><path fill="#000000" fill-opacity="0.0" d="m666.2808 413.1391l84.47247 38.551178" fill-rule="evenodd"/><path stroke="#3c78d8" stroke-width="1.0" stroke-linejoin="round" stroke-linecap="butt" d="m666.2808 413.1391l84.47247 38.551178" fill-rule="evenodd"/><path fill="#000000" fill-opacity="0.0" d="m662.15485 413.1391l-65.85828 -6.9921265" fill-rule="evenodd"/><path stroke="#3c78d8" stroke-width="1.0" stroke-linejoin="round" stroke-linecap="butt" d="m662.15485 413.1391l-65.85828 -6.9921265" fill-rule="evenodd"/><path fill="#000000" fill-opacity="0.0" d="m591.0543 403.97556l-26.771667 -13.826782" fill-rule="evenodd"/><path stroke="#3c78d8" stroke-width="1.0" stroke-linejoin="round" stroke-linecap="butt" d="m591.0543 403.97556l-26.771667 -13.826782" fill-rule="evenodd"/><path fill="#000000" fill-opacity="0.0" d="m531.39716 376.31842l27.653564 11.653534" fill-rule="evenodd"/><path stroke="#3c78d8" stroke-width="1.0" stroke-linejoin="round" stroke-linecap="butt" d="m531.39716 376.31842l27.653564 11.653534" fill-rule="evenodd"/><path fill="#000000" fill-opacity="0.0" d="m529.2257 395.0761l0 -17.858276" fill-rule="evenodd"/><path stroke="#3c78d8" stroke-width="1.0" stroke-linejoin="round" stroke-linecap="butt" d="m529.2257 395.0761l0 -17.858276" fill-rule="evenodd"/><path fill="#000000" fill-opacity="0.0" d="m316.2966 382.14697l212.94485 19.086609" fill-rule="evenodd"/><path stroke="#3c78d8" stroke-width="1.0" stroke-linejoin="round" stroke-linecap="butt" d="m316.2966 382.14697l212.94485 19.086609" fill-rule="evenodd"/><path fill="#000000" fill-opacity="0.0" d="m419.39716 235.97556l32.0 -19.65355" fill-rule="evenodd"/><path stroke="#3c78d8" stroke-width="1.0" stroke-linejoin="round" stroke-linecap="butt" d="m419.39716 235.97556l32.0 -19.65355" fill-rule="evenodd"/><path fill="#000000" fill-opacity="0.0" d="m415.0543 240.3184l-99.653534 139.65355" fill-rule="evenodd"/><path stroke="#3c78d8" stroke-width="1.0" stroke-linejoin="round" stroke-linecap="butt" d="m415.0543 240.3184l-99.653534 139.65355" fill-rule="evenodd"/><path fill="#000000" fill-opacity="0.0" d="m446.7591 251.68036l-31.716553 -15.716537" fill-rule="evenodd"/><path stroke="#3c78d8" stroke-width="1.0" stroke-linejoin="round" stroke-linecap="butt" d="m446.7591 251.68036l-31.716553 -15.716537" fill-rule="evenodd"/><path fill="#000000" fill-opacity="0.0" d="m310.15485 382.14697l-35.873993 -1.0078735" fill-rule="evenodd"/><path stroke="#3c78d8" stroke-width="1.0" stroke-linejoin="round" stroke-linecap="butt" d="m310.15485 382.14697l-35.873993 -1.0078735" fill-rule="evenodd"/><path fill="#000000" fill-opacity="0.0" d="m270.7591 382.59787l-22.551178 24.59842" fill-rule="evenodd"/><path stroke="#3c78d8" stroke-width="1.0" stroke-linejoin="round" stroke-linecap="butt" d="m270.7591 382.59787l-22.551178 24.59842" fill-rule="evenodd"/><path fill="#000000" fill-opacity="0.0" d="m270.15485 381.1391l-39.401566 -9.448822" fill-rule="evenodd"/><path stroke="#3c78d8" stroke-width="1.0" stroke-linejoin="round" stroke-linecap="butt" d="m270.15485 381.1391l-39.401566 -9.448822" fill-rule="evenodd"/><path fill="#000000" fill-opacity="0.0" d="m232.21785 351.2021l-1.448822 23.40158" fill-rule="evenodd"/><path stroke="#3c78d8" stroke-width="1.0" stroke-linejoin="round" stroke-linecap="butt" d="m232.21785 351.2021l-1.448822 23.40158" fill-rule="evenodd"/><path fill="#000000" fill-opacity="0.0" d="m272.21783 379.0761l-22.551163 -36.472443" fill-rule="evenodd"/><path stroke="#3c78d8" stroke-width="1.0" stroke-linejoin="round" stroke-linecap="butt" d="m272.21783 379.0761l-22.551163 -36.472443" fill-rule="evenodd"/><path fill="#000000" fill-opacity="0.0" d="m233.6766 326.59787l13.070862 13.070862" fill-rule="evenodd"/><path stroke="#3c78d8" stroke-width="1.0" stroke-linejoin="round" stroke-linecap="butt" d="m233.6766 326.59787l13.070862 13.070862" fill-rule="evenodd"/><path fill="#000000" fill-opacity="0.0" d="m230.7591 323.68036l18.929138 -56.0" fill-rule="evenodd"/><path stroke="#3c78d8" stroke-width="1.0" stroke-linejoin="round" stroke-linecap="butt" d="m230.7591 323.68036l18.929138 -56.0" fill-rule="evenodd"/><path fill="#000000" fill-opacity="0.0" d="m230.7591 347.68036l-20.472443 -14.551178" fill-rule="evenodd"/><path stroke="#3c78d8" stroke-width="1.0" stroke-linejoin="round" stroke-linecap="butt" d="m230.7591 347.68036l-20.472443 -14.551178" fill-rule="evenodd"/><path fill="#000000" fill-opacity="0.0" d="m135.05429 475.97556l71.71654 -141.38583" fill-rule="evenodd"/><path stroke="#3c78d8" stroke-width="1.0" stroke-linejoin="round" stroke-linecap="butt" d="m135.05429 475.97556l71.71654 -141.38583" fill-rule="evenodd"/><path fill="#000000" fill-opacity="0.0" d="m135.05429 475.97556l-36.7874 -38.834656" fill-rule="evenodd"/><path stroke="#3c78d8" stroke-width="1.0" stroke-linejoin="round" stroke-linecap="butt" d="m135.05429 475.97556l-36.7874 -38.834656" fill-rule="evenodd"/><path fill="#000000" fill-opacity="0.0" d="m121.22572 523.0761l13.826767 -42.771637" fill-rule="evenodd"/><path stroke="#3c78d8" stroke-width="1.0" stroke-linejoin="round" stroke-linecap="butt" d="m121.22572 523.0761l13.826767 -42.771637" fill-rule="evenodd"/><path fill="#000000" fill-opacity="0.0" d="m198.7591 510.59787l-59.370087 -30.26773" fill-rule="evenodd"/><path stroke="#3c78d8" stroke-width="1.0" stroke-linejoin="round" stroke-linecap="butt" d="m198.7591 510.59787l-59.370087 -30.26773" fill-rule="evenodd"/><path fill="#000000" fill-opacity="0.0" d="m176.21785 519.2021l-14.551178 -16.59842" fill-rule="evenodd"/><path stroke="#3c78d8" stroke-width="1.0" stroke-linejoin="round" stroke-linecap="butt" d="m176.21785 519.2021l-14.551178 -16.59842" fill-rule="evenodd"/><path fill="#000000" fill-opacity="0.0" d="m190.15486 533.1391l-39.40158 -17.448792" fill-rule="evenodd"/><path stroke="#3c78d8" stroke-width="1.0" stroke-linejoin="round" stroke-linecap="butt" d="m190.15486 533.1391l-39.40158 -17.448792" fill-rule="evenodd"/><path fill="#000000" fill-opacity="0.0" d="m123.397156 544.3184l28.818893 -29.228333" fill-rule="evenodd"/><path stroke="#3c78d8" stroke-width="1.0" stroke-linejoin="round" stroke-linecap="butt" d="m123.397156 544.3184l28.818893 -29.228333" fill-rule="evenodd"/><path fill="#000000" fill-opacity="0.0" d="m104.21785 559.2021l14.8346405 -30.897644" fill-rule="evenodd"/><path stroke="#3c78d8" stroke-width="1.0" stroke-linejoin="round" stroke-linecap="butt" d="m104.21785 559.2021l14.8346405 -30.897644" fill-rule="evenodd"/><path fill="#000000" fill-opacity="0.0" d="m136.21785 615.2021l-14.992126 -69.98425" fill-rule="evenodd"/><path stroke="#3c78d8" stroke-width="1.0" stroke-linejoin="round" stroke-linecap="butt" d="m136.21785 615.2021l-14.992126 -69.98425" fill-rule="evenodd"/><path fill="#000000" fill-opacity="0.0" d="m210.28084 637.1391l-72.0 -24.0" fill-rule="evenodd"/><path stroke="#3c78d8" stroke-width="1.0" stroke-linejoin="round" stroke-linecap="butt" d="m210.28084 637.1391l-72.0 -24.0" fill-rule="evenodd"/><path fill="#000000" fill-opacity="0.0" d="m210.28084 637.1391l-93.98425 25.007874" fill-rule="evenodd"/><path stroke="#3c78d8" stroke-width="1.0" stroke-linejoin="round" stroke-linecap="butt" d="m210.28084 637.1391l-93.98425 25.007874" fill-rule="evenodd"/><path fill="#000000" fill-opacity="0.0" d="m89.676605 654.59784l20.472443 7.559082" fill-rule="evenodd"/><path stroke="#3c78d8" stroke-width="1.0" stroke-linejoin="round" stroke-linecap="butt" d="m89.676605 654.59784l20.472443 7.559082" fill-rule="evenodd"/><path fill="#000000" fill-opacity="0.0" d="m86.759094 651.68036l-13.070869 -13.070862" fill-rule="evenodd"/><path stroke="#3c78d8" stroke-width="1.0" stroke-linejoin="round" stroke-linecap="butt" d="m86.759094 651.68036l-13.070869 -13.070862" fill-rule="evenodd"/><path fill="#000000" fill-opacity="0.0" d="m617.2257 369.21783l0.440979 10.456696" fill-rule="evenodd"/><path stroke="#3c78d8" stroke-width="1.0" stroke-linejoin="round" stroke-linecap="butt" d="m617.2257 369.21783l0.440979 10.456696" fill-rule="evenodd"/><path fill="#000000" fill-opacity="0.0" d="m630.7591 206.59787l-13.543335 156.47244" fill-rule="evenodd"/><path stroke="#3c78d8" stroke-width="1.0" stroke-linejoin="round" stroke-linecap="butt" d="m630.7591 206.59787l-13.543335 156.47244" fill-rule="evenodd"/><path fill="#000000" fill-opacity="0.0" d="m632.21783 203.07611l0 -8.913376" fill-rule="evenodd"/><path stroke="#3c78d8" stroke-width="1.0" stroke-linejoin="round" stroke-linecap="butt" d="m632.21783 203.07611l0 -8.913376" fill-rule="evenodd"/><path fill="#000000" fill-opacity="0.0" d="m638.7591 182.59787l-5.070862 8.062988" fill-rule="evenodd"/><path stroke="#3c78d8" stroke-width="1.0" stroke-linejoin="round" stroke-linecap="butt" d="m638.7591 182.59787l-5.070862 8.062988" fill-rule="evenodd"/><path fill="#000000" fill-opacity="0.0" d="m686.7591 166.59787l-53.07086 37.07086" fill-rule="evenodd"/><path stroke="#3c78d8" stroke-width="1.0" stroke-linejoin="round" stroke-linecap="butt" d="m686.7591 166.59787l-53.07086 37.07086" fill-rule="evenodd"/><path fill="#000000" fill-opacity="0.0" d="m689.6766 166.59787l21.070923 29.070862" fill-rule="evenodd"/><path stroke="#3c78d8" stroke-width="1.0" stroke-linejoin="round" stroke-linecap="butt" d="m689.6766 166.59787l21.070923 29.070862" fill-rule="evenodd"/><path fill="#000000" fill-opacity="0.0" d="m713.6766 195.68036l21.070923 -13.070877" fill-rule="evenodd"/><path stroke="#3c78d8" stroke-width="1.0" stroke-linejoin="round" stroke-linecap="butt" d="m713.6766 195.68036l21.070923 -13.070877" fill-rule="evenodd"/><path fill="#000000" fill-opacity="0.0" d="m729.6766 166.59787l6.5512085 12.472427" fill-rule="evenodd"/><path stroke="#3c78d8" stroke-width="1.0" stroke-linejoin="round" stroke-linecap="butt" d="m729.6766 166.59787l6.5512085 12.472427" fill-rule="evenodd"/><path fill="#000000" fill-opacity="0.0" d="m737.6766 182.59787l15.559082 68.47243" fill-rule="evenodd"/><path stroke="#3c78d8" stroke-width="1.0" stroke-linejoin="round" stroke-linecap="butt" d="m737.6766 182.59787l15.559082 68.47243" fill-rule="evenodd"/><path fill="#000000" fill-opacity="0.0" d="m756.2966 254.14699l17.858276 7.9999847" fill-rule="evenodd"/><path stroke="#3c78d8" stroke-width="1.0" stroke-linejoin="round" stroke-linecap="butt" d="m756.2966 254.14699l17.858276 7.9999847" fill-rule="evenodd"/><path fill="#000000" fill-opacity="0.0" d="m777.2257 265.21783l0 9.858276" fill-rule="evenodd"/><path stroke="#3c78d8" stroke-width="1.0" stroke-linejoin="round" stroke-linecap="butt" d="m777.2257 265.21783l0 9.858276" fill-rule="evenodd"/><path fill="#000000" fill-opacity="0.0" d="m705.6766 262.59787l14.5512085 28.472443" fill-rule="evenodd"/><path stroke="#3c78d8" stroke-width="1.0" stroke-linejoin="round" stroke-linecap="butt" d="m705.6766 262.59787l14.5512085 28.472443" fill-rule="evenodd"/><path fill="#000000" fill-opacity="0.0" d="m683.39716 307.97556l11.653564 -11.653534" fill-rule="evenodd"/><path stroke="#3c78d8" stroke-width="1.0" stroke-linejoin="round" stroke-linecap="butt" d="m683.39716 307.97556l11.653564 -11.653534" fill-rule="evenodd"/><path fill="#000000" fill-opacity="0.0" d="m806.15485 278.14697l-25.858276 0" fill-rule="evenodd"/><path stroke="#3c78d8" stroke-width="1.0" stroke-linejoin="round" stroke-linecap="butt" d="m806.15485 278.14697l-25.858276 0" fill-rule="evenodd"/><path fill="#000000" fill-opacity="0.0" d="m814.7591 246.59787l-5.543335 28.472443" fill-rule="evenodd"/><path stroke="#3c78d8" stroke-width="1.0" stroke-linejoin="round" stroke-linecap="butt" d="m814.7591 246.59787l-5.543335 28.472443" fill-rule="evenodd"/><path fill="#000000" fill-opacity="0.0" d="m553.6766 411.68036l5.3858643 -19.370087" fill-rule="evenodd"/><path stroke="#3c78d8" stroke-width="1.0" stroke-linejoin="round" stroke-linecap="butt" d="m553.6766 411.68036l5.3858643 -19.370087" fill-rule="evenodd"/><path fill="#000000" fill-opacity="0.0" d="m574.7591 374.59787l-11.370056 13.385834" fill-rule="evenodd"/><path stroke="#3c78d8" stroke-width="1.0" stroke-linejoin="round" stroke-linecap="butt" d="m574.7591 374.59787l-11.370056 13.385834" fill-rule="evenodd"/><path fill="#000000" fill-opacity="0.0" d="m600.21783 431.2021l0 11.874023" fill-rule="evenodd"/><path stroke="#3c78d8" stroke-width="1.0" stroke-linejoin="round" stroke-linecap="butt" d="m600.21783 431.2021l0 11.874023" fill-rule="evenodd"/><path fill="#000000" fill-opacity="0.0" d="m802.2808 509.1391l11.874023 1.0078735" fill-rule="evenodd"/><path stroke="#3c78d8" stroke-width="1.0" stroke-linejoin="round" stroke-linecap="butt" d="m802.2808 509.1391l11.874023 1.0078735" fill-rule="evenodd"/><path fill="#000000" fill-opacity="0.0" d="m601.6766 430.59787l13.070923 13.070862" fill-rule="evenodd"/><path stroke="#3c78d8" stroke-width="1.0" stroke-linejoin="round" stroke-linecap="butt" d="m601.6766 430.59787l13.070923 13.070862" fill-rule="evenodd"/><path fill="#000000" fill-opacity="0.0" d="m598.7591 427.68036l-5.543335 -18.456696" fill-rule="evenodd"/><path stroke="#3c78d8" stroke-width="1.0" stroke-linejoin="round" stroke-linecap="butt" d="m598.7591 427.68036l-5.543335 -18.456696" fill-rule="evenodd"/><path fill="#000000" fill-opacity="0.0" d="m474.28085 421.1391l75.87399 -8.0" fill-rule="evenodd"/><path stroke="#3c78d8" stroke-width="1.0" stroke-linejoin="round" stroke-linecap="butt" d="m474.28085 421.1391l75.87399 -8.0" fill-rule="evenodd"/><path fill="#000000" fill-opacity="0.0" d="m630.15485 77.13911l-58.771667 22.834648" fill-rule="evenodd"/><path stroke="#3c78d8" stroke-width="1.0" stroke-linejoin="round" stroke-linecap="butt" d="m630.15485 77.13911l-58.771667 22.834648" fill-rule="evenodd"/><path fill="#000000" fill-opacity="0.0" d="m633.6766 78.59786l20.472473 6.5511856" fill-rule="evenodd"/><path stroke="#3c78d8" stroke-width="1.0" stroke-linejoin="round" stroke-linecap="butt" d="m633.6766 78.59786l20.472473 6.5511856" fill-rule="evenodd"/><path fill="#000000" fill-opacity="0.0" d="m658.2808 85.13911l10.456726 0" fill-rule="evenodd"/><path stroke="#3c78d8" stroke-width="1.0" stroke-linejoin="round" stroke-linecap="butt" d="m658.2808 85.13911l10.456726 0" fill-rule="evenodd"/><path fill="#000000" fill-opacity="0.0" d="m662.7591 70.59786l-5.070862 13.070869" fill-rule="evenodd"/><path stroke="#3c78d8" stroke-width="1.0" stroke-linejoin="round" stroke-linecap="butt" d="m662.7591 70.59786l-5.070862 13.070869" fill-rule="evenodd"/><path fill="#000000" fill-opacity="0.0" d="m670.7591 54.597862l-5.070862 13.070869" fill-rule="evenodd"/><path stroke="#3c78d8" stroke-width="1.0" stroke-linejoin="round" stroke-linecap="butt" d="m670.7591 54.597862l-5.070862 13.070869" fill-rule="evenodd"/><path fill="#000000" fill-opacity="0.0" d="m738.2808 181.13911l60.472473 -70.551186" fill-rule="evenodd"/><path stroke="#3c78d8" stroke-width="1.0" stroke-linejoin="round" stroke-linecap="butt" d="m738.2808 181.13911l60.472473 -70.551186" fill-rule="evenodd"/><path fill="#000000" fill-opacity="0.0" d="m770.2808 93.13911l27.874023 16.0" fill-rule="evenodd"/><path stroke="#3c78d8" stroke-width="1.0" stroke-linejoin="round" stroke-linecap="butt" d="m770.2808 93.13911l27.874023 16.0" fill-rule="evenodd"/><path fill="#000000" fill-opacity="0.0" d="m802.2808 109.13911l11.874023 1.0078735" fill-rule="evenodd"/><path stroke="#3c78d8" stroke-width="1.0" stroke-linejoin="round" stroke-linecap="butt" d="m802.2808 109.13911l11.874023 1.0078735" fill-rule="evenodd"/><path fill="#000000" fill-opacity="0.0" d="m819.39716 112.31841l10.7716675 5.826767" fill-rule="evenodd"/><path stroke="#3c78d8" stroke-width="1.0" stroke-linejoin="round" stroke-linecap="butt" d="m819.39716 112.31841l10.7716675 5.826767" fill-rule="evenodd"/><path fill="#000000" fill-opacity="0.0" d="m819.39716 107.97555l19.370056 -29.385826" fill-rule="evenodd"/><path stroke="#3c78d8" stroke-width="1.0" stroke-linejoin="round" stroke-linecap="butt" d="m819.39716 107.97555l19.370056 -29.385826" fill-rule="evenodd"/><path fill="#000000" fill-opacity="0.0" d="m854.15485 85.13911l-12.472412 -6.551178" fill-rule="evenodd"/><path stroke="#3c78d8" stroke-width="1.0" stroke-linejoin="round" stroke-linecap="butt" d="m854.15485 85.13911l-12.472412 -6.551178" fill-rule="evenodd"/><path fill="#000000" fill-opacity="0.0" d="m854.7591 62.597862l-13.070862 13.070869" fill-rule="evenodd"/><path stroke="#3c78d8" stroke-width="1.0" stroke-linejoin="round" stroke-linecap="butt" d="m854.7591 62.597862l-13.070862 13.070869" fill-rule="evenodd"/><path fill="#000000" fill-opacity="0.0" d="m99.397156 224.3184l107.37007 107.37007" fill-rule="evenodd"/><path stroke="#3c78d8" stroke-width="1.0" stroke-linejoin="round" stroke-linecap="butt" d="m99.397156 224.3184l107.37007 107.37007" fill-rule="evenodd"/><path fill="#000000" fill-opacity="0.0" d="m95.05429 224.3184l-36.7874 36.818893" fill-rule="evenodd"/><path stroke="#3c78d8" stroke-width="1.0" stroke-linejoin="round" stroke-linecap="butt" d="m95.05429 224.3184l-36.7874 36.818893" fill-rule="evenodd"/><path fill="#000000" fill-opacity="0.0" d="m94.154854 222.14699l-19.874016 -9.007874" fill-rule="evenodd"/><path stroke="#3c78d8" stroke-width="1.0" stroke-linejoin="round" stroke-linecap="butt" d="m94.154854 222.14699l-19.874016 -9.007874" fill-rule="evenodd"/><path fill="#000000" fill-opacity="0.0" d="m97.22572 219.07611l-15.559059 -20.472443" fill-rule="evenodd"/><path stroke="#3c78d8" stroke-width="1.0" stroke-linejoin="round" stroke-linecap="butt" d="m97.22572 219.07611l-15.559059 -20.472443" fill-rule="evenodd"/><path fill="#000000" fill-opacity="0.0" d="m87.05429 184.3184l-5.385826 11.370087" fill-rule="evenodd"/><path stroke="#3c78d8" stroke-width="1.0" stroke-linejoin="round" stroke-linecap="butt" d="m87.05429 184.3184l-5.385826 11.370087" fill-rule="evenodd"/><path fill="#000000" fill-opacity="0.0" d="m91.397156 184.3184l27.370071 -17.73227" fill-rule="evenodd"/><path stroke="#3c78d8" stroke-width="1.0" stroke-linejoin="round" stroke-linecap="butt" d="m91.397156 184.3184l27.370071 -17.73227" fill-rule="evenodd"/><path fill="#000000" fill-opacity="0.0" d="m158.15486 157.13911l-35.874023 8.0" fill-rule="evenodd"/><path stroke="#3c78d8" stroke-width="1.0" stroke-linejoin="round" stroke-linecap="butt" d="m158.15486 157.13911l-35.874023 8.0" fill-rule="evenodd"/><path fill="#000000" fill-opacity="0.0" d="m162.28084 157.13911l132.47246 -30.551186" fill-rule="evenodd"/><path stroke="#3c78d8" stroke-width="1.0" stroke-linejoin="round" stroke-linecap="butt" d="m162.28084 157.13911l132.47246 -30.551186" fill-rule="evenodd"/><path fill="#000000" fill-opacity="0.0" d="m319.0543 139.97556l-21.385834 -13.385834" fill-rule="evenodd"/><path stroke="#3c78d8" stroke-width="1.0" stroke-linejoin="round" stroke-linecap="butt" d="m319.0543 139.97556l-21.385834 -13.385834" fill-rule="evenodd"/><path fill="#000000" fill-opacity="0.0" d="m312.21783 163.07611l6.834656 -18.771652" fill-rule="evenodd"/><path stroke="#3c78d8" stroke-width="1.0" stroke-linejoin="round" stroke-linecap="butt" d="m312.21783 163.07611l6.834656 -18.771652" fill-rule="evenodd"/><path fill="#000000" fill-opacity="0.0" d="m328.21606 179.09007l-4.8189087 -34.771667" fill-rule="evenodd"/><path stroke="#3c78d8" stroke-width="1.0" stroke-linejoin="round" stroke-linecap="butt" d="m328.21606 179.09007l-4.8189087 -34.771667" fill-rule="evenodd"/><path fill="#000000" fill-opacity="0.0" d="m327.0543 128.3184l-3.653534 11.653549" fill-rule="evenodd"/><path stroke="#3c78d8" stroke-width="1.0" stroke-linejoin="round" stroke-linecap="butt" d="m327.0543 128.3184l-3.653534 11.653549" fill-rule="evenodd"/><path fill="#000000" fill-opacity="0.0" d="m-0.6167979 161.95801l78.77165 12.18898" fill-rule="evenodd"/><path stroke="#3c78d8" stroke-width="1.0" stroke-linejoin="round" stroke-linecap="butt" d="m-0.6167979 161.95801l78.77165 12.18898" fill-rule="evenodd"/><path fill="#000000" fill-opacity="0.0" d="m87.05429 179.97556l-3.6535416 -3.6535492" fill-rule="evenodd"/><path stroke="#3c78d8" stroke-width="1.0" stroke-linejoin="round" stroke-linecap="butt" d="m87.05429 179.97556l-3.6535416 -3.6535492" fill-rule="evenodd"/><path fill="#000000" fill-opacity="0.0" d="m105.22572 41.217846l-1.0078735 97.85826" fill-rule="evenodd"/><path stroke="#3c78d8" stroke-width="1.0" stroke-linejoin="round" stroke-linecap="butt" d="m105.22572 41.217846l-1.0078735 97.85826" fill-rule="evenodd"/><path fill="#000000" fill-opacity="0.0" d="m105.22572 35.076115l4.3149567 -36.283463" fill-rule="evenodd"/><path stroke="#3c78d8" stroke-width="1.0" stroke-linejoin="round" stroke-linecap="butt" d="m105.22572 35.076115l4.3149567 -36.283463" fill-rule="evenodd"/><path fill="#000000" fill-opacity="0.0" d="m105.676605 142.59787l13.070862 21.070862" fill-rule="evenodd"/><path stroke="#3c78d8" stroke-width="1.0" stroke-linejoin="round" stroke-linecap="butt" d="m105.676605 142.59787l13.070862 21.070862" fill-rule="evenodd"/><path fill="#000000" fill-opacity="0.0" d="m139.27296 720.24146l-26.047241 -55.02362" fill-rule="evenodd"/><path stroke="#3c78d8" stroke-width="1.0" stroke-linejoin="round" stroke-linecap="butt" d="m139.27296 720.24146l-26.047241 -55.02362" fill-rule="evenodd"/><path fill="#000000" fill-opacity="0.0" d="m-0.6109866 672.9916l87.37008 -18.393738" fill-rule="evenodd"/><path stroke="#3c78d8" stroke-width="1.0" stroke-linejoin="round" stroke-linecap="butt" d="m-0.6109866 672.9916l87.37008 -18.393738" fill-rule="evenodd"/><path fill="#000000" fill-opacity="0.0" d="m0.0131233595 464.00525l94.14173 -26.86615" fill-rule="evenodd"/><path stroke="#3c78d8" stroke-width="1.0" stroke-linejoin="round" stroke-linecap="butt" d="m0.0131233595 464.00525l94.14173 -26.86615" fill-rule="evenodd"/><path fill="#000000" fill-opacity="0.0" d="m353.2257 657.21783l5.826782 10.7716675" fill-rule="evenodd"/><path stroke="#3c78d8" stroke-width="1.0" stroke-linejoin="round" stroke-linecap="butt" d="m353.2257 657.21783l5.826782 10.7716675" fill-rule="evenodd"/><path fill="#000000" fill-opacity="0.0" d="m361.2257 673.21783l0.12600708 47.02362" fill-rule="evenodd"/><path stroke="#3c78d8" stroke-width="1.0" stroke-linejoin="round" stroke-linecap="butt" d="m361.2257 673.21783l0.12600708 47.02362" fill-rule="evenodd"/><path fill="#000000" fill-opacity="0.0" d="m550.1688 722.46014l-114.77167 -50.141724" fill-rule="evenodd"/><path stroke="#3c78d8" stroke-width="1.0" stroke-linejoin="round" stroke-linecap="butt" d="m550.1688 722.46014l-114.77167 -50.141724" fill-rule="evenodd"/><path fill="#000000" fill-opacity="0.0" d="m279.91864 87.2021l14.834656 36.472435" fill-rule="evenodd"/><path stroke="#3c78d8" stroke-width="1.0" stroke-linejoin="round" stroke-linecap="butt" d="m279.91864 87.2021l14.834656 36.472435" fill-rule="evenodd"/><path fill="#000000" fill-opacity="0.0" d="m281.37738 83.68035l60.787415 -30.551182" fill-rule="evenodd"/><path stroke="#3c78d8" stroke-width="1.0" stroke-linejoin="round" stroke-linecap="butt" d="m281.37738 83.68035l60.787415 -30.551182" fill-rule="evenodd"/><path fill="#000000" fill-opacity="0.0" d="m345.6766 51.68035l48.787415 -53.82677" fill-rule="evenodd"/><path stroke="#3c78d8" stroke-width="1.0" stroke-linejoin="round" stroke-linecap="butt" d="m345.6766 51.68035l48.787415 -53.82677" fill-rule="evenodd"/><path fill="#000000" fill-opacity="0.0" d="m339.39716 40.318413l3.3700867 11.370079" fill-rule="evenodd"/><path stroke="#3c78d8" stroke-width="1.0" stroke-linejoin="round" stroke-linecap="butt" d="m339.39716 40.318413l3.3700867 11.370079" fill-rule="evenodd"/><path fill="#000000" fill-opacity="0.0" d="m524.21967 -3.0795667l42.834656 103.055115" fill-rule="evenodd"/><path stroke="#3c78d8" stroke-width="1.0" stroke-linejoin="round" stroke-linecap="butt" d="m524.21967 -3.0795667l42.834656 103.055115" fill-rule="evenodd"/><path fill="#000000" fill-opacity="0.0" d="m962.8735 112.582115l-105.1969 -25.984253" fill-rule="evenodd"/><path stroke="#3c78d8" stroke-width="1.0" stroke-linejoin="round" stroke-linecap="butt" d="m962.8735 112.582115l-105.1969 -25.984253" fill-rule="evenodd"/><path fill="#000000" fill-opacity="0.0" d="m854.7591 59.68035l-42.48822 -62.45669" fill-rule="evenodd"/><path stroke="#3c78d8" stroke-width="1.0" stroke-linejoin="round" stroke-linecap="butt" d="m854.7591 59.68035l-42.48822 -62.45669" fill-rule="evenodd"/><path fill="#000000" fill-opacity="0.0" d="m873.6766 294.59787l91.24414 66.01575" fill-rule="evenodd"/><path stroke="#3c78d8" stroke-width="1.0" stroke-linejoin="round" stroke-linecap="butt" d="m873.6766 294.59787l91.24414 66.01575" fill-rule="evenodd"/><path fill="#000000" fill-opacity="0.0" d="m962.45404 393.84778l-97.22833 127.370056" fill-rule="evenodd"/><path stroke="#3c78d8" stroke-width="1.0" stroke-linejoin="round" stroke-linecap="butt" d="m962.45404 393.84778l-97.22833 127.370056" fill-rule="evenodd"/><path fill="#000000" fill-opacity="0.0" d="m962.4325 631.38525l-144.75592 -24.787415" fill-rule="evenodd"/><path stroke="#3c78d8" stroke-width="1.0" stroke-linejoin="round" stroke-linecap="butt" d="m962.4325 631.38525l-144.75592 -24.787415" fill-rule="evenodd"/><path fill="#000000" fill-opacity="0.0" d="m854.1391 723.70605l-37.921265 -116.50397" fill-rule="evenodd"/><path stroke="#3c78d8" stroke-width="1.0" stroke-linejoin="round" stroke-linecap="butt" d="m854.1391 723.70605l-37.921265 -116.50397" fill-rule="evenodd"/><path fill="#000000" fill-opacity="0.0" d="m470.7591 422.59787l-165.07086 165.07083" fill-rule="evenodd"/><path stroke="#3c78d8" stroke-width="1.0" stroke-linejoin="round" stroke-linecap="butt" d="m470.7591 422.59787l-165.07086 165.07083" fill-rule="evenodd"/></g></svg>