<svg version="1.1" viewBox="0.0 0.0 378.61942257217845 494.06824146981626" fill="none" stroke="none" stroke-linecap="square" stroke-miterlimit="10" xmlns:xlink="http://www.w3.org/1999/xlink" xmlns="http://www.w3.org/2000/svg"><clipPath id="p.0"><path d="m0 0l378.61942 0l0 494.06824l-378.61942 0l0 -494.06824z" clip-rule="nonzero"/></clipPath><g clip-path="url(#p.0)"><path fill="#000000" fill-opacity="0.0" d="m0 0l378.61942 0l0 494.06824l-378.61942 0z" fill-rule="evenodd"/><path fill="#274e13" fill-opacity="0.7136" d="m153.12604 420.23053c14.2760315 4.965454 18.827652 19.033264 32.27559 18.619415c13.447952 -0.41381836 34.13649 -20.688538 48.41208 -21.102356c14.275589 -0.41381836 35.793076 9.309265 37.24147 18.619415c1.4483643 9.31015 -1.447937 31.034576 -28.551178 37.241486c-27.103241 6.206909 -103.44751 6.206909 -134.06824 0c-30.620735 -6.206909 -48.20779 -26.48294 -49.65617 -37.241486c-1.4483833 -10.758514 25.241467 -24.6203 40.965878 -27.309692c15.724411 -2.6894226 39.104546 6.207794 53.380577 11.173218z" fill-rule="evenodd"/><path fill="#ffffff" d="m204.52682 375.7335l0 0c-12.567749 -40.808197 -5.256241 -79.27646 16.330704 -85.921265l0 0c10.366409 -3.1909485 22.705734 1.5335999 34.30345 13.134247c11.597717 11.6006775 21.503815 29.127228 27.539062 48.72403l0 0c12.567749 40.808197 5.2562256 79.27643 -16.330719 85.921265l0 0c-21.58693 6.644806 -49.274765 -21.05008 -61.8425 -61.858276z" fill-rule="evenodd"/><path stroke="#ff0000" stroke-width="8.0" stroke-linejoin="round" stroke-linecap="butt" d="m204.52682 375.7335l0 0c-12.567749 -40.808197 -5.256241 -79.27646 16.330704 -85.921265l0 0c10.366409 -3.1909485 22.705734 1.5335999 34.30345 13.134247c11.597717 11.6006775 21.503815 29.127228 27.539062 48.72403l0 0c12.567749 40.808197 5.2562256 79.27643 -16.330719 85.921265l0 0c-21.58693 6.644806 -49.274765 -21.05008 -61.8425 -61.858276z" fill-rule="evenodd"/><path fill="#f4cccc" d="m90.33395 350.34647l0 0c13.941925 -40.355927 42.5534 -67.09192 63.90551 -59.716522l0 0c10.253647 3.5417786 17.427689 14.637024 19.943924 30.84488c2.5162354 16.207886 0.16854858 36.200714 -6.526596 55.580322l0 0c-13.94194 40.355927 -42.553406 67.09192 -63.905518 59.716522l0 0c-21.352112 -7.3753967 -27.359253 -46.069275 -13.41732 -86.4252z" fill-rule="evenodd"/><path stroke="#ff0000" stroke-width="8.0" stroke-linejoin="round" stroke-linecap="butt" d="m90.33395 350.34647l0 0c13.941925 -40.355927 42.5534 -67.09192 63.90551 -59.716522l0 0c10.253647 3.5417786 17.427689 14.637024 19.943924 30.84488c2.5162354 16.207886 0.16854858 36.200714 -6.526596 55.580322l0 0c-13.94194 40.355927 -42.553406 67.09192 -63.905518 59.716522l0 0c-21.352112 -7.3753967 -27.359253 -46.069275 -13.41732 -86.4252z" fill-rule="evenodd"/><path fill="#ffffff" d="m72.52231 223.1181l0 0c0 -69.92706 50.574196 -126.61417 112.96063 -126.61417l0 0c29.959015 0 58.690994 13.339668 79.87521 37.084427c21.184235 23.744766 33.08542 55.949585 33.08542 89.52974l0 0c0 69.92709 -50.574203 126.61417 -112.96063 126.61417l0 0c-62.386436 0 -112.96063 -56.687073 -112.96063 -126.61417z" fill-rule="evenodd"/><path stroke="#ff0000" stroke-width="8.0" stroke-linejoin="round" stroke-linecap="butt" d="m72.52231 223.1181l0 0c0 -69.92706 50.574196 -126.61417 112.96063 -126.61417l0 0c29.959015 0 58.690994 13.339668 79.87521 37.084427c21.184235 23.744766 33.08542 55.949585 33.08542 89.52974l0 0c0 69.92709 -50.574203 126.61417 -112.96063 126.61417l0 0c-62.386436 0 -112.96063 -56.687073 -112.96063 -126.61417z" fill-rule="evenodd"/><path fill="#ffffff" d="m141.41995 64.845146l0 0c0 -27.083698 19.727661 -49.03937 44.06299 -49.03937l0 0c11.6862335 0 22.89383 5.1666336 31.157242 14.363298c8.263412 9.196665 12.905746 21.670023 12.905746 34.67607l0 0c0 27.083694 -19.727676 49.039368 -44.06299 49.039368l0 0c-24.335327 0 -44.06299 -21.955673 -44.06299 -49.039368z" fill-rule="evenodd"/><path stroke="#ff0000" stroke-width="8.0" stroke-linejoin="round" stroke-linecap="butt" d="m141.41995 64.845146l0 0c0 -27.083698 19.727661 -49.03937 44.06299 -49.03937l0 0c11.6862335 0 22.89383 5.1666336 31.157242 14.363298c8.263412 9.196665 12.905746 21.670023 12.905746 34.67607l0 0c0 27.083694 -19.727676 49.039368 -44.06299 49.039368l0 0c-24.335327 0 -44.06299 -21.955673 -44.06299 -49.039368z" fill-rule="evenodd"/><path fill="#ffffff" d="m270.67978 214.15227l0 0c-22.717606 -51.514694 -24.381546 -100.671715 -3.7165222 -109.79528l0 0c9.923676 -4.3812943 23.774658 1.2440796 38.50586 15.638603c14.731201 14.394531 29.135925 36.379074 40.04532 61.117294l0 0c22.71759 51.514694 24.38153 100.67172 3.7165222 109.79529l0 0c-20.665009 9.123566 -55.833588 -25.241241 -78.55118 -76.755905z" fill-rule="evenodd"/><path stroke="#ff0000" stroke-width="8.0" stroke-linejoin="round" stroke-linecap="butt" d="m270.67978 214.15227l0 0c-22.717606 -51.514694 -24.381546 -100.671715 -3.7165222 -109.79528l0 0c9.923676 -4.3812943 23.774658 1.2440796 38.50586 15.638603c14.731201 14.394531 29.135925 36.379074 40.04532 61.117294l0 0c22.71759 51.514694 24.38153 100.67172 3.7165222 109.79529l0 0c-20.665009 9.123566 -55.833588 -25.241241 -78.55118 -76.755905z" fill-rule="evenodd"/><path fill="#ff0000" d="m326.38052 123.80315l-95.07594 19.863525l-35.26927 -31.034126l29.134918 -24.8294l59.80667 -8.690285z" fill-rule="evenodd"/><path stroke="#ff0000" stroke-width="1.0" stroke-linejoin="round" stroke-linecap="butt" d="m326.38052 123.80315l-95.07594 19.863525l-35.26927 -31.034126l29.134918 -24.8294l59.80667 -8.690285z" fill-rule="evenodd"/><path fill="#f4cccc" d="m338.32867 277.06705c-7.1684265 -0.73153687 -21.650696 -13.167969 -28.965118 -20.1904c-7.3144226 -7.0224304 -19.164062 -22.968689 -14.921478 -21.94423c4.2426147 1.0244598 30.72174 23.702072 40.377075 28.090988c9.655365 4.388916 16.970093 -4.0981445 17.555023 -1.7575378c0.5848999 2.3406067 -6.877075 16.532715 -14.045502 15.801178z" fill-rule="evenodd"/><path fill="#f4cccc" d="m83.78169 262.84253c-1.9863586 -7.6548615 -4.568611 -20.068695 -2.3836288 -37.241486c2.18499 -17.17279 10.3294525 -48.622482 15.493546 -65.79527c5.164093 -17.17279 6.1560135 -31.24147 15.491028 -37.241463c9.335007 -6.0 30.190865 -0.20691681 40.51905 1.2414627c10.328186 1.4483871 15.49144 6.62117 21.450073 7.448822c5.9586487 0.827652 17.678116 -6.8276443 14.301743 -2.4829407c-3.3763885 4.3447113 -25.42363 17.58574 -34.559998 28.551178c-9.136383 10.965439 -16.087357 24.0 -20.25827 37.24147c-4.170929 13.24147 -4.7672424 28.13823 -4.7672424 42.20735c0 14.069122 -0.5954895 29.586624 4.7672424 42.20735c5.362732 12.620728 18.074112 26.068665 27.409134 33.51706c9.335007 7.448395 29.395477 8.276459 28.600937 11.173218c-0.7945404 2.896759 -22.046814 8.276489 -33.36818 6.207367c-11.321365 -2.0691223 -24.033188 -8.897644 -34.560005 -18.62204c-10.526825 -9.724426 -22.24504 -31.655731 -28.600945 -39.724426c-6.3559036 -8.068665 -7.548134 -1.0328064 -9.534485 -8.687653z" fill-rule="evenodd"/><path fill="#ffffff" d="m25.183088 184.30978l0 0c18.34281 -53.071518 50.521904 -90.11555 71.874016 -82.74016l0 0c10.253647 3.5417862 16.58815 17.062729 17.61 37.588364c1.0218506 20.525635 -3.3526535 46.37462 -12.161186 71.86046l0 0c-18.342812 53.071518 -50.521904 90.115555 -71.874016 82.74016l0 0c-21.352112 -7.3753967 -23.79163 -56.377304 -5.448818 -109.44882z" fill-rule="evenodd"/><path stroke="#ff0000" stroke-width="8.0" stroke-linejoin="round" stroke-linecap="butt" d="m25.183088 184.30978l0 0c18.34281 -53.071518 50.521904 -90.11555 71.874016 -82.74016l0 0c10.253647 3.5417862 16.58815 17.062729 17.61 37.588364c1.0218506 20.525635 -3.3526535 46.37462 -12.161186 71.86046l0 0c-18.342812 53.071518 -50.521904 90.115555 -71.874016 82.74016l0 0c-21.352112 -7.3753967 -23.79163 -56.377304 -5.448818 -109.44882z" fill-rule="evenodd"/><path fill="#f4cccc" d="m24.120375 268.3541c-2.6372967 -2.452179 -4.4605656 -11.280518 -4.6802235 -20.213684c-0.2196579 -8.933182 1.3008881 -23.14801 3.3622723 -33.38536c2.0613842 -10.23735 4.198036 -15.491119 9.006033 -28.038742c4.8079987 -12.547623 14.132587 -36.209305 19.84195 -47.246964c5.709358 -11.037659 9.837475 -16.164139 14.414207 -18.978973c4.5767365 -2.8148346 16.846626 -10.315941 13.046196 2.0899734c-3.800438 12.405922 -28.410854 53.123253 -35.8488 72.34556c-7.4379463 19.22229 -7.4458694 31.666977 -8.778885 42.988235c-1.3330116 11.321243 2.5079308 19.865921 0.7808075 24.939255c-1.7271271 5.0733337 -8.50626 7.9528503 -11.143557 5.500702z" fill-rule="evenodd"/><path fill="#ff0000" d="m40.868767 123.80315l95.07595 19.863525l35.26927 -31.034126l-29.134918 -24.8294l-59.80668 -8.690285z" fill-rule="evenodd"/><path stroke="#ff0000" stroke-width="1.0" stroke-linejoin="round" stroke-linecap="butt" d="m40.868767 123.80315l95.07595 19.863525l35.26927 -31.034126l-29.134918 -24.8294l-59.80668 -8.690285z" fill-rule="evenodd"/><path fill="#f4cccc" d="m149.76228 58.134186c3.3127747 -1.4492569 16.409012 7.712158 21.740158 9.627296c5.3311462 1.9151382 10.143494 4.348755E-4 10.246719 1.8635178c0.10324097 1.8630829 -7.349945 5.8989487 -9.627289 9.314964c-2.2773438 3.416008 -3.829834 7.816704 -4.036743 11.181099c-0.20690918 3.3643951 4.2961426 8.694664 2.7952728 9.005249c-1.5008698 0.31058502 -8.591431 -3.3635178 -11.800522 -7.1417313c-3.2091064 -3.7782135 -5.9011383 -9.885826 -7.454071 -15.527557c-1.5529327 -5.6417313 -5.1763 -16.87358 -1.8635254 -18.322838z" fill-rule="evenodd"/><path fill="#f4cccc" d="m184.10442 55.372143c-5.181595 0.3684311 -13.409988 -6.266819 -14.171997 -8.847c-0.7619934 -2.5801811 6.8568115 -6.486641 9.600006 -6.6340904c2.7431946 -0.1474495 4.725601 5.823307 6.859192 5.7493896c2.133606 -0.07391739 3.504013 -5.971916 5.9424133 -6.192898c2.4384003 -0.2209816 10.059601 2.2129097 8.687988 4.867008c-1.3715973 2.6541023 -11.735992 10.689159 -16.917603 11.0575905z" fill-rule="evenodd"/><path fill="#ffffff" d="m129.16454 422.78445c-5.821144 -1.1293945 -4.288208 -56.47296 1.8395233 -66.41226c6.1277313 -9.939331 35.23346 -4.292328 34.92688 6.7763977c-0.30659485 11.068695 -30.945251 60.76526 -36.766403 59.635864z" fill-rule="evenodd"/><path fill="#f4cccc" d="m207.79367 354.26273c4.0 -2.8001099 18.667114 -4.6679993 24.800537 -6.401581c6.1334076 -1.7336121 13.866577 -6.2668457 12.0 -4.0c-1.8665924 2.2668457 -21.199478 8.400696 -23.199478 17.601044c-2.0 9.200348 6.5328064 28.26773 11.199478 37.601044c4.6666565 9.3333435 11.467178 14.398956 16.800522 18.398956c5.3333282 4.0 13.9995575 3.334198 15.199478 5.6010437c1.1999207 2.2668457 -3.0664978 8.666687 -8.0 8.0c-4.9335175 -0.6666565 -15.201233 -6.0 -21.601059 -12.0c-6.399826 -6.0 -12.398071 -14.933075 -16.797897 -24.0c-4.399826 -9.066925 -7.867462 -23.60147 -9.601044 -30.40158c-1.7335968 -6.8000793 -4.800537 -7.5988464 -0.8005371 -10.398926z" fill-rule="evenodd"/></g></svg>